<?xml version="1.0" encoding="UTF-8"?>
<!DOCTYPE svg PUBLIC "-//W3C//DTD SVG 1.1//EN" "http://www.w3.org/Graphics/SVG/1.1/DTD/svg11.dtd">
<svg xmlns="http://www.w3.org/2000/svg" version="1.1" width="691px" height="361px" style="shape-rendering:geometricPrecision; text-rendering:geometricPrecision; image-rendering:optimizeQuality; fill-rule:evenodd; clip-rule:evenodd" xmlns:xlink="http://www.w3.org/1999/xlink">
<g><path style="opacity:1" fill="#232d35" d="M 388.5,21.5 C 389.921,25.3386 391.588,29.0053 393.5,32.5C 396.5,32.5 399.5,32.5 402.5,32.5C 406.138,32.7377 408.971,34.4044 411,37.5C 411.028,35.2134 410.195,33.2134 408.5,31.5C 407.697,30.5768 407.53,29.5768 408,28.5C 409.371,30.0414 410.871,31.3747 412.5,32.5C 415.615,37.2577 416.615,42.2577 415.5,47.5C 414.172,48.9097 414.505,50.0764 416.5,51C 414,51.8333 413.833,53 416,54.5C 416.671,53.7476 417.504,53.4142 418.5,53.5C 421.676,54.3405 424.342,56.0071 426.5,58.5C 426.34,60.1992 426.506,61.8659 427,63.5C 428.147,62.5419 429.147,62.8753 430,64.5C 430.333,63.1667 430.667,61.8333 431,60.5C 431.495,62.4727 431.662,64.4727 431.5,66.5C 434.506,75.78 433.673,84.78 429,93.5C 427.739,96.2114 425.906,98.378 423.5,100C 431.334,106.469 432.334,113.636 426.5,121.5C 425.417,121.461 424.417,121.127 423.5,120.5C 422.459,122.991 421.626,122.991 421,120.5C 419.933,121.191 418.766,121.691 417.5,122C 418.167,122.333 418.833,122.667 419.5,123C 416.261,125.219 415.594,128.052 417.5,131.5C 416.127,131.343 414.793,131.51 413.5,132C 414.598,132.77 414.598,133.603 413.5,134.5C 413.5,135.167 413.167,135.5 412.5,135.5C 411.066,137.831 408.9,140.164 406,142.5C 404.739,142.241 403.739,141.574 403,140.5C 402.667,141.167 402.333,141.833 402,142.5C 400.89,140.963 399.39,140.297 397.5,140.5C 397.725,142.716 396.892,144.383 395,145.5C 394.667,144.833 394.333,144.167 394,143.5C 393.51,144.793 393.343,146.127 393.5,147.5C 392.844,146.378 392.511,145.045 392.5,143.5C 393.386,138.186 394.053,132.853 394.5,127.5C 407.715,127.467 413.215,120.8 411,107.5C 410.5,106.5 410,105.5 409.5,104.5C 406.554,103.345 403.554,103.179 400.5,104C 399.244,104.417 398.577,105.25 398.5,106.5C 394.183,108.078 391.183,106.578 389.5,102C 387.997,96.3755 388.33,90.8755 390.5,85.5C 389.233,83.0565 387.733,80.7231 386,78.5C 385.187,76.5643 384.687,74.5643 384.5,72.5C 371.57,72.9092 364.57,66.5759 363.5,53.5C 361.345,53.372 359.345,53.872 357.5,55C 354.508,58.9917 351.174,62.6584 347.5,66C 341.738,66.6906 336.071,66.1906 330.5,64.5C 328.626,64.3898 327.126,65.0564 326,66.5C 324.601,69.3634 323.601,72.3634 323,75.5C 321.578,85.2143 319.911,94.8809 318,104.5C 317.333,112.167 317.333,119.833 318,127.5C 318.956,130.647 320.123,133.647 321.5,136.5C 321.719,137.675 321.386,138.675 320.5,139.5C 316.889,137.525 313.223,135.858 309.5,134.5C 309.167,134.5 308.833,134.5 308.5,134.5C 299.614,123.524 297.114,111.19 301,97.5C 297.62,92.4526 293.286,88.4526 288,85.5C 279.734,69.5426 282.567,56.0426 296.5,45C 298.218,44.654 299.885,44.154 301.5,43.5C 301.035,25.633 309.701,16.633 327.5,16.5C 330.492,16.9657 333.492,17.2991 336.5,17.5C 336.389,18.1174 336.056,18.6174 335.5,19C 337.762,19.6419 339.929,20.4752 342,21.5C 343.659,22.1958 346.159,22.1958 349.5,21.5C 353.333,19.201 357.333,17.0343 361.5,15C 372.02,11.4395 381.02,13.6062 388.5,21.5 Z M 408.5,31.5 C 410.195,33.2134 411.028,35.2134 411,37.5C 408.971,34.4044 406.138,32.7377 402.5,32.5C 400.031,31.6829 397.365,31.1829 394.5,31C 396.411,29.5838 398.578,28.7505 401,28.5C 403.708,29.1086 406.208,30.1086 408.5,31.5 Z"/></g>
<g><path style="opacity:0.773" fill="#636b70" d="M 336.5,17.5 C 341.165,18.0777 345.499,19.4111 349.5,21.5C 346.159,22.1958 343.659,22.1958 342,21.5C 339.929,20.4752 337.762,19.6419 335.5,19C 336.056,18.6174 336.389,18.1174 336.5,17.5 Z"/></g>
<g><path style="opacity:0.227" fill="#686b6e" d="M 388.5,21.5 C 390.118,23.785 392.118,25.785 394.5,27.5C 398.777,26.3945 403.11,26.2278 407.5,27C 410.079,28.0757 411.746,29.909 412.5,32.5C 410.871,31.3747 409.371,30.0414 408,28.5C 407.53,29.5768 407.697,30.5768 408.5,31.5C 406.208,30.1086 403.708,29.1086 401,28.5C 398.578,28.7505 396.411,29.5838 394.5,31C 397.365,31.1829 400.031,31.6829 402.5,32.5C 399.5,32.5 396.5,32.5 393.5,32.5C 391.588,29.0053 389.921,25.3386 388.5,21.5 Z"/></g>
<g><path style="opacity:0.608" fill="#595e61" d="M 415.5,47.5 C 415.369,48.3764 415.702,49.0431 416.5,49.5C 424.589,48.0609 429.756,51.3943 432,59.5C 432.796,62.0385 432.629,64.3718 431.5,66.5C 431.662,64.4727 431.495,62.4727 431,60.5C 430.667,61.8333 430.333,63.1667 430,64.5C 429.147,62.8753 428.147,62.5419 427,63.5C 426.506,61.8659 426.34,60.1992 426.5,58.5C 427.315,59.4293 428.148,60.4293 429,61.5C 429.359,58.3799 428.192,55.8799 425.5,54C 423.481,53.5503 421.648,52.717 420,51.5C 419.283,52.0442 418.783,52.7109 418.5,53.5C 417.504,53.4142 416.671,53.7476 416,54.5C 413.833,53 414,51.8333 416.5,51C 414.505,50.0764 414.172,48.9097 415.5,47.5 Z"/></g>
<g><path style="opacity:1" fill="#af816c" d="M 398.5,106.5 C 396.365,108.369 393.698,109.036 390.5,108.5C 390.5,109.833 390.5,111.167 390.5,112.5C 388.833,112.5 387.167,112.5 385.5,112.5C 385.215,110.712 385.548,109.045 386.5,107.5C 387.962,108.471 389.295,108.138 390.5,106.5C 389.472,104.639 387.972,103.305 386,102.5C 385.175,100.299 385.675,98.4659 387.5,97C 386.751,95.2663 386.251,93.433 386,91.5C 375.745,94.6196 374.911,92.953 383.5,86.5C 382.833,86.1667 382.167,85.8333 381.5,85.5C 379.675,86.6511 377.675,87.3178 375.5,87.5C 375.306,90.3297 374.639,92.9963 373.5,95.5C 371.516,95.6168 369.85,94.9501 368.5,93.5C 367.289,92.7261 367.289,91.8928 368.5,91C 366.527,90.5045 364.527,90.3379 362.5,90.5C 365.852,89.1152 369.185,89.4485 372.5,91.5C 373.711,90.7261 373.711,89.8928 372.5,89C 368.961,87.4961 365.295,87.1628 361.5,88C 360.944,88.3826 360.611,88.8826 360.5,89.5C 359.022,89.762 357.689,89.4287 356.5,88.5C 358.229,87.4032 359.896,86.2365 361.5,85C 365.229,85.0769 368.896,84.9102 372.5,84.5C 372.291,83.914 371.957,83.414 371.5,83C 368.211,82.1184 364.877,81.4517 361.5,81C 360.667,79.5 359.5,78.3333 358,77.5C 357.517,76.552 357.351,75.552 357.5,74.5C 356.127,74.3433 354.793,74.51 353.5,75C 352.012,76.7172 350.179,77.8839 348,78.5C 343.19,77.3256 338.357,77.4922 333.5,79C 334.524,80.3671 334.024,81.2005 332,81.5C 330.535,80.6705 329.035,80.5038 327.5,81C 330.691,82.0871 334.025,82.9204 337.5,83.5C 339.064,85.5751 340.064,87.9084 340.5,90.5C 339.167,90.8333 337.833,91.1667 336.5,91.5C 335.614,90.675 335.281,89.675 335.5,88.5C 332.167,88.5 328.833,88.5 325.5,88.5C 325.45,90.5901 326.45,91.9234 328.5,92.5C 330.432,91.4798 332.432,91.3131 334.5,92C 331.296,93.0547 328.296,94.5547 325.5,96.5C 325.833,96.8333 326.167,97.1667 326.5,97.5C 329.991,95.9058 333.658,95.2391 337.5,95.5C 337.337,97.8568 337.503,100.19 338,102.5C 338.377,101.058 339.21,100.058 340.5,99.5C 338.207,103.984 337.541,108.651 338.5,113.5C 345.618,114.802 345.952,114.302 339.5,112C 338.978,111.439 338.645,110.772 338.5,110C 340.216,104.739 342.549,99.9055 345.5,95.5C 344.538,101.045 343.205,106.378 341.5,111.5C 342.833,111.5 344.167,111.5 345.5,111.5C 345.386,113.718 344.72,115.718 343.5,117.5C 338.687,117.22 334.02,117.886 329.5,119.5C 327.13,121.688 326.463,124.188 327.5,127C 328.793,127.49 330.127,127.657 331.5,127.5C 327.516,129.002 324.516,131.669 322.5,135.5C 321.833,135.5 321.5,135.833 321.5,136.5C 320.123,133.647 318.956,130.647 318,127.5C 317.333,119.833 317.333,112.167 318,104.5C 319.911,94.8809 321.578,85.2143 323,75.5C 323.601,72.3634 324.601,69.3634 326,66.5C 327.126,65.0564 328.626,64.3898 330.5,64.5C 336.071,66.1906 341.738,66.6906 347.5,66C 351.174,62.6584 354.508,58.9917 357.5,55C 359.345,53.872 361.345,53.372 363.5,53.5C 364.57,66.5759 371.57,72.9092 384.5,72.5C 384.687,74.5643 385.187,76.5643 386,78.5C 387.733,80.7231 389.233,83.0565 390.5,85.5C 388.33,90.8755 387.997,96.3755 389.5,102C 391.183,106.578 394.183,108.078 398.5,106.5 Z"/></g>
<g><path style="opacity:1" fill="#5e473f" d="M 328.5,84.5 C 331.187,84.3359 333.854,84.5026 336.5,85C 338.405,85.8261 338.739,86.9928 337.5,88.5C 333.889,87.7382 330.222,87.2382 326.5,87C 327.381,86.2917 328.047,85.4584 328.5,84.5 Z"/></g>
<g><path style="opacity:1" fill="#353235" d="M 363.5,75.5 C 366.518,75.3354 369.518,75.502 372.5,76C 373.748,77.9586 375.415,79.4586 377.5,80.5C 378.386,81.325 378.719,82.325 378.5,83.5C 373.649,81.5846 368.649,79.9179 363.5,78.5C 363.5,77.5 363.5,76.5 363.5,75.5 Z"/></g>
<g><path style="opacity:1" fill="#393231" d="M 329.5,72.5 C 332.187,72.3359 334.854,72.5026 337.5,73C 337.957,73.414 338.291,73.914 338.5,74.5C 334.556,75.9572 330.556,77.2906 326.5,78.5C 325.833,78.1667 325.167,77.8333 324.5,77.5C 325.882,75.4514 327.548,73.7847 329.5,72.5 Z"/></g>
<g><path style="opacity:1" fill="#b5826b" d="M 360.5,89.5 C 360.842,90.3382 361.508,90.6716 362.5,90.5C 364.527,90.3379 366.527,90.5045 368.5,91C 367.289,91.8928 367.289,92.7261 368.5,93.5C 369.85,94.9501 371.516,95.6168 373.5,95.5C 374.639,92.9963 375.306,90.3297 375.5,87.5C 377.675,87.3178 379.675,86.6511 381.5,85.5C 382.167,85.8333 382.833,86.1667 383.5,86.5C 374.911,92.953 375.745,94.6196 386,91.5C 386.251,93.433 386.751,95.2663 387.5,97C 385.675,98.4659 385.175,100.299 386,102.5C 387.972,103.305 389.472,104.639 390.5,106.5C 389.295,108.138 387.962,108.471 386.5,107.5C 385.548,109.045 385.215,110.712 385.5,112.5C 387.167,112.5 388.833,112.5 390.5,112.5C 390.5,111.167 390.5,109.833 390.5,108.5C 393.698,109.036 396.365,108.369 398.5,106.5C 398.577,105.25 399.244,104.417 400.5,104C 403.554,103.179 406.554,103.345 409.5,104.5C 410,105.5 410.5,106.5 411,107.5C 413.215,120.8 407.715,127.467 394.5,127.5C 394.053,132.853 393.386,138.186 392.5,143.5C 392.511,145.045 392.844,146.378 393.5,147.5C 394.167,147.5 394.833,147.5 395.5,147.5C 394.069,149.401 393.069,151.568 392.5,154C 394.254,158.87 395.087,164.037 395,169.5C 403.968,172.117 412.801,175.117 421.5,178.5C 421.083,179.124 420.416,179.457 419.5,179.5C 412.866,177.787 406.366,175.787 400,173.5C 398.121,175.013 395.954,175.679 393.5,175.5C 393.5,169.5 393.5,163.5 393.5,157.5C 390.11,158.023 386.777,158.857 383.5,160C 376.807,163.379 370.14,166.713 363.5,170C 363,170.5 362.5,171 362,171.5C 361.453,178.179 360.787,184.845 360,191.5C 358.604,193.527 356.938,193.86 355,192.5C 354.667,185.5 354.333,178.5 354,171.5C 351.999,168.669 349.833,166.003 347.5,163.5C 356.865,163.485 364.865,160.152 371.5,153.5C 371.167,153.167 370.833,152.833 370.5,152.5C 361.23,156.923 351.73,157.59 342,154.5C 341.601,154.728 341.435,155.062 341.5,155.5C 338.982,154.736 336.649,153.736 334.5,152.5C 333.699,150.958 333.366,149.292 333.5,147.5C 338.032,147.403 342.365,146.403 346.5,144.5C 348.249,142.107 349.915,139.774 351.5,137.5C 351.296,135.315 350.63,133.315 349.5,131.5C 351.583,132.029 353.417,133.029 355,134.5C 355.494,132.866 355.66,131.199 355.5,129.5C 357.415,129.784 359.081,129.451 360.5,128.5C 361.837,125.683 361.17,123.183 358.5,121C 353.937,118.134 348.937,116.967 343.5,117.5C 344.72,115.718 345.386,113.718 345.5,111.5C 344.167,111.5 342.833,111.5 341.5,111.5C 343.205,106.378 344.538,101.045 345.5,95.5C 347.254,92.3483 348.087,89.015 348,85.5C 345.584,90.2816 343.084,94.9483 340.5,99.5C 339.21,100.058 338.377,101.058 338,102.5C 337.503,100.19 337.337,97.8568 337.5,95.5C 333.658,95.2391 329.991,95.9058 326.5,97.5C 326.167,97.1667 325.833,96.8333 325.5,96.5C 328.296,94.5547 331.296,93.0547 334.5,92C 332.432,91.3131 330.432,91.4798 328.5,92.5C 326.45,91.9234 325.45,90.5901 325.5,88.5C 328.833,88.5 332.167,88.5 335.5,88.5C 335.281,89.675 335.614,90.675 336.5,91.5C 337.833,91.1667 339.167,90.8333 340.5,90.5C 340.064,87.9084 339.064,85.5751 337.5,83.5C 334.025,82.9204 330.691,82.0871 327.5,81C 329.035,80.5038 330.535,80.6705 332,81.5C 334.024,81.2005 334.524,80.3671 333.5,79C 338.357,77.4922 343.19,77.3256 348,78.5C 350.179,77.8839 352.012,76.7172 353.5,75C 354.793,74.51 356.127,74.3433 357.5,74.5C 357.351,75.552 357.517,76.552 358,77.5C 359.5,78.3333 360.667,79.5 361.5,81C 364.877,81.4517 368.211,82.1184 371.5,83C 371.957,83.414 372.291,83.914 372.5,84.5C 368.896,84.9102 365.229,85.0769 361.5,85C 359.896,86.2365 358.229,87.4032 356.5,88.5C 357.689,89.4287 359.022,89.762 360.5,89.5 Z"/></g>
<g><path style="opacity:1" fill="#4c3e33" d="M 362.5,90.5 C 361.508,90.6716 360.842,90.3382 360.5,89.5C 360.611,88.8826 360.944,88.3826 361.5,88C 365.295,87.1628 368.961,87.4961 372.5,89C 373.711,89.8928 373.711,90.7261 372.5,91.5C 369.185,89.4485 365.852,89.1152 362.5,90.5 Z"/></g>
<g><path style="opacity:1" fill="#6a4c40" d="M 345.5,95.5 C 342.549,99.9055 340.216,104.739 338.5,110C 338.645,110.772 338.978,111.439 339.5,112C 345.952,114.302 345.618,114.802 338.5,113.5C 337.541,108.651 338.207,103.984 340.5,99.5C 343.084,94.9483 345.584,90.2816 348,85.5C 348.087,89.015 347.254,92.3483 345.5,95.5 Z"/></g>
<g><path style="opacity:1" fill="#313132" d="M 331.5,97.5 C 332.822,97.33 333.989,97.6634 335,98.5C 335.495,100.473 335.662,102.473 335.5,104.5C 329.37,104.804 328.037,102.471 331.5,97.5 Z"/></g>
<g><path style="opacity:1" fill="#3c3731" d="M 362.5,99.5 C 367.328,99.3852 368.661,101.552 366.5,106C 361.57,106.427 360.237,104.26 362.5,99.5 Z"/></g>
<g><path style="opacity:1" fill="#2a2f34" d="M 343.5,117.5 C 348.937,116.967 353.937,118.134 358.5,121C 361.17,123.183 361.837,125.683 360.5,128.5C 355.81,128.507 351.477,127.507 347.5,125.5C 344.934,125.656 342.434,125.322 340,124.5C 337.214,125.868 334.38,126.868 331.5,127.5C 330.127,127.657 328.793,127.49 327.5,127C 326.463,124.188 327.13,121.688 329.5,119.5C 334.02,117.886 338.687,117.22 343.5,117.5 Z"/></g>
<g><path style="opacity:0.496" fill="#4a5157" d="M 426.5,121.5 C 424.97,123.346 422.97,124.346 420.5,124.5C 420.607,129.642 418.273,132.975 413.5,134.5C 414.598,133.603 414.598,132.77 413.5,132C 414.793,131.51 416.127,131.343 417.5,131.5C 415.594,128.052 416.261,125.219 419.5,123C 418.833,122.667 418.167,122.333 417.5,122C 418.766,121.691 419.933,121.191 421,120.5C 421.626,122.991 422.459,122.991 423.5,120.5C 424.417,121.127 425.417,121.461 426.5,121.5 Z"/></g>
<g><path style="opacity:1" fill="#6f5049" d="M 347.5,125.5 C 351.477,127.507 355.81,128.507 360.5,128.5C 359.081,129.451 357.415,129.784 355.5,129.5C 355.66,131.199 355.494,132.866 355,134.5C 353.417,133.029 351.583,132.029 349.5,131.5C 346.416,129.45 343.083,127.95 339.5,127C 342.365,126.817 345.031,126.317 347.5,125.5 Z"/></g>
<g><path style="opacity:1" fill="#f1e7d5" d="M 347.5,125.5 C 345.031,126.317 342.365,126.817 339.5,127C 343.083,127.95 346.416,129.45 349.5,131.5C 350.63,133.315 351.296,135.315 351.5,137.5C 341.964,139.241 332.298,139.908 322.5,139.5C 322.5,138.167 322.5,136.833 322.5,135.5C 324.516,131.669 327.516,129.002 331.5,127.5C 334.38,126.868 337.214,125.868 340,124.5C 342.434,125.322 344.934,125.656 347.5,125.5 Z"/></g>
<g><path style="opacity:0.971" fill="#acafb2" d="M 302.5,134.5 C 304.5,134.5 306.5,134.5 308.5,134.5C 308.833,135.833 309.167,135.833 309.5,134.5C 313.223,135.858 316.889,137.525 320.5,139.5C 321.386,138.675 321.719,137.675 321.5,136.5C 321.5,135.833 321.833,135.5 322.5,135.5C 322.5,136.833 322.5,138.167 322.5,139.5C 332.298,139.908 341.964,139.241 351.5,137.5C 349.915,139.774 348.249,142.107 346.5,144.5C 342.365,146.403 338.032,147.403 333.5,147.5C 333.366,149.292 333.699,150.958 334.5,152.5C 328.376,149.868 322.376,146.701 316.5,143C 312.843,141.353 309.177,141.187 305.5,142.5C 304.874,139.685 303.54,137.185 301.5,135C 301.728,134.601 302.062,134.435 302.5,134.5 Z"/></g>
<g><path style="opacity:0.998" fill="#4d5259" d="M 412.5,135.5 C 412.896,138.044 412.229,140.211 410.5,142C 406.901,143.014 403.235,143.847 399.5,144.5C 398.717,146.288 397.384,147.288 395.5,147.5C 394.833,147.5 394.167,147.5 393.5,147.5C 393.343,146.127 393.51,144.793 394,143.5C 394.333,144.167 394.667,144.833 395,145.5C 396.892,144.383 397.725,142.716 397.5,140.5C 399.39,140.297 400.89,140.963 402,142.5C 402.333,141.833 402.667,141.167 403,140.5C 403.739,141.574 404.739,142.241 406,142.5C 408.9,140.164 411.066,137.831 412.5,135.5 Z"/></g>
<g><path style="opacity:1" fill="#ba907e" d="M 302.5,134.5 C 302.062,134.435 301.728,134.601 301.5,135C 303.54,137.185 304.874,139.685 305.5,142.5C 305.423,143.75 304.756,144.583 303.5,145C 301.19,145.497 298.857,145.663 296.5,145.5C 296.654,149.025 295.321,151.859 292.5,154C 295.134,158.426 293.967,161.593 289,163.5C 283.914,161.43 281.414,163.096 281.5,168.5C 281.337,166.143 281.503,163.81 282,161.5C 285.404,160.98 288.571,159.813 291.5,158C 289.983,154.307 290.316,150.807 292.5,147.5C 292.291,146.914 291.957,146.414 291.5,146C 288.471,145.461 285.471,144.794 282.5,144C 286.202,143.319 289.869,143.485 293.5,144.5C 296.82,143.703 300.154,143.036 303.5,142.5C 303.649,141.448 303.483,140.448 303,139.5C 297.695,137.768 295.862,134.435 297.5,129.5C 295.167,130.167 292.833,130.833 290.5,131.5C 290.5,130.5 290.5,129.5 290.5,128.5C 286.8,128.921 283.133,129.588 279.5,130.5C 273.739,134.869 267.906,139.202 262,143.5C 261.915,141.915 261.749,140.582 261.5,139.5C 259.985,141.547 259.151,143.881 259,146.5C 258.184,147.823 257.017,148.489 255.5,148.5C 256.485,144.191 258.319,140.191 261,136.5C 264.914,133.246 269.08,130.412 273.5,128C 280.777,126.533 288.111,126.199 295.5,127C 300.451,127.117 302.785,129.617 302.5,134.5 Z"/></g>
<g><path style="opacity:1" fill="#b8836c" d="M 281.5,168.5 C 281.177,171.962 281.177,175.295 281.5,178.5C 283.264,176.722 285.264,175.389 287.5,174.5C 287.672,175.492 287.338,176.158 286.5,176.5C 285.842,177.398 285.176,178.398 284.5,179.5C 281.341,180.155 278.841,181.822 277,184.5C 274.793,193.557 272.293,202.557 269.5,211.5C 269.667,212.833 269.833,214.167 270,215.5C 275.147,226.47 279.98,237.47 284.5,248.5C 284.5,249.167 284.5,249.833 284.5,250.5C 283.5,251.167 282.5,251.833 281.5,252.5C 281.464,248.021 280.631,243.688 279,239.5C 275.881,231.261 272.214,223.261 268,215.5C 267.155,217.611 266.322,219.611 265.5,221.5C 265.108,219.821 264.608,218.154 264,216.5C 263.517,217.448 263.351,218.448 263.5,219.5C 262.167,219.5 260.833,219.5 259.5,219.5C 259.824,215.445 259.491,211.445 258.5,207.5C 256.774,210.759 254.274,211.425 251,209.5C 249.342,209.675 248.009,210.342 247,211.5C 244.048,208.86 244.882,207.527 249.5,207.5C 249.657,206.127 249.49,204.793 249,203.5C 248.333,202.167 247.667,202.167 247,203.5C 246.333,200.833 245.667,200.833 245,203.5C 244.833,203 244.667,202.5 244.5,202C 245.833,200.667 245.833,199.333 244.5,198C 245.984,193.355 247.651,188.855 249.5,184.5C 249.787,182.879 250.787,181.879 252.5,181.5C 253.298,179.922 253.798,178.256 254,176.5C 254.5,168.507 254.666,160.507 254.5,152.5C 254.232,150.901 254.566,149.568 255.5,148.5C 257.017,148.489 258.184,147.823 259,146.5C 259.151,143.881 259.985,141.547 261.5,139.5C 261.749,140.582 261.915,141.915 262,143.5C 267.906,139.202 273.739,134.869 279.5,130.5C 283.133,129.588 286.8,128.921 290.5,128.5C 290.5,129.5 290.5,130.5 290.5,131.5C 292.833,130.833 295.167,130.167 297.5,129.5C 295.862,134.435 297.695,137.768 303,139.5C 303.483,140.448 303.649,141.448 303.5,142.5C 300.154,143.036 296.82,143.703 293.5,144.5C 289.869,143.485 286.202,143.319 282.5,144C 285.471,144.794 288.471,145.461 291.5,146C 291.957,146.414 292.291,146.914 292.5,147.5C 290.316,150.807 289.983,154.307 291.5,158C 288.571,159.813 285.404,160.98 282,161.5C 281.503,163.81 281.337,166.143 281.5,168.5 Z"/></g>
<g><path style="opacity:1" fill="#9d6958" d="M 347.5,163.5 C 344.399,160.338 340.899,158.338 337,157.5C 336.228,157.645 335.561,157.978 335,158.5C 334.667,160.5 334.333,162.5 334,164.5C 333.768,163.263 333.268,162.263 332.5,161.5C 332.439,154.196 335.106,152.863 340.5,157.5C 341.298,157.043 341.631,156.376 341.5,155.5C 341.435,155.062 341.601,154.728 342,154.5C 351.73,157.59 361.23,156.923 370.5,152.5C 370.833,152.833 371.167,153.167 371.5,153.5C 364.865,160.152 356.865,163.485 347.5,163.5 Z"/></g>
<g><path style="opacity:0.984" fill="#cd817c" d="M 332.5,161.5 C 331.771,166.13 331.437,170.797 331.5,175.5C 330.167,175.5 328.833,175.5 327.5,175.5C 326.532,173.393 326.198,171.059 326.5,168.5C 321.833,168.5 317.167,168.5 312.5,168.5C 312.67,169.822 312.337,170.989 311.5,172C 308.244,172.367 305.077,171.867 302,170.5C 297.037,171.448 292.204,172.782 287.5,174.5C 289.649,172.254 292.316,170.754 295.5,170C 307.486,168.002 319.486,166.169 331.5,164.5C 331.263,163.209 331.596,162.209 332.5,161.5 Z"/></g>
<g><path style="opacity:1" fill="#c8aa9a" d="M 254.5,152.5 C 254.666,160.507 254.5,168.507 254,176.5C 253.798,178.256 253.298,179.922 252.5,181.5C 250.787,181.879 249.787,182.879 249.5,184.5C 248.778,185.551 247.778,186.218 246.5,186.5C 249.181,182.472 251.347,178.139 253,173.5C 253.171,166.321 253.671,159.321 254.5,152.5 Z"/></g>
<g><path style="opacity:1" fill="#bc524e" d="M 347.5,163.5 C 349.833,166.003 351.999,168.669 354,171.5C 354.333,178.5 354.667,185.5 355,192.5C 356.938,193.86 358.604,193.527 360,191.5C 360.787,184.845 361.453,178.179 362,171.5C 362.5,171 363,170.5 363.5,170C 370.14,166.713 376.807,163.379 383.5,160C 386.777,158.857 390.11,158.023 393.5,157.5C 393.5,163.5 393.5,169.5 393.5,175.5C 384.806,181.844 375.806,187.678 366.5,193C 362.902,208.266 360.402,223.766 359,239.5C 354.632,242.422 350.799,241.755 347.5,237.5C 346.5,238 345.5,238.5 344.5,239C 346.497,241.492 347.497,244.325 347.5,247.5C 347.389,248.117 347.056,248.617 346.5,249C 344.5,249.667 342.5,249.667 340.5,249C 338.597,244.608 335.931,240.775 332.5,237.5C 333.743,235.408 335.243,233.408 337,231.5C 339.038,236.284 341.705,236.618 345,232.5C 346.088,230.615 346.921,228.615 347.5,226.5C 347.012,222.258 346.346,218.092 345.5,214C 348.596,208.716 347.263,207.382 341.5,210C 343.756,211.499 343.756,213.166 341.5,215C 345.466,219.01 346.466,223.676 344.5,229C 342.833,229.667 341.167,229.667 339.5,229C 338.046,226.413 336.379,223.913 334.5,221.5C 336.689,219.738 338.356,217.571 339.5,215C 338.039,212.702 336.372,210.535 334.5,208.5C 333.571,207.311 333.238,205.978 333.5,204.5C 330.208,204.12 327.875,205.453 326.5,208.5C 325.059,207.135 323.726,205.635 322.5,204C 325.605,203.015 328.438,201.515 331,199.5C 333.279,200.33 335.112,199.497 336.5,197C 334.564,195.638 333.231,193.805 332.5,191.5C 330.116,196.763 326.783,197.597 322.5,194C 322.167,193 321.833,192 321.5,191C 322.578,188.178 323.911,185.512 325.5,183C 325.387,181.72 324.72,180.887 323.5,180.5C 322.108,181.605 320.941,182.939 320,184.5C 317.855,181.568 318.355,179.068 321.5,177C 317.277,174.756 317.611,173.59 322.5,173.5C 323.311,178.549 325.978,179.715 330.5,177C 329.263,176.768 328.263,176.268 327.5,175.5C 328.833,175.5 330.167,175.5 331.5,175.5C 331.437,170.797 331.771,166.13 332.5,161.5C 333.268,162.263 333.768,163.263 334,164.5C 334.333,162.5 334.667,160.5 335,158.5C 335.561,157.978 336.228,157.645 337,157.5C 340.899,158.338 344.399,160.338 347.5,163.5 Z"/></g>
<g><path style="opacity:1" fill="#fae1dc" d="M 324.5,187.5 C 328.8,187.815 330.467,190.149 329.5,194.5C 327.833,194.5 326.167,194.5 324.5,194.5C 323.562,192.09 323.562,189.756 324.5,187.5 Z"/></g>
<g><path style="opacity:1" fill="#c1514f" d="M 327.5,175.5 C 328.263,176.268 329.263,176.768 330.5,177C 325.978,179.715 323.311,178.549 322.5,173.5C 317.611,173.59 317.277,174.756 321.5,177C 318.355,179.068 317.855,181.568 320,184.5C 320.941,182.939 322.108,181.605 323.5,180.5C 324.72,180.887 325.387,181.72 325.5,183C 323.911,185.512 322.578,188.178 321.5,191C 321.833,192 322.167,193 322.5,194C 326.783,197.597 330.116,196.763 332.5,191.5C 333.231,193.805 334.564,195.638 336.5,197C 335.112,199.497 333.279,200.33 331,199.5C 328.438,201.515 325.605,203.015 322.5,204C 323.726,205.635 325.059,207.135 326.5,208.5C 327.875,205.453 330.208,204.12 333.5,204.5C 333.238,205.978 333.571,207.311 334.5,208.5C 336.372,210.535 338.039,212.702 339.5,215C 338.356,217.571 336.689,219.738 334.5,221.5C 336.379,223.913 338.046,226.413 339.5,229C 341.167,229.667 342.833,229.667 344.5,229C 346.466,223.676 345.466,219.01 341.5,215C 343.756,213.166 343.756,211.499 341.5,210C 347.263,207.382 348.596,208.716 345.5,214C 346.346,218.092 347.012,222.258 347.5,226.5C 346.921,228.615 346.088,230.615 345,232.5C 341.705,236.618 339.038,236.284 337,231.5C 335.243,233.408 333.743,235.408 332.5,237.5C 335.931,240.775 338.597,244.608 340.5,249C 342.5,249.667 344.5,249.667 346.5,249C 347.056,248.617 347.389,248.117 347.5,247.5C 348.158,246.602 348.824,245.602 349.5,244.5C 352.823,245.757 356.156,245.757 359.5,244.5C 360.853,243.476 361.52,242.143 361.5,240.5C 365.547,238.531 367.547,239.864 367.5,244.5C 372.651,244.92 377.484,243.92 382,241.5C 382.725,242.059 383.558,242.392 384.5,242.5C 386.036,241.751 387.369,240.751 388.5,239.5C 389.583,240.365 389.749,241.365 389,242.5C 386.803,244.03 385.97,245.864 386.5,248C 385.833,248.333 385.167,248.667 384.5,249C 389.118,249.735 390.451,252.235 388.5,256.5C 393.48,264.603 391.98,266.936 384,263.5C 383.333,265.167 383.333,266.833 384,268.5C 387.405,269.903 390.238,272.069 392.5,275C 391.944,275.383 391.611,275.883 391.5,276.5C 388.439,276.587 385.773,277.587 383.5,279.5C 379.109,278.723 376.776,276.056 376.5,271.5C 375.07,271.421 373.736,271.754 372.5,272.5C 369.966,269.515 367.299,269.182 364.5,271.5C 362.164,269.882 362.164,268.048 364.5,266C 353.86,264.901 343.194,264.401 332.5,264.5C 332.586,263.504 332.252,262.671 331.5,262C 328.553,261.888 327.22,260.388 327.5,257.5C 325.833,257.5 324.167,257.5 322.5,257.5C 322.833,260.5 321.5,261.833 318.5,261.5C 318.323,259.019 319.323,257.186 321.5,256C 320.5,255.667 319.5,255.333 318.5,255C 321.338,250.847 320.672,247.18 316.5,244C 318.129,240.034 321.129,238.534 325.5,239.5C 325.657,238.127 325.49,236.793 325,235.5C 324.044,236.894 322.711,237.561 321,237.5C 313.22,236.183 309.387,231.516 309.5,223.5C 310.833,223.5 312.167,223.5 313.5,223.5C 313.139,229.842 315.972,231.842 322,229.5C 322.78,227.613 322.613,225.946 321.5,224.5C 320.5,223.5 319.5,222.5 318.5,221.5C 318.38,220.414 317.713,219.747 316.5,219.5C 313.685,220.245 310.851,220.912 308,221.5C 306.635,221.156 305.468,220.489 304.5,219.5C 302.907,221.66 301.24,221.827 299.5,220C 304.394,218.324 309.061,216.158 313.5,213.5C 313.5,212.167 313.5,210.833 313.5,209.5C 310.214,210.207 306.881,210.54 303.5,210.5C 305.264,208.044 306.931,205.377 308.5,202.5C 310.709,201.894 312.876,201.227 315,200.5C 315.955,194.039 313.122,191.206 306.5,192C 305.833,195 305.167,198 304.5,201C 299.167,201.333 293.833,201.667 288.5,202C 287.975,202.692 287.308,203.192 286.5,203.5C 285.436,199.408 284.27,195.408 283,191.5C 280.065,195.878 280.231,200.378 283.5,205C 282.152,207.611 280.318,209.778 278,211.5C 277.654,209.152 276.487,207.319 274.5,206C 275.893,204.829 276.727,203.329 277,201.5C 277.633,195.839 278.133,190.172 278.5,184.5C 279.5,184.5 280.5,184.5 281.5,184.5C 280.756,187.95 282.09,189.616 285.5,189.5C 285.5,187.5 285.5,185.5 285.5,183.5C 284.022,183.762 282.689,183.429 281.5,182.5C 283.045,181.548 284.712,181.215 286.5,181.5C 286.5,179.833 286.5,178.167 286.5,176.5C 287.338,176.158 287.672,175.492 287.5,174.5C 292.204,172.782 297.037,171.448 302,170.5C 305.077,171.867 308.244,172.367 311.5,172C 312.337,170.989 312.67,169.822 312.5,168.5C 317.167,168.5 321.833,168.5 326.5,168.5C 326.198,171.059 326.532,173.393 327.5,175.5 Z"/></g>
<g><path style="opacity:1" fill="#e69d8e" d="M 289.5,181.5 C 293.485,181.44 295.152,183.44 294.5,187.5C 290.092,187.938 288.425,185.938 289.5,181.5 Z"/></g>
<g><path style="opacity:1" fill="#b7846d" d="M 249.5,184.5 C 247.651,188.855 245.984,193.355 244.5,198C 245.833,199.333 245.833,200.667 244.5,202C 244.667,202.5 244.833,203 245,203.5C 245.667,200.833 246.333,200.833 247,203.5C 247.667,202.167 248.333,202.167 249,203.5C 249.49,204.793 249.657,206.127 249.5,207.5C 244.882,207.527 244.048,208.86 247,211.5C 248.009,210.342 249.342,209.675 251,209.5C 254.274,211.425 256.774,210.759 258.5,207.5C 259.491,211.445 259.824,215.445 259.5,219.5C 260.833,219.5 262.167,219.5 263.5,219.5C 263.351,218.448 263.517,217.448 264,216.5C 264.608,218.154 265.108,219.821 265.5,221.5C 264.565,224.113 264.398,226.779 265,229.5C 266.71,233.026 268.71,236.359 271,239.5C 272.41,244.559 273.91,249.559 275.5,254.5C 276.5,254.5 277.5,254.5 278.5,254.5C 278.189,255.478 277.522,256.145 276.5,256.5C 275.549,255.674 274.549,255.508 273.5,256C 265.13,264.038 256.464,271.705 247.5,279C 234.348,284.948 223.514,282.115 215,270.5C 211.766,260.857 211.766,251.19 215,241.5C 225.541,223.072 236.041,204.739 246.5,186.5C 247.778,186.218 248.778,185.551 249.5,184.5 Z"/></g>
<g><path style="opacity:1" fill="#c05450" d="M 421.5,178.5 C 431.47,180.657 440.636,184.657 449,190.5C 455.68,201.366 460.513,213.033 463.5,225.5C 463.999,230.492 464.499,235.492 465,240.5C 465.333,240.167 465.667,239.833 466,239.5C 467.079,242.063 467.579,244.729 467.5,247.5C 466.167,247.5 464.833,247.5 463.5,247.5C 463.5,245.833 463.5,244.167 463.5,242.5C 459.2,242.815 457.533,245.149 458.5,249.5C 460.591,249.318 462.591,249.652 464.5,250.5C 466.901,247.587 468.234,247.921 468.5,251.5C 460.798,254.014 453.131,256.848 445.5,260C 437.104,261.978 428.771,264.145 420.5,266.5C 424.161,267.452 427.828,267.285 431.5,266C 444.524,262.313 457.19,257.813 469.5,252.5C 470.296,256.639 468.963,259.805 465.5,262C 462.274,262.885 459.274,264.219 456.5,266C 446.962,269.108 437.296,271.608 427.5,273.5C 426.328,273.081 425.328,272.415 424.5,271.5C 422.985,273.547 422.151,275.881 422,278.5C 421.667,284.833 421.333,291.167 421,297.5C 420.626,298.416 420.126,299.25 419.5,300C 416.301,300.401 413.301,301.234 410.5,302.5C 409.167,302.5 407.833,302.5 406.5,302.5C 406.657,301.127 406.49,299.793 406,298.5C 402.362,297.245 399.195,295.245 396.5,292.5C 397.485,290.902 397.651,289.235 397,287.5C 395.053,286.89 393.219,286.057 391.5,285C 392.833,284.333 392.833,283.667 391.5,283C 392.448,282.517 393.448,282.351 394.5,282.5C 394.5,280.5 394.5,278.5 394.5,276.5C 393.5,276.5 392.5,276.5 391.5,276.5C 391.611,275.883 391.944,275.383 392.5,275C 390.238,272.069 387.405,269.903 384,268.5C 383.333,266.833 383.333,265.167 384,263.5C 391.98,266.936 393.48,264.603 388.5,256.5C 390.451,252.235 389.118,249.735 384.5,249C 385.167,248.667 385.833,248.333 386.5,248C 385.97,245.864 386.803,244.03 389,242.5C 389.749,241.365 389.583,240.365 388.5,239.5C 387.369,240.751 386.036,241.751 384.5,242.5C 383.558,242.392 382.725,242.059 382,241.5C 377.484,243.92 372.651,244.92 367.5,244.5C 367.547,239.864 365.547,238.531 361.5,240.5C 361.52,242.143 360.853,243.476 359.5,244.5C 356.156,245.757 352.823,245.757 349.5,244.5C 348.824,245.602 348.158,246.602 347.5,247.5C 347.497,244.325 346.497,241.492 344.5,239C 345.5,238.5 346.5,238 347.5,237.5C 350.799,241.755 354.632,242.422 359,239.5C 360.402,223.766 362.902,208.266 366.5,193C 375.806,187.678 384.806,181.844 393.5,175.5C 395.954,175.679 398.121,175.013 400,173.5C 406.366,175.787 412.866,177.787 419.5,179.5C 420.416,179.457 421.083,179.124 421.5,178.5 Z"/></g>
<g><path style="opacity:1" fill="#e49c8e" d="M 442.5,200.5 C 447.587,200.284 448.587,202.118 445.5,206C 444.207,206.49 442.873,206.657 441.5,206.5C 441.325,204.379 441.659,202.379 442.5,200.5 Z"/></g>
<g><path style="opacity:1" fill="#eba397" d="M 423.5,206.5 C 424.5,206.5 425.5,206.5 426.5,206.5C 426.5,208.833 426.5,211.167 426.5,213.5C 424.833,213.5 423.167,213.5 421.5,213.5C 421.166,210.812 421.832,208.479 423.5,206.5 Z"/></g>
<g><path style="opacity:1" fill="#e89b8e" d="M 373.5,210.5 C 375.167,210.5 376.833,210.5 378.5,210.5C 378.5,212.5 378.5,214.5 378.5,216.5C 373.735,216.687 372.069,214.687 373.5,210.5 Z"/></g>
<g><path style="opacity:1" fill="#bf544f" d="M 286.5,176.5 C 286.5,178.167 286.5,179.833 286.5,181.5C 284.712,181.215 283.045,181.548 281.5,182.5C 282.689,183.429 284.022,183.762 285.5,183.5C 285.5,185.5 285.5,187.5 285.5,189.5C 282.09,189.616 280.756,187.95 281.5,184.5C 280.5,184.5 279.5,184.5 278.5,184.5C 278.133,190.172 277.633,195.839 277,201.5C 276.727,203.329 275.893,204.829 274.5,206C 276.487,207.319 277.654,209.152 278,211.5C 280.318,209.778 282.152,207.611 283.5,205C 280.231,200.378 280.065,195.878 283,191.5C 284.27,195.408 285.436,199.408 286.5,203.5C 287.308,203.192 287.975,202.692 288.5,202C 293.833,201.667 299.167,201.333 304.5,201C 305.167,198 305.833,195 306.5,192C 313.122,191.206 315.955,194.039 315,200.5C 312.876,201.227 310.709,201.894 308.5,202.5C 306.931,205.377 305.264,208.044 303.5,210.5C 306.881,210.54 310.214,210.207 313.5,209.5C 313.5,210.833 313.5,212.167 313.5,213.5C 309.061,216.158 304.394,218.324 299.5,220C 301.24,221.827 302.907,221.66 304.5,219.5C 305.468,220.489 306.635,221.156 308,221.5C 310.851,220.912 313.685,220.245 316.5,219.5C 317.713,219.747 318.38,220.414 318.5,221.5C 316.656,223.279 315.99,225.612 316.5,228.5C 319.95,229.244 321.616,227.91 321.5,224.5C 322.613,225.946 322.78,227.613 322,229.5C 315.972,231.842 313.139,229.842 313.5,223.5C 312.167,223.5 310.833,223.5 309.5,223.5C 309.387,231.516 313.22,236.183 321,237.5C 322.711,237.561 324.044,236.894 325,235.5C 325.49,236.793 325.657,238.127 325.5,239.5C 321.129,238.534 318.129,240.034 316.5,244C 320.672,247.18 321.338,250.847 318.5,255C 319.5,255.333 320.5,255.667 321.5,256C 319.323,257.186 318.323,259.019 318.5,261.5C 321.5,261.833 322.833,260.5 322.5,257.5C 324.167,257.5 325.833,257.5 327.5,257.5C 327.22,260.388 328.553,261.888 331.5,262C 332.252,262.671 332.586,263.504 332.5,264.5C 330.631,266.034 329.298,268.034 328.5,270.5C 327.89,271.391 327.557,272.391 327.5,273.5C 317.899,272.967 310.565,276.634 305.5,284.5C 304.791,285.404 303.791,285.737 302.5,285.5C 302.5,286.5 302.5,287.5 302.5,288.5C 300.824,289.183 300.157,290.517 300.5,292.5C 306.862,292.969 313.195,293.636 319.5,294.5C 312.645,295.522 305.645,295.356 298.5,294C 297.426,293.261 296.759,292.261 296.5,291C 297.707,289.7 298.374,288.2 298.5,286.5C 299.5,286.5 300.5,286.5 301.5,286.5C 301.343,285.127 301.51,283.793 302,282.5C 306.161,280.915 306.328,279.249 302.5,277.5C 300.78,278.955 298.78,279.788 296.5,280C 297.696,280.654 297.696,281.154 296.5,281.5C 295.718,278.924 294.218,276.924 292,275.5C 291.667,275.833 291.333,276.167 291,276.5C 289.991,274.975 289.491,273.308 289.5,271.5C 288.5,271.5 287.5,271.5 286.5,271.5C 286.5,266.167 286.5,260.833 286.5,255.5C 294.52,256.678 296.854,253.844 293.5,247C 291.288,246.211 289.288,246.378 287.5,247.5C 286.609,248.11 285.609,248.443 284.5,248.5C 279.98,237.47 275.147,226.47 270,215.5C 269.833,214.167 269.667,212.833 269.5,211.5C 272.293,202.557 274.793,193.557 277,184.5C 278.841,181.822 281.341,180.155 284.5,179.5C 285.176,178.398 285.842,177.398 286.5,176.5 Z"/></g>
<g><path style="opacity:1" fill="#e99b8f" d="M 282.5,209.5 C 288.076,210.555 288.743,212.889 284.5,216.5C 281.497,214.822 280.831,212.489 282.5,209.5 Z"/></g>
<g><path style="opacity:1" fill="#eb9f91" d="M 318.5,221.5 C 319.5,222.5 320.5,223.5 321.5,224.5C 321.616,227.91 319.95,229.244 316.5,228.5C 315.99,225.612 316.656,223.279 318.5,221.5 Z"/></g>
<g><path style="opacity:1" fill="#be5750" d="M 281.5,252.5 C 280.5,253.167 279.5,253.833 278.5,254.5C 277.5,254.5 276.5,254.5 275.5,254.5C 273.91,249.559 272.41,244.559 271,239.5C 268.71,236.359 266.71,233.026 265,229.5C 264.398,226.779 264.565,224.113 265.5,221.5C 266.322,219.611 267.155,217.611 268,215.5C 272.214,223.261 275.881,231.261 279,239.5C 280.631,243.688 281.464,248.021 281.5,252.5 Z"/></g>
<g><path style="opacity:1" fill="#e7978a" d="M 424.5,233.5 C 426.722,233.559 427.722,234.725 427.5,237C 427.719,238.971 426.885,240.138 425,240.5C 423.5,240.333 422.667,239.5 422.5,238C 423.044,236.415 423.711,234.915 424.5,233.5 Z"/></g>
<g><path style="opacity:1" fill="#e9a495" d="M 339.5,241.5 C 345.158,240.679 346.825,242.846 344.5,248C 340.194,248.172 338.527,246.006 339.5,241.5 Z"/></g>
<g><path style="opacity:1" fill="#e59c8d" d="M 313.5,246.5 C 316.808,247.615 317.808,249.782 316.5,253C 315.207,253.49 313.873,253.657 312.5,253.5C 312.298,251.05 312.631,248.717 313.5,246.5 Z"/></g>
<g><path style="opacity:1" fill="#e69e8f" d="M 390.5,251.5 C 392.857,251.337 395.19,251.503 397.5,252C 398.576,254.967 397.409,256.8 394,257.5C 391.536,256.237 390.37,254.237 390.5,251.5 Z"/></g>
<g><path style="opacity:1" fill="#d97d69" d="M 463.5,225.5 C 466.066,234.343 468.4,243.343 470.5,252.5C 470.167,252.5 469.833,252.5 469.5,252.5C 457.19,257.813 444.524,262.313 431.5,266C 427.828,267.285 424.161,267.452 420.5,266.5C 428.771,264.145 437.104,261.978 445.5,260C 453.131,256.848 460.798,254.014 468.5,251.5C 468.234,247.921 466.901,247.587 464.5,250.5C 462.591,249.652 460.591,249.318 458.5,249.5C 457.533,245.149 459.2,242.815 463.5,242.5C 463.5,244.167 463.5,245.833 463.5,247.5C 464.833,247.5 466.167,247.5 467.5,247.5C 467.579,244.729 467.079,242.063 466,239.5C 465.667,239.833 465.333,240.167 465,240.5C 464.499,235.492 463.999,230.492 463.5,225.5 Z"/></g>
<g><path style="opacity:1" fill="#f1e5d3" d="M 363.5,274.5 C 363.5,275.5 363.5,276.5 363.5,277.5C 362.833,277.833 362.167,278.167 361.5,278.5C 356.751,278.97 352.084,279.97 347.5,281.5C 345.218,280.777 342.884,280.443 340.5,280.5C 339.5,280.5 338.5,280.5 337.5,280.5C 334.37,278.977 331.037,278.311 327.5,278.5C 327.5,276.833 327.5,275.167 327.5,273.5C 327.557,272.391 327.89,271.391 328.5,270.5C 336.714,266.775 345.381,265.608 354.5,267C 357.071,267.901 359.404,269.234 361.5,271C 362.823,271.816 363.489,272.983 363.5,274.5 Z"/></g>
<g><path style="opacity:1" fill="#e79c8e" d="M 412.5,265.5 C 416.473,266.075 417.473,268.242 415.5,272C 413.888,272.72 412.388,272.554 411,271.5C 410.607,269.284 411.107,267.284 412.5,265.5 Z"/></g>
<g><path style="opacity:1" fill="#b9836c" d="M 469.5,252.5 C 469.833,252.5 470.167,252.5 470.5,252.5C 474.006,257.348 473.006,260.681 467.5,262.5C 466.861,263.097 466.528,263.93 466.5,265C 467.193,269.81 467.693,274.643 468,279.5C 468.932,288.334 470.432,297.167 472.5,306C 471.714,309.458 471.38,312.958 471.5,316.5C 470.748,320.84 468.414,324.007 464.5,326C 452.776,331.574 440.443,334.908 427.5,336C 425.277,336.566 423.277,337.4 421.5,338.5C 419.59,337.906 417.59,337.573 415.5,337.5C 394.374,339.477 373.207,340.81 352,341.5C 343.423,341.617 334.923,340.95 326.5,339.5C 324.844,338.854 323.177,338.187 321.5,337.5C 319.677,338.845 317.677,339.345 315.5,339C 314.666,333.385 311.833,328.552 307,324.5C 305.705,326.122 304.205,327.455 302.5,328.5C 299.918,328.253 299.085,326.92 300,324.5C 302.076,320.442 305.243,319.442 309.5,321.5C 310.713,321.253 311.38,320.586 311.5,319.5C 314.168,319.666 316.502,320.666 318.5,322.5C 319.386,323.325 319.719,324.325 319.5,325.5C 320.833,325.5 322.167,325.5 323.5,325.5C 323.5,324.5 323.5,323.5 323.5,322.5C 325.199,322.34 326.866,322.506 328.5,323C 332.659,326.247 336.992,329.247 341.5,332C 352.523,331.328 362.856,328.328 372.5,323C 367.526,321.9 365.859,319.067 367.5,314.5C 373.791,314.173 380.124,314.007 386.5,314C 390.653,311.921 394.986,310.421 399.5,309.5C 399.318,307.325 398.651,305.325 397.5,303.5C 399.994,297.06 402.661,296.893 405.5,303C 407.387,303.78 409.054,303.613 410.5,302.5C 413.301,301.234 416.301,300.401 419.5,300C 420.126,299.25 420.626,298.416 421,297.5C 421.333,291.167 421.667,284.833 422,278.5C 422.151,275.881 422.985,273.547 424.5,271.5C 425.328,272.415 426.328,273.081 427.5,273.5C 437.296,271.608 446.962,269.108 456.5,266C 459.274,264.219 462.274,262.885 465.5,262C 468.963,259.805 470.296,256.639 469.5,252.5 Z M 423.5,277.5 C 424.879,282.524 426.212,287.691 427.5,293C 426.623,294.867 425.123,296.034 423,296.5C 422.556,290.155 422.723,283.822 423.5,277.5 Z"/></g>
<g><path style="opacity:1" fill="#e39589" d="M 298.5,268.5 C 303.182,268.875 304.516,271.208 302.5,275.5C 301.311,276.429 299.978,276.762 298.5,276.5C 298.5,273.833 298.5,271.167 298.5,268.5 Z"/></g>
<g><path style="opacity:1" fill="#4d7755" d="M 371.5,275.5 C 375.241,274.599 377.241,275.932 377.5,279.5C 375.5,279.5 373.5,279.5 371.5,279.5C 371.5,278.167 371.5,276.833 371.5,275.5 Z"/></g>
<g><path style="opacity:1" fill="#496e43" d="M 305.5,284.5 C 307.344,285.204 307.844,286.537 307,288.5C 305.384,289.801 303.884,289.801 302.5,288.5C 302.5,287.5 302.5,286.5 302.5,285.5C 303.791,285.737 304.791,285.404 305.5,284.5 Z"/></g>
<g><path style="opacity:0.975" fill="#c19f92" d="M 467.5,262.5 C 470.156,276.768 472.489,291.102 474.5,305.5C 474.117,309.459 473.117,313.126 471.5,316.5C 471.38,312.958 471.714,309.458 472.5,306C 470.432,297.167 468.932,288.334 468,279.5C 467.693,274.643 467.193,269.81 466.5,265C 466.528,263.93 466.861,263.097 467.5,262.5 Z"/></g>
<g><path style="opacity:1" fill="#5e7443" d="M 385.5,285.5 C 387.167,285.5 388.833,285.5 390.5,285.5C 390.88,287.698 390.213,289.365 388.5,290.5C 387.5,290.5 386.5,290.5 385.5,290.5C 385.5,288.833 385.5,287.167 385.5,285.5 Z"/></g>
<g><path style="opacity:1" fill="#daa55a" d="M 327.5,273.5 C 327.5,275.167 327.5,276.833 327.5,278.5C 331.037,278.311 334.37,278.977 337.5,280.5C 336.314,281.961 336.314,283.295 337.5,284.5C 338.641,286.243 340.308,287.243 342.5,287.5C 344.59,285.894 346.924,285.394 349.5,286C 345.488,287.803 345.822,288.803 350.5,289C 347.873,293.487 344.206,294.654 339.5,292.5C 337.611,292.436 335.944,292.936 334.5,294C 350.188,294.124 365.854,293.457 381.5,292C 384.017,289.806 383.684,287.806 380.5,286C 376.108,284.697 371.775,283.53 367.5,282.5C 367.817,279.454 366.484,277.787 363.5,277.5C 363.5,276.5 363.5,275.5 363.5,274.5C 366.167,274.833 368.833,275.167 371.5,275.5C 371.5,276.833 371.5,278.167 371.5,279.5C 373.5,279.5 375.5,279.5 377.5,279.5C 380.473,281.147 383.14,283.147 385.5,285.5C 385.5,287.167 385.5,288.833 385.5,290.5C 386.5,290.5 387.5,290.5 388.5,290.5C 388.119,291.931 387.119,292.764 385.5,293C 364.885,295.048 344.218,295.882 323.5,295.5C 323.5,294.167 323.5,292.833 323.5,291.5C 321.027,291.088 319.694,292.088 319.5,294.5C 313.195,293.636 306.862,292.969 300.5,292.5C 300.157,290.517 300.824,289.183 302.5,288.5C 303.884,289.801 305.384,289.801 307,288.5C 307.844,286.537 307.344,285.204 305.5,284.5C 310.565,276.634 317.899,272.967 327.5,273.5 Z"/></g>
<g><path style="opacity:1" fill="#617c44" d="M 337.5,280.5 C 338.5,280.5 339.5,280.5 340.5,280.5C 343.169,283.677 342.169,285.01 337.5,284.5C 336.314,283.295 336.314,281.961 337.5,280.5 Z"/></g>
<g><path style="opacity:1" fill="#64824e" d="M 363.5,277.5 C 366.484,277.787 367.817,279.454 367.5,282.5C 364.024,283.926 360.357,284.926 356.5,285.5C 356.5,284.167 356.5,282.833 356.5,281.5C 358.167,281.5 359.833,281.5 361.5,281.5C 361.5,280.5 361.5,279.5 361.5,278.5C 362.167,278.167 362.833,277.833 363.5,277.5 Z"/></g>
<g><path style="opacity:1" fill="#cc5a3c" d="M 325.5,279.5 C 330.906,278.735 332.906,281.069 331.5,286.5C 325.76,287.105 323.76,284.772 325.5,279.5 Z"/></g>
<g><path style="opacity:1" fill="#597b3e" d="M 313.5,277.5 C 319.902,278.788 319.569,280.122 312.5,281.5C 312.433,280.041 312.766,278.708 313.5,277.5 Z"/></g>
<g><path style="opacity:1" fill="#dfb263" d="M 361.5,278.5 C 361.5,279.5 361.5,280.5 361.5,281.5C 359.833,281.5 358.167,281.5 356.5,281.5C 356.5,282.833 356.5,284.167 356.5,285.5C 360.357,284.926 364.024,283.926 367.5,282.5C 371.775,283.53 376.108,284.697 380.5,286C 383.684,287.806 384.017,289.806 381.5,292C 365.854,293.457 350.188,294.124 334.5,294C 335.944,292.936 337.611,292.436 339.5,292.5C 344.206,294.654 347.873,293.487 350.5,289C 345.822,288.803 345.488,287.803 349.5,286C 346.924,285.394 344.59,285.894 342.5,287.5C 340.308,287.243 338.641,286.243 337.5,284.5C 342.169,285.01 343.169,283.677 340.5,280.5C 342.884,280.443 345.218,280.777 347.5,281.5C 352.084,279.97 356.751,278.97 361.5,278.5 Z"/></g>
<g><path style="opacity:1" fill="#be504e" d="M 286.5,271.5 C 287.5,271.5 288.5,271.5 289.5,271.5C 289.491,273.308 289.991,274.975 291,276.5C 291.333,276.167 291.667,275.833 292,275.5C 294.218,276.924 295.718,278.924 296.5,281.5C 297.696,281.154 297.696,280.654 296.5,280C 298.78,279.788 300.78,278.955 302.5,277.5C 306.328,279.249 306.161,280.915 302,282.5C 301.51,283.793 301.343,285.127 301.5,286.5C 300.5,286.5 299.5,286.5 298.5,286.5C 298.374,288.2 297.707,289.7 296.5,291C 296.759,292.261 297.426,293.261 298.5,294C 305.645,295.356 312.645,295.522 319.5,294.5C 319.694,292.088 321.027,291.088 323.5,291.5C 323.5,292.833 323.5,294.167 323.5,295.5C 338.006,296.379 352.672,297.212 367.5,298C 368.108,298.87 368.941,299.37 370,299.5C 373.662,297.978 377.495,297.145 381.5,297C 385.584,295.198 389.417,293.031 393,290.5C 393.833,290.833 394.667,291.167 395.5,291.5C 393.947,292.439 392.613,293.606 391.5,295C 392.258,297.576 393.591,299.743 395.5,301.5C 392.849,303.863 392.849,306.196 395.5,308.5C 393.234,309.314 390.9,309.814 388.5,310C 386.127,312.048 383.294,312.881 380,312.5C 375.013,311.147 369.846,310.48 364.5,310.5C 363.429,314.203 363.263,317.869 364,321.5C 360.888,324.806 357.055,326.639 352.5,327C 346.775,327.717 341.109,327.384 335.5,326C 334.313,324.981 333.313,323.814 332.5,322.5C 334.624,321.851 336.624,321.017 338.5,320C 331.741,320.333 325.075,320.5 318.5,320.5C 316.271,318.447 313.938,318.114 311.5,319.5C 311.38,320.586 310.713,321.253 309.5,321.5C 305.243,319.442 302.076,320.442 300,324.5C 299.085,326.92 299.918,328.253 302.5,328.5C 304.205,327.455 305.705,326.122 307,324.5C 311.833,328.552 314.666,333.385 315.5,339C 317.677,339.345 319.677,338.845 321.5,337.5C 323.177,338.187 324.844,338.854 326.5,339.5C 326.611,340.117 326.944,340.617 327.5,341C 330.167,341.333 332.833,341.667 335.5,342C 319.17,342.5 302.837,342.667 286.5,342.5C 287.811,318.833 287.811,295.166 286.5,271.5 Z"/></g>
<g><path style="opacity:1" fill="#eaa091" d="M 290.5,300.5 C 291.5,300.5 292.5,300.5 293.5,300.5C 294.167,302.833 294.833,305.167 295.5,307.5C 293.856,307.714 292.356,307.38 291,306.5C 290.505,304.527 290.338,302.527 290.5,300.5 Z"/></g>
<g><path style="opacity:1" fill="#b85650" d="M 332.5,264.5 C 343.194,264.401 353.86,264.901 364.5,266C 362.164,268.048 362.164,269.882 364.5,271.5C 367.299,269.182 369.966,269.515 372.5,272.5C 373.736,271.754 375.07,271.421 376.5,271.5C 376.776,276.056 379.109,278.723 383.5,279.5C 385.773,277.587 388.439,276.587 391.5,276.5C 392.5,276.5 393.5,276.5 394.5,276.5C 394.5,278.5 394.5,280.5 394.5,282.5C 393.448,282.351 392.448,282.517 391.5,283C 392.833,283.667 392.833,284.333 391.5,285C 393.219,286.057 395.053,286.89 397,287.5C 397.651,289.235 397.485,290.902 396.5,292.5C 399.195,295.245 402.362,297.245 406,298.5C 406.49,299.793 406.657,301.127 406.5,302.5C 407.833,302.5 409.167,302.5 410.5,302.5C 409.054,303.613 407.387,303.78 405.5,303C 402.661,296.893 399.994,297.06 397.5,303.5C 398.651,305.325 399.318,307.325 399.5,309.5C 394.986,310.421 390.653,311.921 386.5,314C 380.124,314.007 373.791,314.173 367.5,314.5C 365.859,319.067 367.526,321.9 372.5,323C 362.856,328.328 352.523,331.328 341.5,332C 336.992,329.247 332.659,326.247 328.5,323C 326.866,322.506 325.199,322.34 323.5,322.5C 323.5,323.5 323.5,324.5 323.5,325.5C 322.167,325.5 320.833,325.5 319.5,325.5C 319.719,324.325 319.386,323.325 318.5,322.5C 316.502,320.666 314.168,319.666 311.5,319.5C 313.938,318.114 316.271,318.447 318.5,320.5C 325.075,320.5 331.741,320.333 338.5,320C 336.624,321.017 334.624,321.851 332.5,322.5C 333.313,323.814 334.313,324.981 335.5,326C 341.109,327.384 346.775,327.717 352.5,327C 357.055,326.639 360.888,324.806 364,321.5C 363.263,317.869 363.429,314.203 364.5,310.5C 369.846,310.48 375.013,311.147 380,312.5C 383.294,312.881 386.127,312.048 388.5,310C 390.9,309.814 393.234,309.314 395.5,308.5C 392.849,306.196 392.849,303.863 395.5,301.5C 393.591,299.743 392.258,297.576 391.5,295C 392.613,293.606 393.947,292.439 395.5,291.5C 394.667,291.167 393.833,290.833 393,290.5C 389.417,293.031 385.584,295.198 381.5,297C 377.495,297.145 373.662,297.978 370,299.5C 368.941,299.37 368.108,298.87 367.5,298C 352.672,297.212 338.006,296.379 323.5,295.5C 344.218,295.882 364.885,295.048 385.5,293C 387.119,292.764 388.119,291.931 388.5,290.5C 390.213,289.365 390.88,287.698 390.5,285.5C 388.833,285.5 387.167,285.5 385.5,285.5C 383.14,283.147 380.473,281.147 377.5,279.5C 377.241,275.932 375.241,274.599 371.5,275.5C 368.833,275.167 366.167,274.833 363.5,274.5C 363.489,272.983 362.823,271.816 361.5,271C 359.404,269.234 357.071,267.901 354.5,267C 345.381,265.608 336.714,266.775 328.5,270.5C 329.298,268.034 330.631,266.034 332.5,264.5 Z"/></g>
<g><path style="opacity:0.945" fill="#b35b57" d="M 286.5,271.5 C 287.811,295.166 287.811,318.833 286.5,342.5C 302.837,342.667 319.17,342.5 335.5,342C 332.833,341.667 330.167,341.333 327.5,341C 326.944,340.617 326.611,340.117 326.5,339.5C 334.923,340.95 343.423,341.617 352,341.5C 373.207,340.81 394.374,339.477 415.5,337.5C 417.59,337.573 419.59,337.906 421.5,338.5C 421.5,340.167 421.5,341.833 421.5,343.5C 414.833,343.5 408.167,343.5 401.5,343.5C 401.5,342.5 401.5,341.5 401.5,340.5C 399.319,340.284 397.653,341.117 396.5,343C 359.502,343.5 322.502,343.667 285.5,343.5C 285.5,339.833 285.5,336.167 285.5,332.5C 285.833,324.503 286.166,316.503 286.5,308.5C 285.168,289.189 284.501,269.855 284.5,250.5C 284.5,249.833 284.5,249.167 284.5,248.5C 285.609,248.443 286.609,248.11 287.5,247.5C 289.288,246.378 291.288,246.211 293.5,247C 296.854,253.844 294.52,256.678 286.5,255.5C 286.5,260.833 286.5,266.167 286.5,271.5 Z"/></g>
<g><path style="opacity:1" fill="#eba397" d="M 287.5,247.5 C 289.5,247.833 291.5,248.167 293.5,248.5C 293.405,251.272 292.071,253.272 289.5,254.5C 286.402,252.87 285.735,250.537 287.5,247.5 Z"/></g>
<g><path style="opacity:0.361" fill="#b57c7a" d="M 285.5,332.5 C 285.5,336.167 285.5,339.833 285.5,343.5C 322.502,343.667 359.502,343.5 396.5,343C 397.653,341.117 399.319,340.284 401.5,340.5C 401.5,341.5 401.5,342.5 401.5,343.5C 408.167,343.5 414.833,343.5 421.5,343.5C 376.003,344.499 330.336,344.832 284.5,344.5C 284.183,340.298 284.517,336.298 285.5,332.5 Z"/></g>
</svg>
