<?xml version="1.0" encoding="UTF-8"?>
<!DOCTYPE svg PUBLIC "-//W3C//DTD SVG 1.1//EN" "http://www.w3.org/Graphics/SVG/1.1/DTD/svg11.dtd">
<svg xmlns="http://www.w3.org/2000/svg" version="1.1" width="691px" height="361px" style="shape-rendering:geometricPrecision; text-rendering:geometricPrecision; image-rendering:optimizeQuality; fill-rule:evenodd; clip-rule:evenodd" xmlns:xlink="http://www.w3.org/1999/xlink">
<g><path style="opacity:0.094" fill="#c1c6cb" d="M 326.5,26.5 C 328.674,26.7497 330.341,27.7497 331.5,29.5C 329.326,29.2503 327.659,28.2503 326.5,26.5 Z"/></g>
<g><path style="opacity:1" fill="#262f37" d="M 326.5,26.5 C 327.659,28.2503 329.326,29.2503 331.5,29.5C 338.053,32.93 343.053,37.93 346.5,44.5C 346.75,46.674 347.75,48.3406 349.5,49.5C 351.123,53.3269 352.123,57.3269 352.5,61.5C 352.817,67.9092 352.317,74.2425 351,80.5C 350.339,77.198 349.172,74.198 347.5,71.5C 342.167,58.834 332.834,50.834 319.5,47.5C 319.167,47.5 318.833,47.5 318.5,47.5C 315.258,42.5864 311.258,38.2531 306.5,34.5C 306.167,34.8333 305.833,35.1667 305.5,35.5C 310.792,38.7579 313.458,43.4246 313.5,49.5C 313.167,49.5 312.833,49.5 312.5,49.5C 311.504,49.4142 310.671,49.7476 310,50.5C 306.302,59.1124 302.135,67.4457 297.5,75.5C 296.566,76.5676 296.232,77.901 296.5,79.5C 293.833,82.5 291.167,85.5 288.5,88.5C 287.85,88.1961 287.183,87.8627 286.5,87.5C 283.759,91.0016 282.259,95.0016 282,99.5C 281.586,99.0426 281.086,98.7093 280.5,98.5C 278.034,104.785 275.034,105.119 271.5,99.5C 271.5,98.5 271.5,97.5 271.5,96.5C 270.167,96.5 268.833,96.5 267.5,96.5C 267.232,94.901 267.566,93.5676 268.5,92.5C 268.833,92.5 269.167,92.5 269.5,92.5C 270.568,93.4345 271.901,93.7678 273.5,93.5C 273.5,91.5 273.5,89.5 273.5,87.5C 277.5,88.1667 279.167,86.5 278.5,82.5C 277.167,82.5 275.833,82.5 274.5,82.5C 274.993,80.1944 275.326,77.861 275.5,75.5C 273.712,75.7852 272.045,75.4519 270.5,74.5C 268.788,71.0273 266.455,70.694 263.5,73.5C 262.522,70.6752 260.522,69.3419 257.5,69.5C 257.5,71.8333 257.5,74.1667 257.5,76.5C 253.5,75.8333 251.833,77.5 252.5,81.5C 250.5,81.5 248.5,81.5 246.5,81.5C 247.854,84.784 247.52,87.784 245.5,90.5C 247.297,91.6951 248.297,93.3618 248.5,95.5C 246.379,95.6747 244.379,95.3414 242.5,94.5C 241.835,90.8485 241.501,87.0152 241.5,83C 241.341,76.9256 242.007,71.0923 243.5,65.5C 244.931,64.2196 245.598,62.5529 245.5,60.5C 246.364,56.441 248.03,52.7743 250.5,49.5C 252.262,48.7377 253.262,47.4044 253.5,45.5C 255.167,43.1667 257.167,41.1667 259.5,39.5C 261.389,38.396 263.055,37.0627 264.5,35.5C 268.659,32.2509 273.326,29.7509 278.5,28C 286.622,27.2145 294.622,25.8812 302.5,24C 310.71,22.9906 318.71,23.8239 326.5,26.5 Z"/></g>
<g><path style="opacity:0.075" fill="#bdbec5" d="M 264.5,35.5 C 263.055,37.0627 261.389,38.396 259.5,39.5C 260.129,37.0029 261.796,35.6696 264.5,35.5 Z"/></g>
<g><path style="opacity:1" fill="#baa880" d="M 318.5,47.5 C 316.446,47.3653 314.779,48.032 313.5,49.5C 313.458,43.4246 310.792,38.7579 305.5,35.5C 305.833,35.1667 306.167,34.8333 306.5,34.5C 311.258,38.2531 315.258,42.5864 318.5,47.5 Z"/></g>
<g><path style="opacity:0.314" fill="#b5b6bb" d="M 253.5,45.5 C 253.262,47.4044 252.262,48.7377 250.5,49.5C 250.738,47.5956 251.738,46.2623 253.5,45.5 Z"/></g>
<g><path style="opacity:0.067" fill="#bec6c7" d="M 346.5,44.5 C 348.25,45.6594 349.25,47.326 349.5,49.5C 347.75,48.3406 346.75,46.674 346.5,44.5 Z"/></g>
<g><path style="opacity:1" fill="#ebad63" d="M 318.5,47.5 C 318.833,47.5 319.167,47.5 319.5,47.5C 320.747,49.178 322.414,50.5113 324.5,51.5C 325.48,54.0865 325.813,56.7531 325.5,59.5C 321.743,60.8102 318.077,60.4769 314.5,58.5C 313.516,55.5719 313.183,52.5719 313.5,49.5C 314.779,48.032 316.446,47.3653 318.5,47.5 Z"/></g>
<g><path style="opacity:1" fill="#d06743" d="M 317.5,51.5 C 322.328,51.3852 323.661,53.5519 321.5,58C 316.57,58.427 315.237,56.2604 317.5,51.5 Z"/></g>
<g><path style="opacity:1" fill="#856f64" d="M 312.5,49.5 C 312.5,51.1667 312.5,52.8333 312.5,54.5C 312.167,54.5 311.833,54.5 311.5,54.5C 307.995,61.2163 304.161,67.8829 300,74.5C 299.329,75.2524 298.496,75.5858 297.5,75.5C 302.135,67.4457 306.302,59.1124 310,50.5C 310.671,49.7476 311.504,49.4142 312.5,49.5 Z"/></g>
<g><path style="opacity:1" fill="#f1c98f" d="M 312.5,49.5 C 312.833,49.5 313.167,49.5 313.5,49.5C 313.183,52.5719 313.516,55.5719 314.5,58.5C 318.077,60.4769 321.743,60.8102 325.5,59.5C 324.253,62.703 321.919,63.8697 318.5,63C 316.667,61.8333 314.833,60.6667 313,59.5C 312.506,57.8659 312.34,56.1992 312.5,54.5C 312.5,52.8333 312.5,51.1667 312.5,49.5 Z"/></g>
<g><path style="opacity:0.067" fill="#bec0c3" d="M 245.5,60.5 C 245.598,62.5529 244.931,64.2196 243.5,65.5C 243.402,63.4471 244.069,61.7804 245.5,60.5 Z"/></g>
<g><path style="opacity:1" fill="#47392e" d="M 311.5,54.5 C 309.315,64.5389 304.315,72.8722 296.5,79.5C 296.232,77.901 296.566,76.5676 297.5,75.5C 298.496,75.5858 299.329,75.2524 300,74.5C 304.161,67.8829 307.995,61.2163 311.5,54.5 Z"/></g>
<g><path style="opacity:1" fill="#6c9550" d="M 263.5,73.5 C 263.5,73.8333 263.5,74.1667 263.5,74.5C 261.952,74.8212 261.285,75.8212 261.5,77.5C 260.5,77.5 259.5,77.5 258.5,77.5C 258.5,76.8333 258.167,76.5 257.5,76.5C 257.5,74.1667 257.5,71.8333 257.5,69.5C 260.522,69.3419 262.522,70.6752 263.5,73.5 Z"/></g>
<g><path style="opacity:1" fill="#373230" d="M 335.5,80.5 C 334.596,79.791 334.263,78.791 334.5,77.5C 338.812,74.8389 343.145,74.8389 347.5,77.5C 343.382,78.177 339.382,79.177 335.5,80.5 Z"/></g>
<g><path style="opacity:1" fill="#de7b52" d="M 264.5,76.5 C 265.404,77.209 265.737,78.209 265.5,79.5C 268.167,78.8333 270.833,78.1667 273.5,77.5C 273.055,80.3646 273.722,82.8646 275.5,85C 274.584,85.3742 273.75,85.8742 273,86.5C 272.505,88.4727 272.338,90.4727 272.5,92.5C 271.5,92.5 270.5,92.5 269.5,92.5C 269.167,92.5 268.833,92.5 268.5,92.5C 267.766,91.2921 267.433,89.9587 267.5,88.5C 265.901,88.7678 264.568,88.4345 263.5,87.5C 268.323,87.6728 270.323,85.3394 269.5,80.5C 267.833,80.5 266.167,80.5 264.5,80.5C 264.5,79.1667 264.5,77.8333 264.5,76.5 Z"/></g>
<g><path style="opacity:1" fill="#a0554f" d="M 257.5,76.5 C 258.167,76.5 258.5,76.8333 258.5,77.5C 257.178,77.33 256.011,77.6634 255,78.5C 254.749,80.433 254.249,82.2663 253.5,84C 252.552,84.4828 251.552,84.6495 250.5,84.5C 249.65,88.3604 249.317,92.1937 249.5,96C 249.167,96.5 248.833,97 248.5,97.5C 245.799,95.8414 244.132,96.5081 243.5,99.5C 243.167,99.5 242.833,99.5 242.5,99.5C 241.438,97.9008 241.438,96.2341 242.5,94.5C 244.379,95.3414 246.379,95.6747 248.5,95.5C 248.297,93.3618 247.297,91.6951 245.5,90.5C 247.52,87.784 247.854,84.784 246.5,81.5C 248.5,81.5 250.5,81.5 252.5,81.5C 251.833,77.5 253.5,75.8333 257.5,76.5 Z"/></g>
<g><path style="opacity:1" fill="#f4b861" d="M 263.5,74.5 C 264.338,74.8417 264.672,75.5084 264.5,76.5C 264.5,77.8333 264.5,79.1667 264.5,80.5C 266.167,80.5 267.833,80.5 269.5,80.5C 270.323,85.3394 268.323,87.6728 263.5,87.5C 262.227,85.3827 262.227,83.216 263.5,81C 263.022,79.6974 262.355,78.5307 261.5,77.5C 261.285,75.8212 261.952,74.8212 263.5,74.5 Z"/></g>
<g><path style="opacity:1" fill="#bb6954" d="M 269.5,92.5 C 270.5,92.5 271.5,92.5 272.5,92.5C 272.338,90.4727 272.505,88.4727 273,86.5C 273.75,85.8742 274.584,85.3742 275.5,85C 273.722,82.8646 273.055,80.3646 273.5,77.5C 270.833,78.1667 268.167,78.8333 265.5,79.5C 265.737,78.209 265.404,77.209 264.5,76.5C 264.672,75.5084 264.338,74.8417 263.5,74.5C 263.5,74.1667 263.5,73.8333 263.5,73.5C 266.455,70.694 268.788,71.0273 270.5,74.5C 272.045,75.4519 273.712,75.7852 275.5,75.5C 275.326,77.861 274.993,80.1944 274.5,82.5C 275.833,82.5 277.167,82.5 278.5,82.5C 279.167,86.5 277.5,88.1667 273.5,87.5C 273.5,89.5 273.5,91.5 273.5,93.5C 271.901,93.7678 270.568,93.4345 269.5,92.5 Z"/></g>
<g><path style="opacity:1" fill="#cc5e50" d="M 258.5,77.5 C 259.5,77.5 260.5,77.5 261.5,77.5C 262.355,78.5307 263.022,79.6974 263.5,81C 262.227,83.216 262.227,85.3827 263.5,87.5C 264.568,88.4345 265.901,88.7678 267.5,88.5C 267.433,89.9587 267.766,91.2921 268.5,92.5C 267.566,93.5676 267.232,94.901 267.5,96.5C 268.833,96.5 270.167,96.5 271.5,96.5C 271.5,97.5 271.5,98.5 271.5,99.5C 269.952,99.8212 269.285,100.821 269.5,102.5C 266.315,104.449 263.315,106.783 260.5,109.5C 259.713,107.896 258.38,107.229 256.5,107.5C 256.5,109.167 256.5,110.833 256.5,112.5C 254.005,111.801 251.672,110.801 249.5,109.5C 249.157,111.483 249.824,112.817 251.5,113.5C 251.5,115.5 251.5,117.5 251.5,119.5C 250.358,121.972 248.358,122.972 245.5,122.5C 244.372,119.115 244.372,115.781 245.5,112.5C 247.12,111.159 248.12,109.326 248.5,107C 249.793,106.51 251.127,106.343 252.5,106.5C 252.756,104.208 252.423,102.041 251.5,100C 248.681,100.492 246.014,100.326 243.5,99.5C 244.132,96.5081 245.799,95.8414 248.5,97.5C 248.833,97 249.167,96.5 249.5,96C 249.317,92.1937 249.65,88.3604 250.5,84.5C 251.552,84.6495 252.552,84.4828 253.5,84C 254.249,82.2663 254.749,80.433 255,78.5C 256.011,77.6634 257.178,77.33 258.5,77.5 Z"/></g>
<g><path style="opacity:1" fill="#a68478" d="M 352.5,61.5 C 353.944,68.6037 353.611,75.7704 351.5,83C 355.019,92.2407 357.352,101.741 358.5,111.5C 357.883,111.389 357.383,111.056 357,110.5C 356.118,107.211 355.452,103.877 355,100.5C 352.443,98.6067 351.943,96.2734 353.5,93.5C 353,93.1667 352.5,92.8333 352,92.5C 350.389,94.2096 348.889,96.0429 347.5,98C 344.77,98.7284 342.103,98.5617 339.5,97.5C 338.702,97.0431 338.369,96.3764 338.5,95.5C 343.236,97.4949 346.903,96.3282 349.5,92C 349.333,91.5 349.167,91 349,90.5C 345.959,92.9287 342.459,93.9287 338.5,93.5C 338.389,92.8826 338.056,92.3826 337.5,92C 342.273,91.3321 346.94,90.4987 351.5,89.5C 351.089,86.4466 350.423,83.4466 349.5,80.5C 344.726,80.5357 340.06,80.5357 335.5,80.5C 339.382,79.177 343.382,78.177 347.5,77.5C 343.145,74.8389 338.812,74.8389 334.5,77.5C 334.5,76.5 334.5,75.5 334.5,74.5C 338.571,74.2338 342.571,74.5672 346.5,75.5C 347.429,74.3112 347.762,72.9778 347.5,71.5C 349.172,74.198 350.339,77.198 351,80.5C 352.317,74.2425 352.817,67.9092 352.5,61.5 Z"/></g>
<g><path style="opacity:1" fill="#363230" d="M 288.5,88.5 C 286.046,91.0749 284.38,94.0749 283.5,97.5C 284.812,101.935 285.812,106.435 286.5,111C 283.963,116.709 285.463,120.875 291,123.5C 291.688,124.332 291.521,124.998 290.5,125.5C 286.833,123.833 284.167,121.167 282.5,117.5C 283.542,113.201 283.709,108.868 283,104.5C 282.586,104.043 282.086,103.709 281.5,103.5C 280.387,105.031 278.887,106.031 277,106.5C 274.539,105.021 272.039,103.687 269.5,102.5C 269.285,100.821 269.952,99.8212 271.5,99.5C 275.034,105.119 278.034,104.785 280.5,98.5C 281.086,98.7093 281.586,99.0426 282,99.5C 282.259,95.0016 283.759,91.0016 286.5,87.5C 287.183,87.8627 287.85,88.1961 288.5,88.5 Z"/></g>
<g><path style="opacity:1" fill="#4f2528" d="M 254.5,94.5 C 255.5,94.5 256.5,94.5 257.5,94.5C 257.5,95.8333 257.5,97.1667 257.5,98.5C 256.5,98.5 255.5,98.5 254.5,98.5C 254.5,97.1667 254.5,95.8333 254.5,94.5 Z"/></g>
<g><path style="opacity:1" fill="#3f3432" d="M 338.5,95.5 C 337.167,94.8333 337.167,94.1667 338.5,93.5C 342.459,93.9287 345.959,92.9287 349,90.5C 349.167,91 349.333,91.5 349.5,92C 346.903,96.3282 343.236,97.4949 338.5,95.5 Z"/></g>
<g><path style="opacity:1" fill="#e69659" d="M 242.5,99.5 C 242.833,99.5 243.167,99.5 243.5,99.5C 246.014,100.326 248.681,100.492 251.5,100C 252.423,102.041 252.756,104.208 252.5,106.5C 251.127,106.343 249.793,106.51 248.5,107C 248.12,109.326 247.12,111.159 245.5,112.5C 244.391,112.557 243.391,112.89 242.5,113.5C 243.335,112.057 244.668,111.057 246.5,110.5C 243.511,108.963 241.678,106.963 241,104.5C 240.36,102.457 240.86,100.79 242.5,99.5 Z"/></g>
<g><path style="opacity:1" fill="#e7763c" d="M 361.5,112.5 C 366.945,112.757 371.612,114.757 375.5,118.5C 377.265,121.62 378.599,124.953 379.5,128.5C 378.667,128.833 377.833,129.167 377,129.5C 375.032,128.687 373.198,127.687 371.5,126.5C 368.732,124.913 366.065,123.08 363.5,121C 362.167,120.333 360.833,120.333 359.5,121C 364.452,122.612 367.785,125.779 369.5,130.5C 371.678,135.8 372.011,141.133 370.5,146.5C 370.665,142.818 370.499,139.152 370,135.5C 364.775,124.682 363.108,125.016 365,136.5C 366.182,138.344 367.349,140.177 368.5,142C 365.637,144.897 364.303,148.397 364.5,152.5C 363.127,152.343 361.793,152.51 360.5,153C 357.627,158.534 353.627,159.701 348.5,156.5C 351.836,153.997 355.503,152.33 359.5,151.5C 359.569,148.916 360.735,146.916 363,145.5C 365.108,138.466 362.608,134.466 355.5,133.5C 356.833,133.5 358.167,133.5 359.5,133.5C 359.833,133.5 360.167,133.5 360.5,133.5C 359.925,131.589 358.925,129.922 357.5,128.5C 355.052,127.527 352.385,127.194 349.5,127.5C 349.611,126.883 349.944,126.383 350.5,126C 353.146,125.503 355.813,125.336 358.5,125.5C 358.5,126.5 358.5,127.5 358.5,128.5C 361.5,128.833 362.833,127.5 362.5,124.5C 360.133,123.836 358.133,122.503 356.5,120.5C 352.202,119.225 348.035,119.558 344,121.5C 343.057,124.251 342.224,126.917 341.5,129.5C 341.173,124.786 341.507,120.12 342.5,115.5C 348.528,112.828 354.861,111.828 361.5,112.5 Z"/></g>
<g><path style="opacity:1" fill="#737c4a" d="M 251.5,113.5 C 253.344,115.195 254.677,117.195 255.5,119.5C 254.295,120.686 252.961,120.686 251.5,119.5C 251.5,117.5 251.5,115.5 251.5,113.5 Z"/></g>
<g><path style="opacity:0.145" fill="#e6b1b1" d="M 241.5,116.5 C 243.448,118.32 244.448,120.654 244.5,123.5C 246.099,123.232 247.432,123.566 248.5,124.5C 246.914,125.413 245.414,125.413 244,124.5C 242.409,122.073 241.575,119.407 241.5,116.5 Z"/></g>
<g><path style="opacity:1" fill="#bc9686" d="M 416.5,131.5 C 411.832,131.86 409.165,129.86 408.5,125.5C 403.552,123.399 398.385,122.065 393,121.5C 388.099,122.153 383.266,122.153 378.5,121.5C 377.833,121.5 377.5,121.167 377.5,120.5C 389.577,118.257 400.91,120.09 411.5,126C 413.373,127.704 415.04,129.537 416.5,131.5 Z"/></g>
<g><path style="opacity:1" fill="#cf8768" d="M 375.5,118.5 C 376.5,118.833 377.167,119.5 377.5,120.5C 377.5,121.167 377.833,121.5 378.5,121.5C 379.072,122.973 379.905,124.307 381,125.5C 382.28,130.921 380.113,132.921 374.5,131.5C 374.483,133.565 374.15,135.565 373.5,137.5C 373.074,142.963 371.74,148.297 369.5,153.5C 369.167,153.5 368.833,153.5 368.5,153.5C 368.878,151.079 369.545,148.746 370.5,146.5C 372.011,141.133 371.678,135.8 369.5,130.5C 372.481,130.206 373.148,128.872 371.5,126.5C 373.198,127.687 375.032,128.687 377,129.5C 377.833,129.167 378.667,128.833 379.5,128.5C 378.599,124.953 377.265,121.62 375.5,118.5 Z"/></g>
<g><path style="opacity:1" fill="#bb5c58" d="M 245.5,112.5 C 244.372,115.781 244.372,119.115 245.5,122.5C 248.358,122.972 250.358,121.972 251.5,119.5C 252.961,120.686 254.295,120.686 255.5,119.5C 257.117,120.038 258.784,120.371 260.5,120.5C 261.167,124.167 261.833,127.833 262.5,131.5C 261.07,131.579 259.736,131.246 258.5,130.5C 257.852,132.149 256.852,133.482 255.5,134.5C 254.015,132.148 252.682,129.814 251.5,127.5C 251.5,125.5 250.5,124.5 248.5,124.5C 247.432,123.566 246.099,123.232 244.5,123.5C 244.448,120.654 243.448,118.32 241.5,116.5C 241.557,115.391 241.89,114.391 242.5,113.5C 243.391,112.89 244.391,112.557 245.5,112.5 Z"/></g>
<g><path style="opacity:1" fill="#e5af58" d="M 281.5,132.5 C 280.522,132.811 279.855,133.478 279.5,134.5C 280.857,136.186 282.19,137.852 283.5,139.5C 283.5,140.833 283.5,142.167 283.5,143.5C 280.167,143.5 276.833,143.5 273.5,143.5C 273.343,142.127 273.51,140.793 274,139.5C 275.417,138.922 276.25,137.922 276.5,136.5C 276.611,135.883 276.944,135.383 277.5,135C 275.859,133.871 274.859,132.371 274.5,130.5C 274.083,125.932 276.083,124.432 280.5,126C 282.824,127.825 283.157,129.991 281.5,132.5 Z"/></g>
<g><path style="opacity:1" fill="#4f393a" d="M 260.5,109.5 C 259.776,115.657 261.443,120.99 265.5,125.5C 264.527,125.987 263.527,126.487 262.5,127C 263.406,128.699 263.739,130.533 263.5,132.5C 262.127,132.343 260.793,132.51 259.5,133C 258.183,134.659 256.517,135.826 254.5,136.5C 253.895,133.694 252.562,131.36 250.5,129.5C 250.543,128.584 250.876,127.917 251.5,127.5C 252.682,129.814 254.015,132.148 255.5,134.5C 256.852,133.482 257.852,132.149 258.5,130.5C 259.736,131.246 261.07,131.579 262.5,131.5C 261.833,127.833 261.167,124.167 260.5,120.5C 258.784,120.371 257.117,120.038 255.5,119.5C 254.677,117.195 253.344,115.195 251.5,113.5C 249.824,112.817 249.157,111.483 249.5,109.5C 251.672,110.801 254.005,111.801 256.5,112.5C 256.5,110.833 256.5,109.167 256.5,107.5C 258.38,107.229 259.713,107.896 260.5,109.5 Z"/></g>
<g><path style="opacity:1" fill="#c6704a" d="M 335.5,127.5 C 333.104,125.788 330.438,125.288 327.5,126C 318.625,133.077 315.292,142.243 317.5,153.5C 315.883,152.411 315.05,150.744 315,148.5C 314.274,143.761 314.607,139.095 316,134.5C 318.778,132.576 320.945,130.243 322.5,127.5C 324.695,125.821 327.195,124.821 330,124.5C 332.655,124.124 334.488,125.124 335.5,127.5 Z"/></g>
<g><path style="opacity:1" fill="#523f31" d="M 281.5,132.5 C 283.074,132.937 284.241,133.937 285,135.5C 285.943,138.824 286.776,142.157 287.5,145.5C 286.833,145.5 286.167,145.5 285.5,145.5C 285.405,143.214 284.738,141.214 283.5,139.5C 282.19,137.852 280.857,136.186 279.5,134.5C 279.855,133.478 280.522,132.811 281.5,132.5 Z"/></g>
<g><path style="opacity:1" fill="#d0b886" d="M 276.5,136.5 C 276.25,137.922 275.417,138.922 274,139.5C 273.51,140.793 273.343,142.127 273.5,143.5C 276.833,143.5 280.167,143.5 283.5,143.5C 283.5,142.167 283.5,140.833 283.5,139.5C 284.738,141.214 285.405,143.214 285.5,145.5C 281.253,146.602 276.92,146.768 272.5,146C 270.688,141.461 272.021,138.295 276.5,136.5 Z"/></g>
<g><path style="opacity:0.047" fill="#9aa6a7" d="M 252.5,149.5 C 253.906,149.973 254.573,150.973 254.5,152.5C 253.094,152.027 252.427,151.027 252.5,149.5 Z"/></g>
<g><path style="opacity:1" fill="#e28153" d="M 383.5,147.5 C 383.5,148.833 383.5,150.167 383.5,151.5C 382.955,153.593 382.122,155.593 381,157.5C 377.962,160.369 375.129,163.369 372.5,166.5C 372.167,166.5 371.833,166.5 371.5,166.5C 371.5,164.833 371.5,163.167 371.5,161.5C 372.833,161.5 374.167,161.5 375.5,161.5C 375.377,157.96 377.043,155.96 380.5,155.5C 380.977,152.562 381.977,149.896 383.5,147.5 Z"/></g>
<g><path style="opacity:1" fill="#e76b2f" d="M 349.5,127.5 C 348.766,128.708 348.433,130.041 348.5,131.5C 351.188,131.166 353.521,131.832 355.5,133.5C 362.608,134.466 365.108,138.466 363,145.5C 360.735,146.916 359.569,148.916 359.5,151.5C 355.503,152.33 351.836,153.997 348.5,156.5C 353.627,159.701 357.627,158.534 360.5,153C 361.793,152.51 363.127,152.343 364.5,152.5C 364.303,148.397 365.637,144.897 368.5,142C 367.349,140.177 366.182,138.344 365,136.5C 363.108,125.016 364.775,124.682 370,135.5C 370.499,139.152 370.665,142.818 370.5,146.5C 369.545,148.746 368.878,151.079 368.5,153.5C 368.5,153.833 368.5,154.167 368.5,154.5C 367.833,154.5 367.5,154.833 367.5,155.5C 365.396,157.099 363.396,158.932 361.5,161C 366.814,159.198 370.814,155.698 373.5,150.5C 373.796,148.597 374.463,146.93 375.5,145.5C 377.223,143.22 377.889,140.553 377.5,137.5C 379.144,137.286 380.644,137.62 382,138.5C 382.696,141.478 383.196,144.478 383.5,147.5C 381.977,149.896 380.977,152.562 380.5,155.5C 377.043,155.96 375.377,157.96 375.5,161.5C 374.167,161.5 372.833,161.5 371.5,161.5C 371.5,163.167 371.5,164.833 371.5,166.5C 370.078,166.75 369.078,167.583 368.5,169C 364.554,170.481 360.554,171.647 356.5,172.5C 355.833,172.5 355.167,172.5 354.5,172.5C 352.833,172.5 351.167,172.5 349.5,172.5C 344.684,171.674 339.684,171.174 334.5,171C 327.896,165.899 322.23,160.066 317.5,153.5C 315.292,142.243 318.625,133.077 327.5,126C 330.438,125.288 333.104,125.788 335.5,127.5C 336.635,129.213 338.302,129.88 340.5,129.5C 340.833,129.5 341.167,129.5 341.5,129.5C 342.224,126.917 343.057,124.251 344,121.5C 348.035,119.558 352.202,119.225 356.5,120.5C 358.133,122.503 360.133,123.836 362.5,124.5C 362.833,127.5 361.5,128.833 358.5,128.5C 358.5,127.5 358.5,126.5 358.5,125.5C 355.813,125.336 353.146,125.503 350.5,126C 349.944,126.383 349.611,126.883 349.5,127.5 Z M 353.5,140.5 C 355.925,142.17 356.091,144.17 354,146.5C 350.901,150.674 346.734,152.674 341.5,152.5C 341.389,151.883 341.056,151.383 340.5,151C 344.358,148.642 347.358,145.475 349.5,141.5C 350.689,140.571 352.022,140.238 353.5,140.5 Z M 373.5,137.5 C 375.252,137.418 376.252,138.251 376.5,140C 375.767,141.766 375.433,143.599 375.5,145.5C 374.463,146.93 373.796,148.597 373.5,150.5C 372.167,151.5 370.833,152.5 369.5,153.5C 371.74,148.297 373.074,142.963 373.5,137.5 Z M 357.5,128.5 C 358.925,129.922 359.925,131.589 360.5,133.5C 360.167,133.5 359.833,133.5 359.5,133.5C 358.544,132.341 357.544,131.174 356.5,130C 356.57,129.235 356.903,128.735 357.5,128.5 Z"/></g>
<g><path style="opacity:0.137" fill="#f4a472" d="M 373.5,150.5 C 370.814,155.698 366.814,159.198 361.5,161C 363.396,158.932 365.396,157.099 367.5,155.5C 368.167,155.5 368.5,155.167 368.5,154.5C 369.167,154.5 369.5,154.167 369.5,153.5C 370.833,152.5 372.167,151.5 373.5,150.5 Z"/></g>
<g><path style="opacity:1" fill="#e08153" d="M 341.5,152.5 C 346.734,152.674 350.901,150.674 354,146.5C 356.091,144.17 355.925,142.17 353.5,140.5C 350.024,139.357 346.358,139.19 342.5,140C 339.038,142.239 337.705,145.406 338.5,149.5C 336.612,145.306 337.612,141.806 341.5,139C 345.833,138.333 350.167,138.333 354.5,139C 356.504,141.841 357.004,145.007 356,148.5C 351.713,152.438 346.88,153.771 341.5,152.5 Z"/></g>
<g><path style="opacity:1" fill="#cc7850" d="M 329.5,133.5 C 330.5,133.5 331.5,133.5 332.5,133.5C 332.716,135.681 331.883,137.347 330,138.5C 329.639,141.525 329.139,144.525 328.5,147.5C 330.193,153.825 334.026,158.158 340,160.5C 341.377,161.964 341.377,162.964 340,163.5C 329.281,159.897 323.948,152.564 324,141.5C 326.09,138.978 327.924,136.312 329.5,133.5 Z"/></g>
<g><path style="opacity:1" fill="#c28b74" d="M 353.5,140.5 C 352.022,140.238 350.689,140.571 349.5,141.5C 347.358,145.475 344.358,148.642 340.5,151C 341.056,151.383 341.389,151.883 341.5,152.5C 340.1,151.9 339.1,150.9 338.5,149.5C 337.705,145.406 339.038,142.239 342.5,140C 346.358,139.19 350.024,139.357 353.5,140.5 Z"/></g>
<g><path style="opacity:0.8" fill="#c97952" d="M 349.5,127.5 C 352.385,127.194 355.052,127.527 357.5,128.5C 356.903,128.735 356.57,129.235 356.5,130C 357.544,131.174 358.544,132.341 359.5,133.5C 358.167,133.5 356.833,133.5 355.5,133.5C 353.521,131.832 351.188,131.166 348.5,131.5C 348.433,130.041 348.766,128.708 349.5,127.5 Z"/></g>
<g><path style="opacity:1" fill="#b6826b" d="M 319.5,47.5 C 332.834,50.834 342.167,58.834 347.5,71.5C 347.762,72.9778 347.429,74.3112 346.5,75.5C 342.571,74.5672 338.571,74.2338 334.5,74.5C 334.5,75.5 334.5,76.5 334.5,77.5C 334.263,78.791 334.596,79.791 335.5,80.5C 340.06,80.5357 344.726,80.5357 349.5,80.5C 350.423,83.4466 351.089,86.4466 351.5,89.5C 346.94,90.4987 342.273,91.3321 337.5,92C 338.056,92.3826 338.389,92.8826 338.5,93.5C 337.167,94.1667 337.167,94.8333 338.5,95.5C 338.369,96.3764 338.702,97.0431 339.5,97.5C 342.103,98.5617 344.77,98.7284 347.5,98C 348.889,96.0429 350.389,94.2096 352,92.5C 352.5,92.8333 353,93.1667 353.5,93.5C 351.943,96.2734 352.443,98.6067 355,100.5C 355.452,103.877 356.118,107.211 357,110.5C 357.383,111.056 357.883,111.389 358.5,111.5C 359.791,111.263 360.791,111.596 361.5,112.5C 354.861,111.828 348.528,112.828 342.5,115.5C 341.507,120.12 341.173,124.786 341.5,129.5C 341.167,129.5 340.833,129.5 340.5,129.5C 340.81,126.287 340.477,123.287 339.5,120.5C 340.85,119.176 340.683,118.176 339,117.5C 334.677,118.249 330.844,119.916 327.5,122.5C 327.167,122.5 326.833,122.5 326.5,122.5C 323.703,122.967 322.369,124.633 322.5,127.5C 320.945,130.243 318.778,132.576 316,134.5C 314.607,139.095 314.274,143.761 315,148.5C 315.05,150.744 315.883,152.411 317.5,153.5C 322.23,160.066 327.896,165.899 334.5,171C 339.684,171.174 344.684,171.674 349.5,172.5C 350.381,184.089 349.214,195.422 346,206.5C 344.191,208.714 342.524,211.048 341,213.5C 339.991,215.025 339.491,216.692 339.5,218.5C 334.537,217.027 329.537,215.527 324.5,214C 321.009,211.707 317.343,209.54 313.5,207.5C 304.739,200.401 296.739,192.735 289.5,184.5C 288.475,183.626 287.808,182.459 287.5,181C 290.446,176.018 291.112,170.851 289.5,165.5C 289.443,164.391 289.11,163.391 288.5,162.5C 289.833,160.833 289.833,159.167 288.5,157.5C 289.496,153.446 289.162,149.446 287.5,145.5C 286.776,142.157 285.943,138.824 285,135.5C 284.241,133.937 283.074,132.937 281.5,132.5C 283.157,129.991 282.824,127.825 280.5,126C 276.083,124.432 274.083,125.932 274.5,130.5C 272.914,129.852 271.247,129.352 269.5,129C 268.295,127.624 266.962,126.458 265.5,125.5C 261.443,120.99 259.776,115.657 260.5,109.5C 263.315,106.783 266.315,104.449 269.5,102.5C 272.039,103.687 274.539,105.021 277,106.5C 278.887,106.031 280.387,105.031 281.5,103.5C 282.086,103.709 282.586,104.043 283,104.5C 283.709,108.868 283.542,113.201 282.5,117.5C 284.167,121.167 286.833,123.833 290.5,125.5C 291.521,124.998 291.688,124.332 291,123.5C 285.463,120.875 283.963,116.709 286.5,111C 285.812,106.435 284.812,101.935 283.5,97.5C 284.38,94.0749 286.046,91.0749 288.5,88.5C 291.167,85.5 293.833,82.5 296.5,79.5C 304.315,72.8722 309.315,64.5389 311.5,54.5C 311.833,54.5 312.167,54.5 312.5,54.5C 312.34,56.1992 312.506,57.8659 313,59.5C 314.833,60.6667 316.667,61.8333 318.5,63C 321.919,63.8697 324.253,62.703 325.5,59.5C 325.813,56.7531 325.48,54.0865 324.5,51.5C 322.414,50.5113 320.747,49.178 319.5,47.5 Z M 339.5,120.5 C 335.616,121.793 331.616,122.459 327.5,122.5C 330.844,119.916 334.677,118.249 339,117.5C 340.683,118.176 340.85,119.176 339.5,120.5 Z"/></g>
<g><path style="opacity:1" fill="#68362d" d="M 339.5,120.5 C 340.477,123.287 340.81,126.287 340.5,129.5C 338.302,129.88 336.635,129.213 335.5,127.5C 334.488,125.124 332.655,124.124 330,124.5C 327.195,124.821 324.695,125.821 322.5,127.5C 322.369,124.633 323.703,122.967 326.5,122.5C 328.966,123.634 331.633,123.801 334.5,123C 336.653,122.901 338.319,122.067 339.5,120.5 Z"/></g>
<g><path style="opacity:0.329" fill="#896f70" d="M 339.5,120.5 C 338.319,122.067 336.653,122.901 334.5,123C 331.633,123.801 328.966,123.634 326.5,122.5C 326.833,122.5 327.167,122.5 327.5,122.5C 331.616,122.459 335.616,121.793 339.5,120.5 Z"/></g>
<g><path style="opacity:1" fill="#403433" d="M 315.5,98.5 C 316.239,98.369 316.906,98.5357 317.5,99C 316.833,101 315.5,102.333 313.5,103C 310.118,103.824 306.784,103.657 303.5,102.5C 306.107,101.682 308.774,101.182 311.5,101C 313.066,100.392 314.4,99.5585 315.5,98.5 Z"/></g>
<g><path style="opacity:1" fill="#363233" d="M 307.5,83.5 C 309.924,83.1924 312.257,83.5258 314.5,84.5C 311.428,86.2724 308.095,87.439 304.5,88C 302.721,90.8932 300.388,92.0599 297.5,91.5C 299.776,87.3796 303.109,84.713 307.5,83.5 Z"/></g>
<g><path style="opacity:1" fill="#efbf6e" d="M 321.5,65.5 C 323.167,65.5 324.833,65.5 326.5,65.5C 326.5,66.8333 326.5,68.1667 326.5,69.5C 324.833,69.5 323.167,69.5 321.5,69.5C 321.5,68.1667 321.5,66.8333 321.5,65.5 Z"/></g>
<g><path style="opacity:1" fill="#be534f" d="M 371.5,166.5 C 371.833,166.5 372.167,166.5 372.5,166.5C 378.63,167.32 384.296,169.32 389.5,172.5C 390.526,175.372 392.193,177.872 394.5,180C 398.929,182.102 403.095,184.602 407,187.5C 411.004,197.535 415.004,207.535 419,217.5C 419.667,220.5 419.667,223.5 419,226.5C 415.36,234.528 413.86,242.861 414.5,251.5C 416.023,243.431 417.856,235.431 420,227.5C 422.133,229.933 423.3,232.767 423.5,236C 422.068,241.795 420.901,247.628 420,253.5C 418.989,254.337 417.822,254.67 416.5,254.5C 410.819,251.327 405.486,247.661 400.5,243.5C 400.44,242.957 400.107,242.624 399.5,242.5C 399.058,255.964 397.558,269.298 395,282.5C 394.181,288.681 394.347,294.681 395.5,300.5C 395.5,301.5 395.5,302.5 395.5,303.5C 395.5,303.833 395.5,304.167 395.5,304.5C 393.181,304.992 391.181,305.992 389.5,307.5C 387.859,308.147 386.526,309.147 385.5,310.5C 379.84,310.441 374.506,311.441 369.5,313.5C 363.016,314.66 357.016,316.993 351.5,320.5C 348.011,320.137 344.511,319.804 341,319.5C 335.569,320.821 330.069,321.488 324.5,321.5C 324.586,320.504 324.252,319.671 323.5,319C 321.402,318.322 319.402,318.489 317.5,319.5C 311.399,318.913 305.399,317.747 299.5,316C 298.944,315.617 298.611,315.117 298.5,314.5C 298.585,313.005 297.919,312.005 296.5,311.5C 294.958,312.747 293.458,312.747 292,311.5C 291.505,309.527 291.338,307.527 291.5,305.5C 293.428,299.932 295.761,294.599 298.5,289.5C 301.127,281.005 298.96,274.005 292,268.5C 291.53,267.423 291.697,266.423 292.5,265.5C 292.5,264.833 292.5,264.167 292.5,263.5C 296.385,257.329 296.385,250.996 292.5,244.5C 292.801,242.578 293.467,240.912 294.5,239.5C 295.777,238.306 296.444,236.64 296.5,234.5C 296.202,230.429 295.202,226.595 293.5,223C 294.432,218.52 294.599,214.02 294,209.5C 293.583,208.244 292.75,207.577 291.5,207.5C 290.225,204.396 290.225,201.396 291.5,198.5C 302.723,210.131 316.057,218.797 331.5,224.5C 336.323,234.303 339.323,244.636 340.5,255.5C 340.335,259.182 340.501,262.848 341,266.5C 342.116,269.561 342.949,272.728 343.5,276C 348.096,277.368 352.763,277.368 357.5,276C 359.455,275.047 361.122,273.713 362.5,272C 360.047,259.965 357.547,247.799 355,235.5C 352.871,230.946 351.038,226.28 349.5,221.5C 350.482,217.374 352.315,213.708 355,210.5C 355.316,206.065 356.483,201.898 358.5,198C 357.848,190.068 357.181,182.235 356.5,174.5C 356.5,173.833 356.5,173.167 356.5,172.5C 360.554,171.647 364.554,170.481 368.5,169C 369.078,167.583 370.078,166.75 371.5,166.5 Z"/></g>
<g><path style="opacity:1" fill="#473433" d="M 289.5,165.5 C 291.112,170.851 290.446,176.018 287.5,181C 287.808,182.459 288.475,183.626 289.5,184.5C 290.919,188.015 291.586,191.681 291.5,195.5C 291.5,196.5 291.5,197.5 291.5,198.5C 290.225,201.396 290.225,204.396 291.5,207.5C 289.702,201.579 288.869,195.246 289,188.5C 287.217,186.711 286.384,184.544 286.5,182C 287.91,176.514 288.91,171.014 289.5,165.5 Z"/></g>
<g><path style="opacity:1" fill="#242e36" d="M 248.5,124.5 C 250.5,124.5 251.5,125.5 251.5,127.5C 250.876,127.917 250.543,128.584 250.5,129.5C 252.562,131.36 253.895,133.694 254.5,136.5C 256.517,135.826 258.183,134.659 259.5,133C 260.793,132.51 262.127,132.343 263.5,132.5C 263.739,130.533 263.406,128.699 262.5,127C 263.527,126.487 264.527,125.987 265.5,125.5C 266.962,126.458 268.295,127.624 269.5,129C 271.247,129.352 272.914,129.852 274.5,130.5C 274.859,132.371 275.859,133.871 277.5,135C 276.944,135.383 276.611,135.883 276.5,136.5C 272.021,138.295 270.688,141.461 272.5,146C 276.92,146.768 281.253,146.602 285.5,145.5C 286.167,145.5 286.833,145.5 287.5,145.5C 289.162,149.446 289.496,153.446 288.5,157.5C 287.167,159.167 287.167,160.833 288.5,162.5C 289.11,163.391 289.443,164.391 289.5,165.5C 288.91,171.014 287.91,176.514 286.5,182C 286.384,184.544 287.217,186.711 289,188.5C 288.869,195.246 289.702,201.579 291.5,207.5C 292.749,212.496 292.749,217.496 291.5,222.5C 291.763,225.028 292.596,227.361 294,229.5C 294.498,232.817 294.665,236.15 294.5,239.5C 293.467,240.912 292.801,242.578 292.5,244.5C 296.385,250.996 296.385,257.329 292.5,263.5C 288.034,265.215 283.367,265.882 278.5,265.5C 278.167,264.5 277.5,263.833 276.5,263.5C 275.685,262.571 274.852,261.571 274,260.5C 273.667,255.167 273.333,249.833 273,244.5C 272.015,242.825 271.181,241.158 270.5,239.5C 270.666,233.824 270.499,228.157 270,222.5C 269.751,219.823 268.751,217.49 267,215.5C 266.502,212.183 266.335,208.85 266.5,205.5C 266.657,204.127 266.49,202.793 266,201.5C 264.088,199.343 262.421,197.009 261,194.5C 260.66,189.594 260.493,184.927 260.5,180.5C 252.894,172.876 251.561,164.21 256.5,154.5C 255.757,153.818 255.091,153.151 254.5,152.5C 254.573,150.973 253.906,149.973 252.5,149.5C 249.936,146.033 248.436,142.033 248,137.5C 247.585,133.152 247.751,128.819 248.5,124.5 Z"/></g>
<g><path style="opacity:1" fill="#b7836b" d="M 378.5,121.5 C 383.266,122.153 388.099,122.153 393,121.5C 398.385,122.065 403.552,123.399 408.5,125.5C 409.165,129.86 411.832,131.86 416.5,131.5C 420.376,133.574 422.543,136.907 423,141.5C 424.34,150.594 426.007,159.594 428,168.5C 439.303,185.146 450.637,201.812 462,218.5C 464.705,222.577 466.872,226.91 468.5,231.5C 470.185,239.423 470.685,247.423 470,255.5C 468.667,258.167 467.333,260.833 466,263.5C 464.447,265.694 462.281,266.86 459.5,267C 460.167,267.333 460.833,267.667 461.5,268C 455.209,269.83 448.876,269.996 442.5,268.5C 436.387,264.938 430.387,261.104 424.5,257C 421.749,256.057 419.083,255.224 416.5,254.5C 417.822,254.67 418.989,254.337 420,253.5C 420.901,247.628 422.068,241.795 423.5,236C 423.3,232.767 422.133,229.933 420,227.5C 417.856,235.431 416.023,243.431 414.5,251.5C 413.86,242.861 415.36,234.528 419,226.5C 419.667,223.5 419.667,220.5 419,217.5C 415.004,207.535 411.004,197.535 407,187.5C 403.095,184.602 398.929,182.102 394.5,180C 392.193,177.872 390.526,175.372 389.5,172.5C 393.574,176.062 398.074,179.062 403,181.5C 403.167,181.167 403.333,180.833 403.5,180.5C 400.558,173.007 398.224,165.341 396.5,157.5C 393.518,156.602 390.518,156.435 387.5,157C 385.535,155.544 384.201,153.71 383.5,151.5C 383.5,150.167 383.5,148.833 383.5,147.5C 383.196,144.478 382.696,141.478 382,138.5C 380.644,137.62 379.144,137.286 377.5,137.5C 377.889,140.553 377.223,143.22 375.5,145.5C 375.433,143.599 375.767,141.766 376.5,140C 376.252,138.251 375.252,137.418 373.5,137.5C 374.15,135.565 374.483,133.565 374.5,131.5C 380.113,132.921 382.28,130.921 381,125.5C 379.905,124.307 379.072,122.973 378.5,121.5 Z"/></g>
<g><path style="opacity:0.251" fill="#e0b7b6" d="M 247.5,189.5 C 245.54,191.156 243.54,192.823 241.5,194.5C 242.268,191.438 244.268,189.772 247.5,189.5 Z"/></g>
<g><path style="opacity:1" fill="#bd5450" d="M 260.5,180.5 C 260.493,184.927 260.66,189.594 261,194.5C 262.421,197.009 264.088,199.343 266,201.5C 266.49,202.793 266.657,204.127 266.5,205.5C 263.566,211.75 264.399,217.75 269,223.5C 269.173,229.016 269.673,234.349 270.5,239.5C 271.181,241.158 272.015,242.825 273,244.5C 273.333,249.833 273.667,255.167 274,260.5C 274.852,261.571 275.685,262.571 276.5,263.5C 277.038,265.117 277.371,266.784 277.5,268.5C 281.703,268.076 285.703,268.576 289.5,270C 285.063,270.517 281.063,271.683 277.5,273.5C 276.069,275.189 275.236,277.189 275,279.5C 274.391,284.861 274.558,290.195 275.5,295.5C 275.918,298.09 276.918,300.423 278.5,302.5C 276.741,303.754 275.241,303.421 274,301.5C 273.869,305.259 272.203,306.592 269,305.5C 267.663,294.801 265.496,284.468 262.5,274.5C 248.389,271.693 234.389,268.026 220.5,263.5C 219.511,259.893 219.177,256.226 219.5,252.5C 220.359,246.065 221.692,239.731 223.5,233.5C 225.04,231.162 225.706,228.495 225.5,225.5C 227.77,216.863 230.936,208.529 235,200.5C 236.872,198.153 239.039,196.153 241.5,194.5C 243.54,192.823 245.54,191.156 247.5,189.5C 252.008,186.747 256.341,183.747 260.5,180.5 Z"/></g>
<g><path style="opacity:1" fill="#df8568" d="M 354.5,172.5 C 355.167,172.5 355.833,172.5 356.5,172.5C 356.5,173.167 356.5,173.833 356.5,174.5C 356.666,182.174 356.5,189.841 356,197.5C 354.011,205.147 351.178,212.481 347.5,219.5C 354.331,236.493 358.164,254.159 359,272.5C 354.678,274.359 350.178,275.192 345.5,275C 344.116,268.343 342.449,261.843 340.5,255.5C 339.323,244.636 336.323,234.303 331.5,224.5C 316.057,218.797 302.723,210.131 291.5,198.5C 291.5,197.5 291.5,196.5 291.5,195.5C 297.635,199.987 303.301,205.154 308.5,211C 315.753,215.424 323.42,219.09 331.5,222C 334.913,226.661 337.413,231.828 339,237.5C 341.764,248.751 344.097,260.084 346,271.5C 346.388,272.428 347.055,273.095 348,273.5C 350.795,272.815 353.628,272.315 356.5,272C 357.081,271.107 357.415,270.107 357.5,269C 356.156,251.929 352.156,235.596 345.5,220C 346.887,215.718 348.72,211.551 351,207.5C 354.144,196.06 355.311,184.394 354.5,172.5 Z"/></g>
<g><path style="opacity:1" fill="#4d3034" d="M 266.5,205.5 C 266.335,208.85 266.502,212.183 267,215.5C 268.751,217.49 269.751,219.823 270,222.5C 270.499,228.157 270.666,233.824 270.5,239.5C 269.673,234.349 269.173,229.016 269,223.5C 264.399,217.75 263.566,211.75 266.5,205.5 Z"/></g>
<g><path style="opacity:1" fill="#bc574d" d="M 349.5,172.5 C 351.167,172.5 352.833,172.5 354.5,172.5C 355.311,184.394 354.144,196.06 351,207.5C 348.72,211.551 346.887,215.718 345.5,220C 352.156,235.596 356.156,251.929 357.5,269C 357.415,270.107 357.081,271.107 356.5,272C 353.628,272.315 350.795,272.815 348,273.5C 347.055,273.095 346.388,272.428 346,271.5C 344.097,260.084 341.764,248.751 339,237.5C 337.413,231.828 334.913,226.661 331.5,222C 323.42,219.09 315.753,215.424 308.5,211C 303.301,205.154 297.635,199.987 291.5,195.5C 291.586,191.681 290.919,188.015 289.5,184.5C 296.739,192.735 304.739,200.401 313.5,207.5C 317.343,209.54 321.009,211.707 324.5,214C 329.537,215.527 334.537,217.027 339.5,218.5C 339.491,216.692 339.991,215.025 341,213.5C 342.524,211.048 344.191,208.714 346,206.5C 349.214,195.422 350.381,184.089 349.5,172.5 Z"/></g>
<g><path style="opacity:1" fill="#a15154" d="M 291.5,207.5 C 292.75,207.577 293.583,208.244 294,209.5C 294.599,214.02 294.432,218.52 293.5,223C 295.202,226.595 296.202,230.429 296.5,234.5C 296.444,236.64 295.777,238.306 294.5,239.5C 294.665,236.15 294.498,232.817 294,229.5C 292.596,227.361 291.763,225.028 291.5,222.5C 292.749,217.496 292.749,212.496 291.5,207.5 Z"/></g>
<g><path style="opacity:1" fill="#be5c4a" d="M 356.5,174.5 C 357.181,182.235 357.848,190.068 358.5,198C 356.483,201.898 355.316,206.065 355,210.5C 352.315,213.708 350.482,217.374 349.5,221.5C 351.038,226.28 352.871,230.946 355,235.5C 357.547,247.799 360.047,259.965 362.5,272C 361.122,273.713 359.455,275.047 357.5,276C 352.763,277.368 348.096,277.368 343.5,276C 342.949,272.728 342.116,269.561 341,266.5C 340.501,262.848 340.335,259.182 340.5,255.5C 342.449,261.843 344.116,268.343 345.5,275C 350.178,275.192 354.678,274.359 359,272.5C 358.164,254.159 354.331,236.493 347.5,219.5C 351.178,212.481 354.011,205.147 356,197.5C 356.5,189.841 356.666,182.174 356.5,174.5 Z"/></g>
<g><path style="opacity:0.294" fill="#e0b3b0" d="M 225.5,225.5 C 225.706,228.495 225.04,231.162 223.5,233.5C 223.565,230.572 224.232,227.905 225.5,225.5 Z"/></g>
<g><path style="opacity:1" fill="#bd9888" d="M 468.5,231.5 C 476.246,244.623 474.913,256.789 464.5,268C 457.06,271.922 449.726,272.089 442.5,268.5C 448.876,269.996 455.209,269.83 461.5,268C 460.833,267.667 460.167,267.333 459.5,267C 462.281,266.86 464.447,265.694 466,263.5C 467.333,260.833 468.667,258.167 470,255.5C 470.685,247.423 470.185,239.423 468.5,231.5 Z"/></g>
<g><path style="opacity:1" fill="#572f30" d="M 292.5,263.5 C 292.5,264.167 292.5,264.833 292.5,265.5C 287.702,266.744 283.035,266.744 278.5,265.5C 283.367,265.882 288.034,265.215 292.5,263.5 Z"/></g>
<g><path style="opacity:1" fill="#d9826d" d="M 219.5,252.5 C 219.177,256.226 219.511,259.893 220.5,263.5C 234.389,268.026 248.389,271.693 262.5,274.5C 262.5,275.833 261.833,276.5 260.5,276.5C 246.323,272.672 231.99,269.005 217.5,265.5C 217.325,267.621 217.659,269.621 218.5,271.5C 216.278,271.441 215.278,270.275 215.5,268C 216.628,262.65 217.962,257.483 219.5,252.5 Z"/></g>
<g><path style="opacity:1" fill="#a15450" d="M 276.5,263.5 C 277.5,263.833 278.167,264.5 278.5,265.5C 283.035,266.744 287.702,266.744 292.5,265.5C 291.697,266.423 291.53,267.423 292,268.5C 298.96,274.005 301.127,281.005 298.5,289.5C 298.665,286.15 298.498,282.817 298,279.5C 296.311,277.24 295.144,274.74 294.5,272C 288.742,271.733 283.075,272.233 277.5,273.5C 281.063,271.683 285.063,270.517 289.5,270C 285.703,268.576 281.703,268.076 277.5,268.5C 277.371,266.784 277.038,265.117 276.5,263.5 Z"/></g>
<g><path style="opacity:1" fill="#bc534a" d="M 260.5,276.5 C 259.766,277.929 258.599,278.929 257,279.5C 245.876,277.173 234.709,275.173 223.5,273.5C 222.07,272.463 220.403,271.796 218.5,271.5C 217.659,269.621 217.325,267.621 217.5,265.5C 231.99,269.005 246.323,272.672 260.5,276.5 Z"/></g>
<g><path style="opacity:1" fill="#282d35" d="M 298.5,289.5 C 295.761,294.599 293.428,299.932 291.5,305.5C 290.579,306.981 289.412,308.314 288,309.5C 283.249,305.255 279.082,300.588 275.5,295.5C 274.558,290.195 274.391,284.861 275,279.5C 275.236,277.189 276.069,275.189 277.5,273.5C 283.075,272.233 288.742,271.733 294.5,272C 295.144,274.74 296.311,277.24 298,279.5C 298.498,282.817 298.665,286.15 298.5,289.5 Z"/></g>
<g><path style="opacity:1" fill="#b8836c" d="M 218.5,272.5 C 218.5,272.167 218.5,271.833 218.5,271.5C 220.403,271.796 222.07,272.463 223.5,273.5C 233.982,276.793 244.815,279.126 256,280.5C 258.178,280.605 260.012,279.939 261.5,278.5C 258.986,286.944 257.653,295.444 257.5,304C 260.117,304.822 262.784,305.322 265.5,305.5C 265.5,303.167 265.5,300.833 265.5,298.5C 265.959,301.49 266.959,304.323 268.5,307C 278.273,310.385 288.273,312.885 298.5,314.5C 298.611,315.117 298.944,315.617 299.5,316C 305.399,317.747 311.399,318.913 317.5,319.5C 312.498,326.395 311.165,334.062 313.5,342.5C 297.005,343.332 280.338,343.832 263.5,344C 281.005,344.829 298.338,344.662 315.5,343.5C 317.402,344.511 319.402,344.678 321.5,344C 316.962,337.59 316.296,330.757 319.5,323.5C 321.514,323.608 323.18,322.942 324.5,321.5C 330.069,321.488 335.569,320.821 341,319.5C 344.511,319.804 348.011,320.137 351.5,320.5C 351.611,321.117 351.944,321.617 352.5,322C 354,322.167 355.5,322.333 357,322.5C 359.957,322.307 362.457,321.307 364.5,319.5C 364.5,320.833 364.5,322.167 364.5,323.5C 369.82,323.426 371.82,326.093 370.5,331.5C 365.831,330.99 364.831,332.323 367.5,335.5C 365.804,335.315 364.471,334.481 363.5,333C 353.569,331.638 352.569,333.304 360.5,338C 364.226,339.436 367.893,340.936 371.5,342.5C 372.568,343.434 373.901,343.768 375.5,343.5C 376.263,344.268 377.263,344.768 378.5,345C 382.486,345.499 386.486,345.666 390.5,345.5C 390.5,346.5 390.5,347.5 390.5,348.5C 377.968,353.237 364.968,354.737 351.5,353C 345.1,351.645 339.1,349.312 333.5,346C 309.826,345.833 286.16,345.333 262.5,344.5C 262.291,343.914 261.957,343.414 261.5,343C 257.848,342.501 254.182,342.335 250.5,342.5C 249.571,341.685 248.571,340.852 247.5,340C 240.019,338.963 232.686,337.296 225.5,335C 223.395,333.665 222.729,331.998 223.5,330C 221.516,327.866 220.182,325.366 219.5,322.5C 222.063,318.192 222.063,313.858 219.5,309.5C 218.575,308.359 217.741,308.359 217,309.5C 216.867,298.186 218.034,287.019 220.5,276C 220.613,274.301 219.947,273.134 218.5,272.5 Z"/></g>
<g><path style="opacity:0.969" fill="#bb6f6c" d="M 400.5,243.5 C 399.593,247.324 399.593,251.324 400.5,255.5C 398.924,270.526 397.258,285.526 395.5,300.5C 394.347,294.681 394.181,288.681 395,282.5C 397.558,269.298 399.058,255.964 399.5,242.5C 400.107,242.624 400.44,242.957 400.5,243.5 Z"/></g>
<g><path style="opacity:1" fill="#e89b6d" d="M 431.5,307.5 C 431.5,310.5 431.5,313.5 431.5,316.5C 436.167,316.5 440.833,316.5 445.5,316.5C 446.492,316.328 447.158,316.662 447.5,317.5C 441.833,317.5 436.167,317.5 430.5,317.5C 430.665,314.15 430.498,310.817 430,307.5C 429.097,306.299 427.931,305.465 426.5,305C 422.884,303.872 419.217,303.038 415.5,302.5C 408.855,303.449 402.189,304.116 395.5,304.5C 395.5,304.167 395.5,303.833 395.5,303.5C 405.442,299.895 415.442,299.729 425.5,303C 428.106,303.792 430.106,305.292 431.5,307.5 Z"/></g>
<g><path style="opacity:1" fill="#b75c56" d="M 223.5,273.5 C 234.709,275.173 245.876,277.173 257,279.5C 258.599,278.929 259.766,277.929 260.5,276.5C 261.833,276.5 262.5,275.833 262.5,274.5C 265.496,284.468 267.663,294.801 269,305.5C 272.203,306.592 273.869,305.259 274,301.5C 275.241,303.421 276.741,303.754 278.5,302.5C 276.918,300.423 275.918,298.09 275.5,295.5C 279.082,300.588 283.249,305.255 288,309.5C 289.412,308.314 290.579,306.981 291.5,305.5C 291.338,307.527 291.505,309.527 292,311.5C 293.458,312.747 294.958,312.747 296.5,311.5C 297.919,312.005 298.585,313.005 298.5,314.5C 288.273,312.885 278.273,310.385 268.5,307C 266.959,304.323 265.959,301.49 265.5,298.5C 264.811,291.721 263.478,285.054 261.5,278.5C 260.012,279.939 258.178,280.605 256,280.5C 244.815,279.126 233.982,276.793 223.5,273.5 Z"/></g>
<g><path style="opacity:1" fill="#f8c39f" d="M 394.5,310.5 C 394.557,309.391 394.89,308.391 395.5,307.5C 396.167,307.5 396.833,307.5 397.5,307.5C 400.85,307.386 404.183,307.053 407.5,306.5C 410.331,306.541 412.998,307.208 415.5,308.5C 408.721,309.004 402.054,310.004 395.5,311.5C 394.893,311.376 394.56,311.043 394.5,310.5 Z"/></g>
<g><path style="opacity:1" fill="#f2b1a1" d="M 385.5,310.5 C 385.5,311.167 385.5,311.833 385.5,312.5C 381.5,312.833 377.5,313.167 373.5,313.5C 372.167,313.5 370.833,313.5 369.5,313.5C 374.506,311.441 379.84,310.441 385.5,310.5 Z"/></g>
<g><path style="opacity:1" fill="#e87739" d="M 383.5,329.5 C 384.5,329.5 385.5,329.5 386.5,329.5C 389.304,330.638 392.304,330.805 395.5,330C 396.973,329.29 397.64,328.124 397.5,326.5C 392.125,326.828 386.792,326.495 381.5,325.5C 381.709,324.914 382.043,324.414 382.5,324C 385.914,323.703 389.247,323.036 392.5,322C 388.489,322.185 386.489,320.352 386.5,316.5C 381.348,316.827 376.514,318.16 372,320.5C 371.5,320.167 371,319.833 370.5,319.5C 372.277,318.099 373.944,316.599 375.5,315C 379.179,314.974 382.512,314.14 385.5,312.5C 385.5,311.833 385.5,311.167 385.5,310.5C 386.526,309.147 387.859,308.147 389.5,307.5C 390.931,307.881 391.764,308.881 392,310.5C 392.759,308.937 393.926,307.937 395.5,307.5C 394.89,308.391 394.557,309.391 394.5,310.5C 393.249,311.472 393.582,312.139 395.5,312.5C 402.193,309.889 408.86,309.889 415.5,312.5C 411.616,313.841 407.616,314.675 403.5,315C 402.167,315.667 402.167,316.333 403.5,317C 408.768,317.036 413.768,315.869 418.5,313.5C 419.429,312.311 419.762,310.978 419.5,309.5C 419.5,308.5 419.5,307.5 419.5,306.5C 420.833,306.5 422.167,306.5 423.5,306.5C 422.28,309.691 421.447,313.025 421,316.5C 415.8,319.615 410.133,321.281 404,321.5C 399.481,320.125 395.314,318.125 391.5,315.5C 391.312,317.103 391.812,318.437 393,319.5C 393.333,319.167 393.667,318.833 394,318.5C 398.985,323.137 404.818,324.471 411.5,322.5C 413.213,329.148 411.547,330.481 406.5,326.5C 397.591,333.554 387.591,335.387 376.5,332C 379.031,331.552 381.364,330.719 383.5,329.5 Z"/></g>
<g><path style="opacity:1" fill="#eb9a65" d="M 419.5,309.5 C 419.762,310.978 419.429,312.311 418.5,313.5C 413.768,315.869 408.768,317.036 403.5,317C 402.167,316.333 402.167,315.667 403.5,315C 407.616,314.675 411.616,313.841 415.5,312.5C 408.86,309.889 402.193,309.889 395.5,312.5C 393.582,312.139 393.249,311.472 394.5,310.5C 394.56,311.043 394.893,311.376 395.5,311.5C 402.054,310.004 408.721,309.004 415.5,308.5C 412.998,307.208 410.331,306.541 407.5,306.5C 404.183,307.053 400.85,307.386 397.5,307.5C 400.58,306.217 403.914,305.55 407.5,305.5C 411.163,305.944 414.829,306.278 418.5,306.5C 418.263,307.791 418.596,308.791 419.5,309.5 Z"/></g>
<g><path style="opacity:1" fill="#bc9280" d="M 218.5,272.5 C 219.947,273.134 220.613,274.301 220.5,276C 218.034,287.019 216.867,298.186 217,309.5C 217.741,308.359 218.575,308.359 219.5,309.5C 222.063,313.858 222.063,318.192 219.5,322.5C 220.182,325.366 221.516,327.866 223.5,330C 222.729,331.998 223.395,333.665 225.5,335C 232.686,337.296 240.019,338.963 247.5,340C 248.571,340.852 249.571,341.685 250.5,342.5C 242.279,342.185 234.279,340.685 226.5,338C 222.023,335.68 218.856,332.18 217,327.5C 215.804,322.406 214.97,317.239 214.5,312C 215.225,298.764 216.558,285.597 218.5,272.5 Z"/></g>
<g><path style="opacity:1" fill="#ecb592" d="M 431.5,307.5 C 432.338,307.842 432.672,308.508 432.5,309.5C 432.5,311.5 432.5,313.5 432.5,315.5C 437.032,315.182 441.366,315.515 445.5,316.5C 440.833,316.5 436.167,316.5 431.5,316.5C 431.5,313.5 431.5,310.5 431.5,307.5 Z"/></g>
<g><path style="opacity:1" fill="#f6e2de" d="M 369.5,313.5 C 370.833,313.5 372.167,313.5 373.5,313.5C 370.328,315.252 367.328,317.252 364.5,319.5C 362.457,321.307 359.957,322.307 357,322.5C 355.5,322.333 354,322.167 352.5,322C 351.944,321.617 351.611,321.117 351.5,320.5C 357.016,316.993 363.016,314.66 369.5,313.5 Z"/></g>
<g><path style="opacity:0.999" fill="#f4f0ee" d="M 432.5,309.5 C 433.261,310.391 434.261,311.058 435.5,311.5C 445.001,312.967 454.334,315.133 463.5,318C 466.63,320.128 469.463,322.628 472,325.5C 472.885,328.538 472.385,331.205 470.5,333.5C 470.44,332.957 470.107,332.624 469.5,332.5C 463.93,337.086 457.596,340.253 450.5,342C 425.583,347.263 400.583,347.763 375.5,343.5C 373.901,343.768 372.568,343.434 371.5,342.5C 371.5,341.5 371.5,340.5 371.5,339.5C 389.718,342.283 408.051,343.116 426.5,342C 425.944,341.617 425.611,341.117 425.5,340.5C 433.168,342.14 440.501,341.473 447.5,338.5C 450.216,338.322 452.883,337.822 455.5,337C 457.629,334.668 460.296,333.168 463.5,332.5C 464.738,329.832 464.738,327.166 463.5,324.5C 460.607,322.555 457.607,320.889 454.5,319.5C 452.167,318.833 449.833,318.167 447.5,317.5C 447.158,316.662 446.492,316.328 445.5,316.5C 441.366,315.515 437.032,315.182 432.5,315.5C 432.5,313.5 432.5,311.5 432.5,309.5 Z"/></g>
<g><path style="opacity:1" fill="#e1cec3" d="M 454.5,319.5 C 457.607,320.889 460.607,322.555 463.5,324.5C 464.738,327.166 464.738,329.832 463.5,332.5C 460.296,333.168 457.629,334.668 455.5,337C 452.883,337.822 450.216,338.322 447.5,338.5C 454.379,336.15 457.879,331.483 458,324.5C 457.003,322.677 455.836,321.01 454.5,319.5 Z"/></g>
<g><path style="opacity:1" fill="#eb8043" d="M 447.5,317.5 C 449.833,318.167 452.167,318.833 454.5,319.5C 455.836,321.01 457.003,322.677 458,324.5C 457.879,331.483 454.379,336.15 447.5,338.5C 442.793,338.316 438.293,338.982 434,340.5C 431.152,340.202 428.319,339.869 425.5,339.5C 420.579,338.789 415.912,337.455 411.5,335.5C 411.582,333.748 410.749,332.748 409,332.5C 406.174,335.156 403.007,337.156 399.5,338.5C 391.677,339.656 383.677,339.823 375.5,339C 372.878,337.525 370.212,336.359 367.5,335.5C 364.831,332.323 365.831,330.99 370.5,331.5C 371.82,326.093 369.82,323.426 364.5,323.5C 364.5,322.167 364.5,320.833 364.5,319.5C 367.328,317.252 370.328,315.252 373.5,313.5C 377.5,313.167 381.5,312.833 385.5,312.5C 382.512,314.14 379.179,314.974 375.5,315C 373.944,316.599 372.277,318.099 370.5,319.5C 371,319.833 371.5,320.167 372,320.5C 376.514,318.16 381.348,316.827 386.5,316.5C 386.489,320.352 388.489,322.185 392.5,322C 389.247,323.036 385.914,323.703 382.5,324C 382.043,324.414 381.709,324.914 381.5,325.5C 386.792,326.495 392.125,326.828 397.5,326.5C 397.64,328.124 396.973,329.29 395.5,330C 392.304,330.805 389.304,330.638 386.5,329.5C 389.722,329.892 392.722,329.392 395.5,328C 393.5,327.833 391.5,327.667 389.5,327.5C 387.048,327.539 385.048,328.206 383.5,329.5C 381.364,330.719 379.031,331.552 376.5,332C 387.591,335.387 397.591,333.554 406.5,326.5C 411.547,330.481 413.213,329.148 411.5,322.5C 404.818,324.471 398.985,323.137 394,318.5C 393.667,318.833 393.333,319.167 393,319.5C 391.812,318.437 391.312,317.103 391.5,315.5C 395.314,318.125 399.481,320.125 404,321.5C 410.133,321.281 415.8,319.615 421,316.5C 421.447,313.025 422.28,309.691 423.5,306.5C 422.167,306.5 420.833,306.5 419.5,306.5C 419.5,307.5 419.5,308.5 419.5,309.5C 418.596,308.791 418.263,307.791 418.5,306.5C 414.829,306.278 411.163,305.944 407.5,305.5C 403.914,305.55 400.58,306.217 397.5,307.5C 396.833,307.5 396.167,307.5 395.5,307.5C 393.926,307.937 392.759,308.937 392,310.5C 391.764,308.881 390.931,307.881 389.5,307.5C 391.181,305.992 393.181,304.992 395.5,304.5C 402.189,304.116 408.855,303.449 415.5,302.5C 419.217,303.038 422.884,303.872 426.5,305C 427.931,305.465 429.097,306.299 430,307.5C 430.498,310.817 430.665,314.15 430.5,317.5C 436.167,317.5 441.833,317.5 447.5,317.5 Z"/></g>
<g><path style="opacity:1" fill="#f4b895" d="M 426.5,323.5 C 428.199,323.34 429.866,323.506 431.5,324C 429.939,324.941 428.605,326.108 427.5,327.5C 432.894,328.26 438.227,328.593 443.5,328.5C 438.895,331.298 433.895,332.131 428.5,331C 424.115,329.413 423.448,326.913 426.5,323.5 Z"/></g>
<g><path style="opacity:1" fill="#efbea0" d="M 386.5,329.5 C 385.5,329.5 384.5,329.5 383.5,329.5C 385.048,328.206 387.048,327.539 389.5,327.5C 391.5,327.667 393.5,327.833 395.5,328C 392.722,329.392 389.722,329.892 386.5,329.5 Z"/></g>
<g><path style="opacity:1" fill="#e3a383" d="M 411.5,335.5 C 410.735,335.077 409.902,334.743 409,334.5C 406.365,337.067 403.198,338.4 399.5,338.5C 403.007,337.156 406.174,335.156 409,332.5C 410.749,332.748 411.582,333.748 411.5,335.5 Z"/></g>
<g><path style="opacity:1" fill="#eab05b" d="M 324.5,321.5 C 323.18,322.942 321.514,323.608 319.5,323.5C 316.296,330.757 316.962,337.59 321.5,344C 319.402,344.678 317.402,344.511 315.5,343.5C 314.833,343.167 314.167,342.833 313.5,342.5C 311.165,334.062 312.498,326.395 317.5,319.5C 319.402,318.489 321.402,318.322 323.5,319C 324.252,319.671 324.586,320.504 324.5,321.5 Z"/></g>
<g><path style="opacity:1" fill="#e9d9d0" d="M 367.5,335.5 C 370.212,336.359 372.878,337.525 375.5,339C 383.677,339.823 391.677,339.656 399.5,338.5C 403.198,338.4 406.365,337.067 409,334.5C 409.902,334.743 410.735,335.077 411.5,335.5C 415.912,337.455 420.579,338.789 425.5,339.5C 425.5,339.833 425.5,340.167 425.5,340.5C 425.611,341.117 425.944,341.617 426.5,342C 408.051,343.116 389.718,342.283 371.5,339.5C 371.5,340.5 371.5,341.5 371.5,342.5C 367.893,340.936 364.226,339.436 360.5,338C 352.569,333.304 353.569,331.638 363.5,333C 364.471,334.481 365.804,335.315 367.5,335.5 Z"/></g>
<g><path style="opacity:1" fill="#e79d73" d="M 447.5,338.5 C 440.501,341.473 433.168,342.14 425.5,340.5C 425.5,340.167 425.5,339.833 425.5,339.5C 428.319,339.869 431.152,340.202 434,340.5C 438.293,338.982 442.793,338.316 447.5,338.5 Z"/></g>
<g><path style="opacity:0.906" fill="#a7504b" d="M 313.5,342.5 C 314.167,342.833 314.833,343.167 315.5,343.5C 298.338,344.662 281.005,344.829 263.5,344C 280.338,343.832 297.005,343.332 313.5,342.5 Z"/></g>
<g><path style="opacity:0.459" fill="#dbd9d7" d="M 470.5,333.5 C 468.763,335.55 466.763,337.383 464.5,339C 450.983,344.17 436.983,347.17 422.5,348C 411.734,348.337 401.067,348.504 390.5,348.5C 390.5,347.5 390.5,346.5 390.5,345.5C 386.486,345.666 382.486,345.499 378.5,345C 377.263,344.768 376.263,344.268 375.5,343.5C 400.583,347.763 425.583,347.263 450.5,342C 457.596,340.253 463.93,337.086 469.5,332.5C 470.107,332.624 470.44,332.957 470.5,333.5 Z"/></g>
</svg>
