<?xml version="1.0" encoding="UTF-8"?>
<!DOCTYPE svg PUBLIC "-//W3C//DTD SVG 1.1//EN" "http://www.w3.org/Graphics/SVG/1.1/DTD/svg11.dtd">
<svg xmlns="http://www.w3.org/2000/svg" version="1.1" width="691px" height="361px" style="shape-rendering:geometricPrecision; text-rendering:geometricPrecision; image-rendering:optimizeQuality; fill-rule:evenodd; clip-rule:evenodd" xmlns:xlink="http://www.w3.org/1999/xlink">
<g><path style="opacity:0.847" fill="#5a6065" d="M 369.5,40.5 C 366.315,40.0196 363.481,40.6863 361,42.5C 360,41.8333 359,41.1667 358,40.5C 356.599,42.1922 354.766,42.8588 352.5,42.5C 357.854,38.4372 363.521,37.7706 369.5,40.5 Z"/></g>
<g><path style="opacity:1" fill="#232d35" d="M 369.5,40.5 C 373.933,41.2145 377.6,43.2145 380.5,46.5C 380.738,48.4044 381.738,49.7377 383.5,50.5C 384.338,50.8417 384.672,51.5084 384.5,52.5C 385.167,53.1667 385.833,53.8333 386.5,54.5C 385.475,54.8966 385.308,55.5632 386,56.5C 386.995,55.9341 387.828,55.2674 388.5,54.5C 390.099,54.2322 391.432,54.5655 392.5,55.5C 393.287,57.1042 394.62,57.7709 396.5,57.5C 398.185,58.015 399.018,60.015 399,63.5C 400.145,63.3809 401.312,63.0476 402.5,62.5C 402.833,63.1667 403.167,63.8333 403.5,64.5C 404.956,66.2845 405.956,68.2845 406.5,70.5C 405.903,70.7352 405.57,71.2352 405.5,72C 406.824,75.1613 409.157,76.9947 412.5,77.5C 414.411,78.075 416.078,79.075 417.5,80.5C 418.412,82.5952 419.579,84.5952 421,86.5C 421.579,85.0715 421.412,83.7382 420.5,82.5C 420.5,81.8333 420.5,81.1667 420.5,80.5C 420.328,79.5084 420.662,78.8417 421.5,78.5C 422.344,82.0991 422.677,85.7657 422.5,89.5C 423.768,95.8276 423.768,102.161 422.5,108.5C 422.167,109.833 421.833,111.167 421.5,112.5C 420.026,113.436 419.026,114.77 418.5,116.5C 418.179,117.817 417.846,119.151 417.5,120.5C 419.195,123.035 420.695,125.702 422,128.5C 423.953,136.141 421.453,141.474 414.5,144.5C 413.678,146.139 413.011,147.805 412.5,149.5C 411.167,150.167 410.167,151.167 409.5,152.5C 407.824,153.183 407.157,154.517 407.5,156.5C 405.209,161.484 401.209,163.651 395.5,163C 394.915,164.302 394.249,165.469 393.5,166.5C 392.167,166.5 390.833,166.5 389.5,166.5C 389.347,160.131 389.68,153.797 390.5,147.5C 394.666,148.056 398.332,147.056 401.5,144.5C 404.05,144.439 405.55,143.106 406,140.5C 407.289,134.912 407.789,129.245 407.5,123.5C 403.626,122.239 399.626,121.572 395.5,121.5C 395.33,120.178 395.663,119.011 396.5,118C 400.094,117.793 403.594,118.293 407,119.5C 407.667,118.5 407.667,117.5 407,116.5C 404.286,114.964 401.453,113.63 398.5,112.5C 390.968,115.829 386.634,113.329 385.5,105C 386.258,103.636 385.758,102.469 384,101.5C 383.667,101.833 383.333,102.167 383,102.5C 382.626,101.584 382.126,100.75 381.5,100C 382.76,98.887 383.927,98.7203 385,99.5C 387.363,95.6737 386.197,94.007 381.5,94.5C 381.34,92.8008 381.506,91.1341 382,89.5C 382.85,88.5761 383.85,88.5761 385,89.5C 386.171,88.6604 387.338,87.8271 388.5,87C 386.998,86.4169 385.665,85.5836 384.5,84.5C 386.465,83.7078 388.465,83.0412 390.5,82.5C 391.833,81.8333 391.833,81.1667 390.5,80.5C 387.378,82.1167 384.878,81.4501 383,78.5C 381.956,79.6226 381.29,80.9559 381,82.5C 380,82.8333 379,83.1667 378,83.5C 377.801,81.5975 376.967,80.0975 375.5,79C 371.459,78.8265 367.459,78.3265 363.5,77.5C 363.291,76.914 362.957,76.414 362.5,76C 358.848,75.5014 355.182,75.3347 351.5,75.5C 351.167,77.5 350.833,79.5 350.5,81.5C 348.774,81.1854 347.107,81.0187 345.5,81C 346.38,82.3561 346.714,83.8561 346.5,85.5C 344.856,85.2865 343.356,85.6198 342,86.5C 341.517,85.552 341.351,84.552 341.5,83.5C 339.396,83.7989 337.396,83.4656 335.5,82.5C 337.272,81.7303 338.272,80.3969 338.5,78.5C 337.023,76.361 336.023,74.0277 335.5,71.5C 336.833,71.5 338.167,71.5 339.5,71.5C 339.72,68.5995 339.054,65.9329 337.5,63.5C 336.296,68.8318 332.963,70.6652 327.5,69C 324.711,67.1144 322.044,65.2811 319.5,63.5C 319.351,62.448 319.517,61.448 320,60.5C 324.214,58.4929 325.048,55.8262 322.5,52.5C 327.109,52.4424 331.775,52.1091 336.5,51.5C 335.289,50.2798 335.289,49.1131 336.5,48C 334.324,47.8371 332.491,47.0037 331,45.5C 330.667,46.1667 330.333,46.8333 330,47.5C 326.64,45.9298 323.14,44.9298 319.5,44.5C 328.202,43.9077 336.702,44.9077 345,47.5C 347.389,45.6006 349.889,43.9339 352.5,42.5C 354.766,42.8588 356.599,42.1922 358,40.5C 359,41.1667 360,41.8333 361,42.5C 363.481,40.6863 366.315,40.0196 369.5,40.5 Z M 386.5,54.5 C 387.167,54.5 387.833,54.5 388.5,54.5C 387.828,55.2674 386.995,55.9341 386,56.5C 385.308,55.5632 385.475,54.8966 386.5,54.5 Z"/></g>
<g><path style="opacity:1" fill="#242c34" d="M 319.5,44.5 C 323.14,44.9298 326.64,45.9298 330,47.5C 330.333,46.8333 330.667,46.1667 331,45.5C 332.491,47.0037 334.324,47.8371 336.5,48C 335.289,49.1131 335.289,50.2798 336.5,51.5C 331.775,52.1091 327.109,52.4424 322.5,52.5C 325.048,55.8262 324.214,58.4929 320,60.5C 319.517,61.448 319.351,62.448 319.5,63.5C 322.044,65.2811 324.711,67.1144 327.5,69C 332.963,70.6652 336.296,68.8318 337.5,63.5C 339.054,65.9329 339.72,68.5995 339.5,71.5C 338.167,71.5 336.833,71.5 335.5,71.5C 336.023,74.0277 337.023,76.361 338.5,78.5C 338.272,80.3969 337.272,81.7303 335.5,82.5C 337.396,83.4656 339.396,83.7989 341.5,83.5C 341.351,84.552 341.517,85.552 342,86.5C 343.356,85.6198 344.856,85.2865 346.5,85.5C 346.714,83.8561 346.38,82.3561 345.5,81C 347.107,81.0187 348.774,81.1854 350.5,81.5C 350.833,79.5 351.167,77.5 351.5,75.5C 355.182,75.3347 358.848,75.5014 362.5,76C 362.957,76.414 363.291,76.914 363.5,77.5C 367.459,78.3265 371.459,78.8265 375.5,79C 376.967,80.0975 377.801,81.5975 378,83.5C 379,83.1667 380,82.8333 381,82.5C 381.29,80.9559 381.956,79.6226 383,78.5C 384.878,81.4501 387.378,82.1167 390.5,80.5C 391.833,81.1667 391.833,81.8333 390.5,82.5C 388.465,83.0412 386.465,83.7078 384.5,84.5C 385.665,85.5836 386.998,86.4169 388.5,87C 387.338,87.8271 386.171,88.6604 385,89.5C 383.85,88.5761 382.85,88.5761 382,89.5C 381.506,91.1341 381.34,92.8008 381.5,94.5C 386.197,94.007 387.363,95.6737 385,99.5C 383.927,98.7203 382.76,98.887 381.5,100C 382.126,100.75 382.626,101.584 383,102.5C 383.333,102.167 383.667,101.833 384,101.5C 385.758,102.469 386.258,103.636 385.5,105C 386.634,113.329 390.968,115.829 398.5,112.5C 401.453,113.63 404.286,114.964 407,116.5C 407.667,117.5 407.667,118.5 407,119.5C 403.594,118.293 400.094,117.793 396.5,118C 395.663,119.011 395.33,120.178 395.5,121.5C 399.626,121.572 403.626,122.239 407.5,123.5C 407.789,129.245 407.289,134.912 406,140.5C 405.55,143.106 404.05,144.439 401.5,144.5C 405.292,139.118 406.459,133.118 405,126.5C 403.406,124.703 401.406,123.703 399,123.5C 395.765,124.426 392.765,125.759 390,127.5C 387.485,127.158 385.652,125.825 384.5,123.5C 383.667,117.509 383.5,111.509 384,105.5C 377.431,98.566 374.264,90.2327 374.5,80.5C 370.102,80.7059 365.768,80.3726 361.5,79.5C 358.56,78.1701 355.56,78.3367 352.5,80C 350.257,84.2475 347.257,87.9142 343.5,91C 336.822,91.2203 330.155,91.2203 323.5,91C 318.322,99.1682 319.989,101.668 328.5,98.5C 329.833,98.8333 331.167,99.1667 332.5,99.5C 332.5,100.167 332.5,100.833 332.5,101.5C 332.167,101.5 331.833,101.5 331.5,101.5C 327.521,102.497 323.521,103.497 319.5,104.5C 318.603,105.598 317.77,105.598 317,104.5C 316.026,106.878 315.359,106.544 315,103.5C 314.667,104.167 314.333,104.833 314,105.5C 313.759,102.711 313.092,100.044 312,97.5C 310.951,99.1066 309.451,99.7733 307.5,99.5C 307.5,98.1667 307.5,96.8333 307.5,95.5C 303.63,96.799 299.63,97.4657 295.5,97.5C 296.165,100.888 295.165,101.888 292.5,100.5C 289.78,102.23 287.113,103.23 284.5,103.5C 283.833,102.167 283.167,100.833 282.5,99.5C 282.646,95.4809 282.979,91.4809 283.5,87.5C 285.638,78.6932 290.972,72.6932 299.5,69.5C 297.128,57.7853 301.462,49.6186 312.5,45C 314.81,44.5034 317.143,44.3367 319.5,44.5 Z"/></g>
<g><path style="opacity:0.208" fill="#a0a6ab" d="M 380.5,46.5 C 382.262,47.2623 383.262,48.5956 383.5,50.5C 381.738,49.7377 380.738,48.4044 380.5,46.5 Z"/></g>
<g><path style="opacity:0.075" fill="#d0d6da" d="M 402.5,62.5 C 402.833,62.5 403.167,62.5 403.5,62.5C 404.833,63.1667 404.833,63.8333 403.5,64.5C 403.167,63.8333 402.833,63.1667 402.5,62.5 Z"/></g>
<g><path style="opacity:0.345" fill="#494f53" d="M 406.5,70.5 C 405.956,68.2845 404.956,66.2845 403.5,64.5C 404.833,63.8333 404.833,63.1667 403.5,62.5C 403.167,61.1667 402.833,61.1667 402.5,62.5C 401.312,63.0476 400.145,63.3809 399,63.5C 399.018,60.015 398.185,58.015 396.5,57.5C 394.62,57.7709 393.287,57.1042 392.5,55.5C 396.292,55.9795 399.459,57.6462 402,60.5C 401.743,57.2253 399.91,55.0587 396.5,54C 393.633,53.1993 390.966,53.3659 388.5,54.5C 387.833,54.5 387.167,54.5 386.5,54.5C 385.833,53.8333 385.167,53.1667 384.5,52.5C 400.482,48.1413 407.816,54.1413 406.5,70.5 Z"/></g>
<g><path style="opacity:0.592" fill="#676c6f" d="M 406.5,70.5 C 409.641,71.3213 412.975,71.8213 416.5,72C 418.79,73.7772 420.457,75.9438 421.5,78.5C 420.662,78.8417 420.328,79.5084 420.5,80.5C 417.831,78.0011 414.998,75.6677 412,73.5C 411.25,74.1258 410.416,74.6258 409.5,75C 410.942,75.3768 411.942,76.2101 412.5,77.5C 409.157,76.9947 406.824,75.1613 405.5,72C 405.57,71.2352 405.903,70.7352 406.5,70.5 Z"/></g>
<g><path style="opacity:0.031" fill="#a4a6aa" d="M 417.5,80.5 C 418.5,81.1667 419.5,81.8333 420.5,82.5C 421.412,83.7382 421.579,85.0715 421,86.5C 419.579,84.5952 418.412,82.5952 417.5,80.5 Z"/></g>
<g><path style="opacity:0.082" fill="#92949a" d="M 283.5,87.5 C 282.979,91.4809 282.646,95.4809 282.5,99.5C 281.177,95.4023 281.511,91.4023 283.5,87.5 Z"/></g>
<g><path style="opacity:0.508" fill="#6d7276" d="M 422.5,89.5 C 423.991,92.1864 424.657,95.1864 424.5,98.5C 424.602,102.117 423.935,105.45 422.5,108.5C 423.768,102.161 423.768,95.8276 422.5,89.5 Z"/></g>
<g><path style="opacity:1" fill="#242d34" d="M 319.5,104.5 C 317.648,120.095 317.148,135.762 318,151.5C 318.902,153.927 319.736,156.26 320.5,158.5C 320.5,159.5 320.5,160.5 320.5,161.5C 318.833,161.5 317.167,161.5 315.5,161.5C 310.392,159.74 305.059,158.573 299.5,158C 302.3,156.768 305.3,156.101 308.5,156C 307.922,154.583 306.922,153.75 305.5,153.5C 304.974,151.77 303.974,150.436 302.5,149.5C 301.434,147.299 300.767,144.965 300.5,142.5C 300.723,139.216 301.39,136.049 302.5,133C 300.808,131.599 300.141,129.766 300.5,127.5C 302.583,123.067 301.249,120.067 296.5,118.5C 295.5,117.833 294.5,117.167 293.5,116.5C 291.734,113.792 289.401,111.792 286.5,110.5C 286.167,109.833 285.833,109.167 285.5,108.5C 285.371,106.784 285.038,105.117 284.5,103.5C 287.113,103.23 289.78,102.23 292.5,100.5C 295.165,101.888 296.165,100.888 295.5,97.5C 299.63,97.4657 303.63,96.799 307.5,95.5C 307.5,96.8333 307.5,98.1667 307.5,99.5C 309.451,99.7733 310.951,99.1066 312,97.5C 313.092,100.044 313.759,102.711 314,105.5C 314.333,104.833 314.667,104.167 315,103.5C 315.359,106.544 316.026,106.878 317,104.5C 317.77,105.598 318.603,105.598 319.5,104.5 Z"/></g>
<g><path style="opacity:0.42" fill="#7f8589" d="M 282.5,99.5 C 283.167,100.833 283.833,102.167 284.5,103.5C 285.038,105.117 285.371,106.784 285.5,108.5C 283.132,106.044 282.132,103.044 282.5,99.5 Z"/></g>
<g><path style="opacity:1" fill="#ad826f" d="M 361.5,79.5 C 356.475,79.5466 352.808,81.7132 350.5,86C 352.478,88.9969 354.645,89.1636 357,86.5C 358.645,86.6932 360.479,86.8598 362.5,87C 364.422,88.46 365.089,90.1267 364.5,92C 366.5,93 368.5,94 370.5,95C 369.663,96.0113 369.33,97.1779 369.5,98.5C 372.243,98.0772 373.576,99.2439 373.5,102C 373.438,105.763 371.772,106.929 368.5,105.5C 368.167,106 367.833,106.5 367.5,107C 368.429,108.077 369.096,109.244 369.5,110.5C 365.608,108.466 361.608,108.133 357.5,109.5C 356.323,107.897 356.489,106.564 358,105.5C 360.381,106.435 362.881,106.768 365.5,106.5C 365.5,105.5 365.5,104.5 365.5,103.5C 362.475,103.123 359.475,102.956 356.5,103C 354.781,104.87 353.781,107.037 353.5,109.5C 348.829,108.649 345.829,110.316 344.5,114.5C 344.657,113.127 344.49,111.793 344,110.5C 341.235,117.651 338.402,124.651 335.5,131.5C 335.38,130.414 334.713,129.747 333.5,129.5C 328.836,131.78 326.503,130.447 326.5,125.5C 324.076,125.192 321.743,125.526 319.5,126.5C 321.903,128.867 321.736,131.2 319,133.5C 318.501,138.823 318.334,144.156 318.5,149.5C 319.833,149.5 321.167,149.5 322.5,149.5C 322.5,151.5 322.5,153.5 322.5,155.5C 323.873,155.657 325.207,155.49 326.5,155C 328.364,151.302 331.364,149.468 335.5,149.5C 335.611,150.117 335.944,150.617 336.5,151C 340.486,151.499 344.486,151.666 348.5,151.5C 344.1,152.823 339.6,152.823 335,151.5C 333.852,155.547 335.352,157.547 339.5,157.5C 339.389,158.117 339.056,158.617 338.5,159C 340.382,159.198 342.048,159.698 343.5,160.5C 335.827,159.888 328.16,159.222 320.5,158.5C 319.736,156.26 318.902,153.927 318,151.5C 317.148,135.762 317.648,120.095 319.5,104.5C 323.521,103.497 327.521,102.497 331.5,101.5C 331.281,102.675 331.614,103.675 332.5,104.5C 337.495,107.887 342.828,108.387 348.5,106C 352.036,104.071 355.369,101.904 358.5,99.5C 363.002,101.445 367.668,102.779 372.5,103.5C 372.649,102.448 372.483,101.448 372,100.5C 367.749,97.5305 363.249,96.8638 358.5,98.5C 354.413,100.042 350.413,101.875 346.5,104C 344.613,104.78 342.946,104.613 341.5,103.5C 342.822,103.67 343.989,103.337 345,102.5C 345.495,100.527 345.662,98.5273 345.5,96.5C 346.873,96.6567 348.207,96.49 349.5,96C 351.156,94.1706 353.156,92.8372 355.5,92C 356.711,91.1072 356.711,90.2739 355.5,89.5C 348.525,94.4619 341.025,95.4619 333,92.5C 332.5,92.8333 332,93.1667 331.5,93.5C 334.266,96.1429 337.599,97.1429 341.5,96.5C 340.631,98.717 340.298,101.05 340.5,103.5C 337.549,103.713 334.882,103.046 332.5,101.5C 332.5,100.833 332.5,100.167 332.5,99.5C 334.588,100.939 336.921,101.606 339.5,101.5C 339.5,100.5 339.5,99.5 339.5,98.5C 336.656,97.9421 333.822,97.2755 331,96.5C 329.624,96.6842 328.791,97.3509 328.5,98.5C 319.989,101.668 318.322,99.1682 323.5,91C 330.155,91.2203 336.822,91.2203 343.5,91C 347.257,87.9142 350.257,84.2475 352.5,80C 355.56,78.3367 358.56,78.1701 361.5,79.5 Z"/></g>
<g><path style="opacity:1" fill="#f4e6de" d="M 358.5,98.5 C 358.5,98.8333 358.5,99.1667 358.5,99.5C 355.369,101.904 352.036,104.071 348.5,106C 342.828,108.387 337.495,107.887 332.5,104.5C 331.614,103.675 331.281,102.675 331.5,101.5C 331.833,101.5 332.167,101.5 332.5,101.5C 334.882,103.046 337.549,103.713 340.5,103.5C 340.833,103.5 341.167,103.5 341.5,103.5C 342.946,104.613 344.613,104.78 346.5,104C 350.413,101.875 354.413,100.042 358.5,98.5 Z"/></g>
<g><path style="opacity:1" fill="#353334" d="M 358.5,99.5 C 358.5,99.1667 358.5,98.8333 358.5,98.5C 363.249,96.8638 367.749,97.5305 372,100.5C 372.483,101.448 372.649,102.448 372.5,103.5C 367.668,102.779 363.002,101.445 358.5,99.5 Z"/></g>
<g><path style="opacity:1" fill="#c34538" d="M 341.5,96.5 C 342.833,96.5 344.167,96.5 345.5,96.5C 345.662,98.5273 345.495,100.527 345,102.5C 343.989,103.337 342.822,103.67 341.5,103.5C 341.167,103.5 340.833,103.5 340.5,103.5C 340.298,101.05 340.631,98.717 341.5,96.5 Z"/></g>
<g><path style="opacity:1" fill="#f2dccf" d="M 356.5,93.5 C 358.927,94.2789 358.927,95.4455 356.5,97C 353.421,98.4106 350.421,99.9106 347.5,101.5C 346.269,100.349 346.269,99.1827 347.5,98C 350.861,97.1196 353.861,95.6196 356.5,93.5 Z"/></g>
<g><path style="opacity:1" fill="#f1e0db" d="M 332.5,99.5 C 331.167,99.1667 329.833,98.8333 328.5,98.5C 328.791,97.3509 329.624,96.6842 331,96.5C 333.822,97.2755 336.656,97.9421 339.5,98.5C 339.5,99.5 339.5,100.5 339.5,101.5C 336.921,101.606 334.588,100.939 332.5,99.5 Z"/></g>
<g><path style="opacity:1" fill="#f0d9cf" d="M 345.5,96.5 C 344.167,96.5 342.833,96.5 341.5,96.5C 337.599,97.1429 334.266,96.1429 331.5,93.5C 332,93.1667 332.5,92.8333 333,92.5C 341.025,95.4619 348.525,94.4619 355.5,89.5C 356.711,90.2739 356.711,91.1072 355.5,92C 353.156,92.8372 351.156,94.1706 349.5,96C 348.207,96.49 346.873,96.6567 345.5,96.5 Z"/></g>
<g><path style="opacity:1" fill="#473d39" d="M 323.5,109.5 C 326.85,109.335 330.183,109.502 333.5,110C 333.957,110.414 334.291,110.914 334.5,111.5C 330.793,110.953 327.127,111.62 323.5,113.5C 322.708,112.3 322.708,110.967 323.5,109.5 Z"/></g>
<g><path style="opacity:0.455" fill="#abb2b3" d="M 286.5,110.5 C 289.401,111.792 291.734,113.792 293.5,116.5C 290.547,115.213 288.214,113.213 286.5,110.5 Z"/></g>
<g><path style="opacity:1" fill="#b4826b" d="M 361.5,79.5 C 365.768,80.3726 370.102,80.7059 374.5,80.5C 374.264,90.2327 377.431,98.566 384,105.5C 383.5,111.509 383.667,117.509 384.5,123.5C 385.652,125.825 387.485,127.158 390,127.5C 392.765,125.759 395.765,124.426 399,123.5C 401.406,123.703 403.406,124.703 405,126.5C 406.459,133.118 405.292,139.118 401.5,144.5C 398.332,147.056 394.666,148.056 390.5,147.5C 389.68,153.797 389.347,160.131 389.5,166.5C 390.833,166.5 392.167,166.5 393.5,166.5C 392.329,167.345 390.995,168.011 389.5,168.5C 388.795,171.228 388.128,174.061 387.5,177C 377.899,182.967 367.899,188.134 357.5,192.5C 356.339,194.885 355.339,197.219 354.5,199.5C 353.122,192.903 353.789,186.57 356.5,180.5C 356.369,181.376 356.702,182.043 357.5,182.5C 362.813,180.354 367.146,177.021 370.5,172.5C 370.167,172.167 369.833,171.833 369.5,171.5C 365.625,174.22 361.291,175.554 356.5,175.5C 356.529,169.578 354.863,164.244 351.5,159.5C 355.566,164.032 357.899,163.365 358.5,157.5C 360.35,158.695 361.35,158.029 361.5,155.5C 361.125,153.541 360.459,151.707 359.5,150C 360.448,149.517 361.448,149.351 362.5,149.5C 364.888,152.076 367.888,153.076 371.5,152.5C 371.156,144.987 367.156,140.82 359.5,140C 349.406,139.443 339.406,140.11 329.5,142C 325.679,143.162 323.346,145.662 322.5,149.5C 321.167,149.5 319.833,149.5 318.5,149.5C 318.334,144.156 318.501,138.823 319,133.5C 321.736,131.2 321.903,128.867 319.5,126.5C 321.743,125.526 324.076,125.192 326.5,125.5C 326.503,130.447 328.836,131.78 333.5,129.5C 334.713,129.747 335.38,130.414 335.5,131.5C 335.212,137.361 337.878,139.361 343.5,137.5C 341.922,136.702 340.256,136.202 338.5,136C 338.793,128.516 340.793,121.35 344.5,114.5C 345.829,110.316 348.829,108.649 353.5,109.5C 353.781,107.037 354.781,104.87 356.5,103C 359.475,102.956 362.475,103.123 365.5,103.5C 365.5,104.5 365.5,105.5 365.5,106.5C 362.881,106.768 360.381,106.435 358,105.5C 356.489,106.564 356.323,107.897 357.5,109.5C 360.738,111.227 364.405,112.227 368.5,112.5C 369.298,112.043 369.631,111.376 369.5,110.5C 369.096,109.244 368.429,108.077 367.5,107C 367.833,106.5 368.167,106 368.5,105.5C 371.772,106.929 373.438,105.763 373.5,102C 373.576,99.2439 372.243,98.0772 369.5,98.5C 369.33,97.1779 369.663,96.0113 370.5,95C 368.5,94 366.5,93 364.5,92C 365.089,90.1267 364.422,88.46 362.5,87C 360.479,86.8598 358.645,86.6932 357,86.5C 354.645,89.1636 352.478,88.9969 350.5,86C 352.808,81.7132 356.475,79.5466 361.5,79.5 Z"/></g>
<g><path style="opacity:1" fill="#54423a" d="M 369.5,110.5 C 369.631,111.376 369.298,112.043 368.5,112.5C 364.405,112.227 360.738,111.227 357.5,109.5C 361.608,108.133 365.608,108.466 369.5,110.5 Z"/></g>
<g><path style="opacity:0.055" fill="#cfd0d8" d="M 421.5,112.5 C 421.446,114.632 420.446,115.965 418.5,116.5C 419.026,114.77 420.026,113.436 421.5,112.5 Z"/></g>
<g><path style="opacity:1" fill="#5e473b" d="M 344.5,114.5 C 340.793,121.35 338.793,128.516 338.5,136C 340.256,136.202 341.922,136.702 343.5,137.5C 337.878,139.361 335.212,137.361 335.5,131.5C 338.402,124.651 341.235,117.651 344,110.5C 344.49,111.793 344.657,113.127 344.5,114.5 Z"/></g>
<g><path style="opacity:0.518" fill="#8a8f94" d="M 296.5,118.5 C 301.249,120.067 302.583,123.067 300.5,127.5C 300.66,125.801 300.494,124.134 300,122.5C 298.624,121.295 297.458,119.962 296.5,118.5 Z"/></g>
<g><path style="opacity:1" fill="#393330" d="M 359.5,122.5 C 364.159,122.015 365.492,123.848 363.5,128C 358.728,128.81 357.395,126.977 359.5,122.5 Z"/></g>
<g><path style="opacity:1" fill="#353231" d="M 328.5,122.5 C 333.159,122.015 334.492,123.848 332.5,128C 327.728,128.81 326.395,126.977 328.5,122.5 Z"/></g>
<g><path style="opacity:0.965" fill="#5b6367" d="M 300.5,127.5 C 300.141,129.766 300.808,131.599 302.5,133C 301.39,136.049 300.723,139.216 300.5,142.5C 299.167,137.5 299.167,132.5 300.5,127.5 Z"/></g>
<g><path style="opacity:1" fill="#2b3035" d="M 362.5,149.5 C 360.052,148.527 357.385,148.194 354.5,148.5C 348.077,148.209 341.744,148.542 335.5,149.5C 331.364,149.468 328.364,151.302 326.5,155C 325.207,155.49 323.873,155.657 322.5,155.5C 322.5,153.5 322.5,151.5 322.5,149.5C 323.346,145.662 325.679,143.162 329.5,142C 339.406,140.11 349.406,139.443 359.5,140C 367.156,140.82 371.156,144.987 371.5,152.5C 367.888,153.076 364.888,152.076 362.5,149.5 Z"/></g>
<g><path style="opacity:1" fill="#e6e4e2" d="M 354.5,148.5 C 353.089,150.539 351.089,151.539 348.5,151.5C 344.486,151.666 340.486,151.499 336.5,151C 335.944,150.617 335.611,150.117 335.5,149.5C 341.744,148.542 348.077,148.209 354.5,148.5 Z"/></g>
<g><path style="opacity:0.012" fill="#d9d9dc" d="M 412.5,149.5 C 412.5,151.5 411.5,152.5 409.5,152.5C 410.167,151.167 411.167,150.167 412.5,149.5 Z"/></g>
<g><path style="opacity:0.999" fill="#3b434b" d="M 270.5,152.5 C 272.369,153.165 274.369,153.831 276.5,154.5C 274.393,156.887 271.727,158.22 268.5,158.5C 259.487,158.285 250.487,157.785 241.5,157C 237.458,154.306 237.625,151.806 242,149.5C 251.429,151.126 260.929,152.126 270.5,152.5 Z"/></g>
<g><path style="opacity:1" fill="#71453b" d="M 354.5,148.5 C 357.385,148.194 360.052,148.527 362.5,149.5C 361.448,149.351 360.448,149.517 359.5,150C 360.459,151.707 361.125,153.541 361.5,155.5C 361.35,158.029 360.35,158.695 358.5,157.5C 356.492,155.073 353.826,154.073 350.5,154.5C 346.88,154.959 343.547,155.959 340.5,157.5C 340.167,157.5 339.833,157.5 339.5,157.5C 335.352,157.547 333.852,155.547 335,151.5C 339.6,152.823 344.1,152.823 348.5,151.5C 351.089,151.539 353.089,150.539 354.5,148.5 Z"/></g>
<g><path style="opacity:0.153" fill="#b1b4ba" d="M 409.5,152.5 C 409.011,153.995 408.345,155.329 407.5,156.5C 407.157,154.517 407.824,153.183 409.5,152.5 Z"/></g>
<g><path style="opacity:1" fill="#d37e6d" d="M 358.5,157.5 C 357.899,163.365 355.566,164.032 351.5,159.5C 348.079,157.853 344.413,157.187 340.5,157.5C 343.547,155.959 346.88,154.959 350.5,154.5C 353.826,154.073 356.492,155.073 358.5,157.5 Z"/></g>
<g><path style="opacity:0.841" fill="#393b3d" d="M 320.5,158.5 C 328.16,159.222 335.827,159.888 343.5,160.5C 343.672,161.492 343.338,162.158 342.5,162.5C 338.833,162.5 335.167,162.5 331.5,162.5C 330.167,162.5 328.833,162.5 327.5,162.5C 327.5,163.833 327.5,165.167 327.5,166.5C 325.833,166.5 324.167,166.5 322.5,166.5C 316.008,166.994 309.675,167.661 303.5,168.5C 302.596,167.791 302.263,166.791 302.5,165.5C 306.077,165.795 309.243,164.795 312,162.5C 313.726,163.576 315.559,163.743 317.5,163C 316.584,162.722 315.918,162.222 315.5,161.5C 317.167,161.5 318.833,161.5 320.5,161.5C 320.5,160.5 320.5,159.5 320.5,158.5 Z"/></g>
<g><path style="opacity:1" fill="#6c6152" d="M 331.5,162.5 C 335.167,162.5 338.833,162.5 342.5,162.5C 342.5,163.833 342.5,165.167 342.5,166.5C 341.167,166.5 339.833,166.5 338.5,166.5C 336.019,165.742 333.352,165.742 330.5,166.5C 330.433,165.041 330.766,163.708 331.5,162.5 Z"/></g>
<g><path style="opacity:1" fill="#e4b574" d="M 339.5,157.5 C 339.833,157.5 340.167,157.5 340.5,157.5C 344.413,157.187 348.079,157.853 351.5,159.5C 354.863,164.244 356.529,169.578 356.5,175.5C 356.5,177.167 356.5,178.833 356.5,180.5C 353.789,186.57 353.122,192.903 354.5,199.5C 354.557,200.609 354.89,201.609 355.5,202.5C 355.851,204.869 356.018,207.203 356,209.5C 355.722,208.584 355.222,207.918 354.5,207.5C 352.412,204.248 351.079,200.582 350.5,196.5C 350.334,192.486 350.501,188.486 351,184.5C 354.85,175.997 354.016,167.997 348.5,160.5C 346.305,162.059 345.305,164.226 345.5,167C 346.761,174.503 346.761,182.003 345.5,189.5C 345.5,192.167 345.5,194.833 345.5,197.5C 345.657,198.873 345.49,200.207 345,201.5C 344.617,200.944 344.117,200.611 343.5,200.5C 343.5,200.167 343.5,199.833 343.5,199.5C 342.602,193.528 342.602,187.528 343.5,181.5C 344.147,180.726 344.48,179.726 344.5,178.5C 343.201,174.604 342.534,170.604 342.5,166.5C 342.5,165.167 342.5,163.833 342.5,162.5C 343.338,162.158 343.672,161.492 343.5,160.5C 342.048,159.698 340.382,159.198 338.5,159C 339.056,158.617 339.389,158.117 339.5,157.5 Z"/></g>
<g><path style="opacity:0.09" fill="#b3b6bd" d="M 322.5,166.5 C 322.5,166.833 322.5,167.167 322.5,167.5C 316.211,168.372 309.878,168.705 303.5,168.5C 309.675,167.661 316.008,166.994 322.5,166.5 Z"/></g>
<g><path style="opacity:1" fill="#a3886d" d="M 331.5,162.5 C 330.766,163.708 330.433,165.041 330.5,166.5C 329.504,166.414 328.671,166.748 328,167.5C 328.331,169.019 328.164,170.352 327.5,171.5C 325.251,170.92 323.585,169.587 322.5,167.5C 322.5,167.167 322.5,166.833 322.5,166.5C 324.167,166.5 325.833,166.5 327.5,166.5C 327.5,165.167 327.5,163.833 327.5,162.5C 328.833,162.5 330.167,162.5 331.5,162.5 Z"/></g>
<g><path style="opacity:1" fill="#323943" d="M 261.5,171.5 C 254.229,172.99 246.896,173.49 239.5,173C 237.922,170.661 238.255,168.828 240.5,167.5C 248.44,167.519 256.274,166.852 264,165.5C 264.238,167.956 263.404,169.956 261.5,171.5 Z"/></g>
<g><path style="opacity:1" fill="#b6826a" d="M 288.5,185.5 C 287.908,188.127 287.575,190.794 287.5,193.5C 285.514,199.383 285.014,205.383 286,211.5C 280.948,209.398 275.781,207.398 270.5,205.5C 266.116,202.775 262.45,199.442 259.5,195.5C 259.833,195.5 260.167,195.5 260.5,195.5C 261.34,190.169 262.006,184.669 262.5,179C 262.907,176.395 264.073,174.229 266,172.5C 266.186,170.1 266.686,167.766 267.5,165.5C 269.677,164.324 271.011,162.49 271.5,160C 274.412,158.76 277.079,157.094 279.5,155C 285.811,153.352 292.145,152.852 298.5,153.5C 297.167,154.5 297.167,155.5 298.5,156.5C 297.975,157.192 297.308,157.692 296.5,158C 300.253,159.14 300.919,160.974 298.5,163.5C 299.544,165.768 299.711,168.101 299,170.5C 297.067,173.893 295.9,177.559 295.5,181.5C 292.335,180.964 289.669,181.797 287.5,184C 288.056,184.383 288.389,184.883 288.5,185.5 Z"/></g>
<g><path style="opacity:1" fill="#b29082" d="M 302.5,149.5 C 303.974,150.436 304.974,151.77 305.5,153.5C 306.922,153.75 307.922,154.583 308.5,156C 305.3,156.101 302.3,156.768 299.5,158C 305.059,158.573 310.392,159.74 315.5,161.5C 315.918,162.222 316.584,162.722 317.5,163C 315.559,163.743 313.726,163.576 312,162.5C 309.243,164.795 306.077,165.795 302.5,165.5C 302.263,166.791 302.596,167.791 303.5,168.5C 302.094,171.414 300.094,173.914 297.5,176C 298.602,178.401 298.769,180.901 298,183.5C 297.261,184.574 296.261,185.241 295,185.5C 292.83,184.28 290.663,184.28 288.5,185.5C 288.389,184.883 288.056,184.383 287.5,184C 289.669,181.797 292.335,180.964 295.5,181.5C 295.9,177.559 297.067,173.893 299,170.5C 299.711,168.101 299.544,165.768 298.5,163.5C 300.919,160.974 300.253,159.14 296.5,158C 297.308,157.692 297.975,157.192 298.5,156.5C 297.167,155.5 297.167,154.5 298.5,153.5C 292.145,152.852 285.811,153.352 279.5,155C 277.079,157.094 274.412,158.76 271.5,160C 271.011,162.49 269.677,164.324 267.5,165.5C 266.686,167.766 266.186,170.1 266,172.5C 264.073,174.229 262.907,176.395 262.5,179C 262.006,184.669 261.34,190.169 260.5,195.5C 260.264,187.458 260.597,179.458 261.5,171.5C 263.404,169.956 264.238,167.956 264,165.5C 256.274,166.852 248.44,167.519 240.5,167.5C 247.648,166.347 254.981,165.513 262.5,165C 266.099,164.236 268.099,162.07 268.5,158.5C 271.727,158.22 274.393,156.887 276.5,154.5C 274.369,153.831 272.369,153.165 270.5,152.5C 281.379,152.243 292.046,151.243 302.5,149.5 Z M 305.5,153.5 C 306.614,155.353 305.948,155.853 303.5,155C 304.044,154.283 304.711,153.783 305.5,153.5 Z"/></g>
<g><path style="opacity:1" fill="#bc885f" d="M 338.5,166.5 C 339.833,166.5 341.167,166.5 342.5,166.5C 342.534,170.604 343.201,174.604 344.5,178.5C 344.48,179.726 344.147,180.726 343.5,181.5C 342.833,181.5 342.167,181.5 341.5,181.5C 340.292,176.542 339.292,171.542 338.5,166.5 Z"/></g>
<g><path style="opacity:1" fill="#986750" d="M 356.5,180.5 C 356.5,178.833 356.5,177.167 356.5,175.5C 361.291,175.554 365.625,174.22 369.5,171.5C 369.833,171.833 370.167,172.167 370.5,172.5C 367.146,177.021 362.813,180.354 357.5,182.5C 356.702,182.043 356.369,181.376 356.5,180.5 Z"/></g>
<g><path style="opacity:1" fill="#e3b97e" d="M 338.5,166.5 C 339.292,171.542 340.292,176.542 341.5,181.5C 340.143,187.675 339.143,194.008 338.5,200.5C 338.599,202.799 339.266,204.799 340.5,206.5C 345.566,217.186 345.732,228.186 341,239.5C 340.333,242.833 340.333,246.167 341,249.5C 343.131,257.024 344.464,264.691 345,272.5C 346.049,274.107 347.549,274.773 349.5,274.5C 347.59,265.629 345.924,256.629 344.5,247.5C 345.847,237.288 347.514,227.121 349.5,217C 348.427,211.061 346.427,205.561 343.5,200.5C 344.117,200.611 344.617,200.944 345,201.5C 345.49,200.207 345.657,198.873 345.5,197.5C 346.458,197.953 347.292,198.619 348,199.5C 348.715,203.442 350.048,207.109 352,210.5C 352.667,214.833 352.667,219.167 352,223.5C 350.133,231.6 348.633,239.767 347.5,248C 348.626,256.092 350.293,263.925 352.5,271.5C 353.5,271.5 354.5,271.5 355.5,271.5C 355.643,261.308 354.309,251.308 351.5,241.5C 351.537,236.556 352.703,231.889 355,227.5C 355.713,220.797 355.546,214.13 354.5,207.5C 355.222,207.918 355.722,208.584 356,209.5C 356.018,207.203 355.851,204.869 355.5,202.5C 356.972,205.269 358.139,208.269 359,211.5C 359.499,217.157 359.666,222.824 359.5,228.5C 358.951,230.901 358.118,233.235 357,235.5C 356.185,240.352 356.352,245.019 357.5,249.5C 357.5,250.5 357.5,251.5 357.5,252.5C 358.791,252.263 359.791,252.596 360.5,253.5C 360.096,254.756 359.429,255.923 358.5,257C 358.989,258.138 359.322,259.305 359.5,260.5C 359.5,262.5 359.5,264.5 359.5,266.5C 359.232,269.119 359.565,271.619 360.5,274C 365.27,276.404 370.27,278.07 375.5,279C 377.752,282.413 380.419,285.247 383.5,287.5C 385.039,289.877 386.373,292.377 387.5,295C 387.272,295.399 386.938,295.565 386.5,295.5C 385.5,295.5 384.5,295.5 383.5,295.5C 382.526,290.061 379.86,285.561 375.5,282C 372.404,281.073 370.07,282.073 368.5,285C 367.207,285.49 365.873,285.657 364.5,285.5C 367.584,284.744 369.251,282.744 369.5,279.5C 367.5,279.5 365.5,279.5 363.5,279.5C 361.108,278.287 358.441,277.621 355.5,277.5C 349.795,277.908 344.128,278.575 338.5,279.5C 341.405,274.689 342.238,269.356 341,263.5C 339.156,257.818 337.323,252.152 335.5,246.5C 337.776,239.29 339.442,231.957 340.5,224.5C 340.11,219.489 339.61,214.489 339,209.5C 338.185,207.377 337.185,205.377 336,203.5C 335.477,195.608 335.977,187.775 337.5,180C 337.354,175.405 336.687,170.905 335.5,166.5C 336.5,166.5 337.5,166.5 338.5,166.5 Z"/></g>
<g><path style="opacity:1" fill="#b07e61" d="M 350.5,196.5 C 349.681,193.695 349.181,190.695 349,187.5C 347.887,188.305 346.721,188.972 345.5,189.5C 346.761,182.003 346.761,174.503 345.5,167C 345.305,164.226 346.305,162.059 348.5,160.5C 354.016,167.997 354.85,175.997 351,184.5C 350.501,188.486 350.334,192.486 350.5,196.5 Z"/></g>
<g><path style="opacity:1" fill="#c7aa9b" d="M 331.5,181.5 C 330.621,187.106 328.455,192.106 325,196.5C 324.063,201.403 324.73,206.07 327,210.5C 331.89,215.667 333.39,221.667 331.5,228.5C 329.246,229.415 327.246,230.748 325.5,232.5C 325.306,230.088 323.973,229.088 321.5,229.5C 320.12,236.155 318.12,236.155 315.5,229.5C 317.156,227.588 317.489,225.588 316.5,223.5C 314.787,223.879 313.787,224.879 313.5,226.5C 310.551,226.069 307.884,224.902 305.5,223C 303.5,222.333 301.5,222.333 299.5,223C 296.655,226.056 294.655,229.556 293.5,233.5C 293.197,229.355 293.03,225.021 293,220.5C 288.974,219.346 287.141,221.013 287.5,225.5C 288.833,225.5 290.167,225.5 291.5,225.5C 291.917,229.817 291.25,233.817 289.5,237.5C 288.194,236.533 287.527,235.199 287.5,233.5C 285.4,233.523 283.567,232.856 282,231.5C 280.038,232.761 278.538,234.428 277.5,236.5C 277.649,235.448 277.483,234.448 277,233.5C 275.241,237.644 273.408,241.644 271.5,245.5C 270.172,243.255 268.339,242.922 266,244.5C 265.333,240.5 264.667,240.5 264,244.5C 263.29,243.027 262.124,242.36 260.5,242.5C 263.115,240.097 263.948,237.097 263,233.5C 260.837,232.232 258.67,232.232 256.5,233.5C 255.71,234.609 255.21,235.942 255,237.5C 252.213,236.778 251.38,235.278 252.5,233C 252.076,228.941 250.576,228.441 248,231.5C 246.842,231.002 246.009,230.169 245.5,229C 246.707,227.7 247.374,226.2 247.5,224.5C 246.5,224.5 245.5,224.5 244.5,224.5C 246.038,220.969 247.038,217.303 247.5,213.5C 248.902,211.125 250.235,208.791 251.5,206.5C 252.717,201.639 255.384,197.972 259.5,195.5C 262.45,199.442 266.116,202.775 270.5,205.5C 275.781,207.398 280.948,209.398 286,211.5C 285.014,205.383 285.514,199.383 287.5,193.5C 300.657,190.019 313.99,187.185 327.5,185C 329.35,184.31 330.684,183.144 331.5,181.5 Z"/></g>
<g><path style="opacity:1" fill="#caad9f" d="M 389.5,168.5 C 389.338,170.527 389.505,172.527 390,174.5C 392.036,178.808 393.536,183.308 394.5,188C 404.006,189.123 413.006,191.623 421.5,195.5C 415.72,197.695 410.554,196.695 406,192.5C 402.707,191.648 399.707,190.981 397,190.5C 396.5,191 396,191.5 395.5,192C 396.551,193.385 397.884,194.385 399.5,195C 398.692,195.308 398.025,195.808 397.5,196.5C 399.554,198.194 401.888,199.361 404.5,200C 402.069,201.092 402.069,202.259 404.5,203.5C 402.549,203.773 401.049,203.107 400,201.5C 399.085,202.328 398.419,203.328 398,204.5C 395.179,202.678 392.679,200.511 390.5,198C 391.747,196.506 391.747,195.006 390.5,193.5C 382.91,198.124 375.244,202.457 367.5,206.5C 365.073,206.523 362.74,207.023 360.5,208C 361.85,211.124 363.517,213.291 365.5,214.5C 365.201,216.815 364.368,216.815 363,214.5C 360.585,217.032 359.919,220.032 361,223.5C 361.202,221.744 361.702,220.078 362.5,218.5C 363.299,222.601 364.299,226.601 365.5,230.5C 364.833,230.5 364.167,230.5 363.5,230.5C 362.837,228.958 362.17,227.291 361.5,225.5C 360.824,226.602 360.158,227.602 359.5,228.5C 359.666,222.824 359.499,217.157 359,211.5C 358.139,208.269 356.972,205.269 355.5,202.5C 354.89,201.609 354.557,200.609 354.5,199.5C 355.339,197.219 356.339,194.885 357.5,192.5C 367.899,188.134 377.899,182.967 387.5,177C 388.128,174.061 388.795,171.228 389.5,168.5 Z"/></g>
<g><path style="opacity:1" fill="#a07768" d="M 303.5,191.5 C 305.92,191.292 308.253,191.626 310.5,192.5C 311.987,195.221 311.32,197.221 308.5,198.5C 306.317,199.732 304.151,199.732 302,198.5C 300.216,199.309 298.383,199.976 296.5,200.5C 294.02,199.693 292.687,198.026 292.5,195.5C 295.3,195.889 297.967,196.389 300.5,197C 301.971,195.417 302.971,193.583 303.5,191.5 Z"/></g>
<g><path style="opacity:1" fill="#d2b08c" d="M 341.5,181.5 C 342.167,181.5 342.833,181.5 343.5,181.5C 342.602,187.528 342.602,193.528 343.5,199.5C 342.504,199.414 341.671,199.748 341,200.5C 340.505,202.473 340.338,204.473 340.5,206.5C 339.266,204.799 338.599,202.799 338.5,200.5C 339.143,194.008 340.143,187.675 341.5,181.5 Z"/></g>
<g><path style="opacity:1" fill="#a27b73" d="M 425.5,196.5 C 426.833,196.833 428.167,197.167 429.5,197.5C 429.5,198.833 429.5,200.167 429.5,201.5C 427.146,201.162 424.813,200.662 422.5,200C 421.663,198.989 421.33,197.822 421.5,196.5C 422.833,196.5 424.167,196.5 425.5,196.5 Z"/></g>
<g><path style="opacity:1" fill="#a78477" d="M 288.5,200.5 C 290.928,201.212 293.261,202.212 295.5,203.5C 299.009,201.436 302.676,201.103 306.5,202.5C 307.853,203.524 308.52,204.857 308.5,206.5C 305.336,206.434 302.502,205.434 300,203.5C 299.5,203.833 299,204.167 298.5,204.5C 300.856,207.022 303.023,209.688 305,212.5C 305.667,213.167 305.667,213.833 305,214.5C 302.316,211.748 299.65,209.081 297,206.5C 296.689,208.556 296.189,210.556 295.5,212.5C 294.675,213.386 293.675,213.719 292.5,213.5C 292.817,210.428 292.484,207.428 291.5,204.5C 289.712,203.717 288.712,202.384 288.5,200.5 Z"/></g>
<g><path style="opacity:1" fill="#b69588" d="M 404.5,203.5 C 407.247,202.044 410.08,200.711 413,199.5C 414.762,200.591 416.596,201.591 418.5,202.5C 415.578,202.899 412.578,203.066 409.5,203C 407.772,204.726 405.772,206.059 403.5,207C 405.973,207.22 407.64,208.386 408.5,210.5C 406.007,209.226 403.341,208.56 400.5,208.5C 399.816,206.815 398.483,205.815 396.5,205.5C 395.476,206.853 394.143,207.52 392.5,207.5C 392.657,206.127 392.49,204.793 392,203.5C 390.206,201.566 388.206,199.899 386,198.5C 382.172,201.227 378.005,203.394 373.5,205C 372.953,205.925 372.287,206.758 371.5,207.5C 370.264,206.754 368.93,206.421 367.5,206.5C 375.244,202.457 382.91,198.124 390.5,193.5C 391.747,195.006 391.747,196.506 390.5,198C 392.679,200.511 395.179,202.678 398,204.5C 398.419,203.328 399.085,202.328 400,201.5C 401.049,203.107 402.549,203.773 404.5,203.5 Z"/></g>
<g><path style="opacity:1" fill="#c8a791" d="M 338.5,166.5 C 337.5,166.5 336.5,166.5 335.5,166.5C 336.687,170.905 337.354,175.405 337.5,180C 335.977,187.775 335.477,195.608 336,203.5C 337.185,205.377 338.185,207.377 339,209.5C 339.61,214.489 340.11,219.489 340.5,224.5C 339.442,231.957 337.776,239.29 335.5,246.5C 337.323,252.152 339.156,257.818 341,263.5C 342.238,269.356 341.405,274.689 338.5,279.5C 336.585,279.784 334.919,279.451 333.5,278.5C 334.08,274.19 334.414,269.857 334.5,265.5C 335.675,265.719 336.675,265.386 337.5,264.5C 336.972,259.302 334.639,255.302 330.5,252.5C 329.508,249.221 329.341,245.888 330,242.5C 337.307,230.991 337.307,219.324 330,207.5C 329.262,205.047 328.762,202.547 328.5,200C 331.19,193.417 333.523,186.584 335.5,179.5C 333.561,175.286 331.894,170.952 330.5,166.5C 333.352,165.742 336.019,165.742 338.5,166.5 Z"/></g>
<g><path style="opacity:1" fill="#c7aa9c" d="M 392.5,207.5 C 385.543,208.386 378.543,208.72 371.5,208.5C 371.22,211.388 372.553,212.888 375.5,213C 374.044,213.423 373.544,214.256 374,215.5C 376.947,215.049 380.113,214.383 383.5,213.5C 383.5,214.833 383.5,216.167 383.5,217.5C 380.763,217.37 378.763,218.536 377.5,221C 378.032,223.02 379.365,223.853 381.5,223.5C 381.281,224.675 381.614,225.675 382.5,226.5C 383.734,222.332 385.067,222.666 386.5,227.5C 384.478,231.538 383.978,235.871 385,240.5C 385.383,241.056 385.883,241.389 386.5,241.5C 390.471,244.475 393.971,243.809 397,239.5C 397.49,238.207 397.657,236.873 397.5,235.5C 398.514,234.326 399.847,233.66 401.5,233.5C 402.692,234.566 402.359,235.399 400.5,236C 401.922,239.788 403.589,243.454 405.5,247C 405.561,248.711 404.894,250.044 403.5,251C 405.101,251.273 406.601,251.773 408,252.5C 408.617,251.551 408.451,250.718 407.5,250C 408.449,249.383 409.282,249.549 410,250.5C 410.299,247.202 411.133,246.868 412.5,249.5C 411.885,253.724 411.552,258.057 411.5,262.5C 413.287,264.858 414.287,267.525 414.5,270.5C 411.023,269.672 407.69,268.672 404.5,267.5C 406.5,267.5 408.5,267.5 410.5,267.5C 410.67,266.178 410.337,265.011 409.5,264C 406.447,263.821 403.447,263.321 400.5,262.5C 401.246,261.264 401.579,259.93 401.5,258.5C 395.674,258.157 393.174,260.824 394,266.5C 395.626,267.955 396.792,269.622 397.5,271.5C 397.5,271.833 397.5,272.167 397.5,272.5C 392.417,273.614 388.751,271.947 386.5,267.5C 389.996,260.163 387.663,256.496 379.5,256.5C 379.719,255.325 379.386,254.325 378.5,253.5C 375.912,254.194 373.579,255.36 371.5,257C 372.308,257.308 372.975,257.808 373.5,258.5C 371.896,260.179 371.229,262.179 371.5,264.5C 370.5,264.5 369.5,264.5 368.5,264.5C 368.737,263.209 368.404,262.209 367.5,261.5C 365.332,257.867 362.666,257.534 359.5,260.5C 359.322,259.305 358.989,258.138 358.5,257C 359.429,255.923 360.096,254.756 360.5,253.5C 362.545,255.984 365.212,256.984 368.5,256.5C 369.256,250.987 366.923,247.987 361.5,247.5C 359.645,247.34 358.312,248.007 357.5,249.5C 356.352,245.019 356.185,240.352 357,235.5C 358.118,233.235 358.951,230.901 359.5,228.5C 360.158,227.602 360.824,226.602 361.5,225.5C 362.17,227.291 362.837,228.958 363.5,230.5C 363.575,233.407 364.409,236.073 366,238.5C 367.993,240.378 370.159,240.712 372.5,239.5C 371.737,238.281 370.737,237.281 369.5,236.5C 372.955,230.963 371.621,228.963 365.5,230.5C 364.299,226.601 363.299,222.601 362.5,218.5C 361.702,220.078 361.202,221.744 361,223.5C 359.919,220.032 360.585,217.032 363,214.5C 364.368,216.815 365.201,216.815 365.5,214.5C 363.517,213.291 361.85,211.124 360.5,208C 362.74,207.023 365.073,206.523 367.5,206.5C 368.93,206.421 370.264,206.754 371.5,207.5C 372.287,206.758 372.953,205.925 373.5,205C 378.005,203.394 382.172,201.227 386,198.5C 388.206,199.899 390.206,201.566 392,203.5C 392.49,204.793 392.657,206.127 392.5,207.5 Z"/></g>
<g><path style="opacity:1" fill="#e2b87d" d="M 330.5,166.5 C 331.894,170.952 333.561,175.286 335.5,179.5C 333.523,186.584 331.19,193.417 328.5,200C 328.762,202.547 329.262,205.047 330,207.5C 337.307,219.324 337.307,230.991 330,242.5C 329.341,245.888 329.508,249.221 330.5,252.5C 331.03,257.09 332.364,261.424 334.5,265.5C 334.414,269.857 334.08,274.19 333.5,278.5C 328.115,279.058 322.782,279.725 317.5,280.5C 317.5,280.167 317.5,279.833 317.5,279.5C 321.029,277.577 325.029,276.911 329.5,277.5C 330.306,274.715 330.972,271.881 331.5,269C 327.508,258.858 326.175,248.358 327.5,237.5C 329.607,234.943 330.941,231.943 331.5,228.5C 333.39,221.667 331.89,215.667 327,210.5C 324.73,206.07 324.063,201.403 325,196.5C 328.455,192.106 330.621,187.106 331.5,181.5C 331.269,177.707 329.935,174.374 327.5,171.5C 328.164,170.352 328.331,169.019 328,167.5C 328.671,166.748 329.504,166.414 330.5,166.5 Z"/></g>
<g><path style="opacity:1" fill="#c9ac9d" d="M 421.5,195.5 C 423.099,195.232 424.432,195.566 425.5,196.5C 424.167,196.5 422.833,196.5 421.5,196.5C 421.33,197.822 421.663,198.989 422.5,200C 424.813,200.662 427.146,201.162 429.5,201.5C 429.5,200.167 429.5,198.833 429.5,197.5C 437.312,200.444 443.479,205.444 448,212.5C 453.203,223.278 456.703,234.612 458.5,246.5C 456.956,246.703 455.622,247.37 454.5,248.5C 453.913,252.147 452.913,255.647 451.5,259C 451.735,259.873 452.069,260.707 452.5,261.5C 452.062,262.506 451.396,262.506 450.5,261.5C 449.091,258.603 449.424,255.937 451.5,253.5C 450.537,250.935 449.204,248.602 447.5,246.5C 444.893,245.682 442.226,245.182 439.5,245C 441.5,244.167 443.5,243.333 445.5,242.5C 444.271,241.719 442.938,241.219 441.5,241C 443.608,238.984 443.942,236.817 442.5,234.5C 441.25,234.423 440.417,233.756 440,232.5C 439,234.167 438,235.833 437,237.5C 436.29,236.027 435.124,235.36 433.5,235.5C 433.5,233.833 433.5,232.167 433.5,230.5C 434.376,230.631 435.043,230.298 435.5,229.5C 434.076,227.709 432.742,225.875 431.5,224C 427.381,222.719 424.047,223.719 421.5,227C 420.025,230.35 419.358,233.85 419.5,237.5C 418.679,234.359 418.179,231.025 418,227.5C 414.625,225.656 411.125,224.322 407.5,223.5C 407.649,222.448 407.483,221.448 407,220.5C 405.404,221.048 404.237,220.382 403.5,218.5C 403.811,217.522 404.478,216.855 405.5,216.5C 406.5,217.833 407.5,219.167 408.5,220.5C 409.689,221.429 411.022,221.762 412.5,221.5C 412.5,218.833 412.5,216.167 412.5,213.5C 414.167,213.5 415.833,213.5 417.5,213.5C 418.329,208.499 416.329,206.332 411.5,207C 410.897,208.825 410.23,210.659 409.5,212.5C 408.702,212.043 408.369,211.376 408.5,210.5C 407.64,208.386 405.973,207.22 403.5,207C 405.772,206.059 407.772,204.726 409.5,203C 412.578,203.066 415.578,202.899 418.5,202.5C 416.596,201.591 414.762,200.591 413,199.5C 410.08,200.711 407.247,202.044 404.5,203.5C 402.069,202.259 402.069,201.092 404.5,200C 401.888,199.361 399.554,198.194 397.5,196.5C 398.025,195.808 398.692,195.308 399.5,195C 397.884,194.385 396.551,193.385 395.5,192C 396,191.5 396.5,191 397,190.5C 399.707,190.981 402.707,191.648 406,192.5C 410.554,196.695 415.72,197.695 421.5,195.5 Z"/></g>
<g><path style="opacity:1" fill="#9d7368" d="M 251.5,206.5 C 252.802,205.193 254.135,205.193 255.5,206.5C 257.634,213.131 255.3,216.798 248.5,217.5C 249.321,213.716 250.321,210.049 251.5,206.5 Z"/></g>
<g><path style="opacity:1" fill="#a17769" d="M 403.5,218.5 C 401.726,219.881 400.226,219.548 399,217.5C 398.404,214.314 398.904,211.314 400.5,208.5C 403.341,208.56 406.007,209.226 408.5,210.5C 408.369,211.376 408.702,212.043 409.5,212.5C 410.23,210.659 410.897,208.825 411.5,207C 416.329,206.332 418.329,208.499 417.5,213.5C 415.833,213.5 414.167,213.5 412.5,213.5C 412.5,216.167 412.5,218.833 412.5,221.5C 411.022,221.762 409.689,221.429 408.5,220.5C 407.5,219.167 406.5,217.833 405.5,216.5C 404.478,216.855 403.811,217.522 403.5,218.5 Z"/></g>
<g><path style="opacity:1" fill="#a57967" d="M 437.5,207.5 C 439.604,207.201 441.604,207.534 443.5,208.5C 441.955,209.452 440.288,209.785 438.5,209.5C 438.5,210.5 438.5,211.5 438.5,212.5C 440.199,212.34 441.866,212.506 443.5,213C 444.059,213.725 444.392,214.558 444.5,215.5C 444.148,216.786 443.482,217.619 442.5,218C 443.289,219.626 444.289,221.126 445.5,222.5C 443.926,223.631 442.259,223.798 440.5,223C 439,220.833 437.167,219 435,217.5C 434.024,213.673 434.857,210.34 437.5,207.5 Z"/></g>
<g><path style="opacity:1" fill="#a4786b" d="M 313.5,226.5 C 312.114,228.244 311.114,230.244 310.5,232.5C 310.919,233.672 311.585,234.672 312.5,235.5C 309.598,237.437 306.598,239.27 303.5,241C 302.167,241.667 300.833,241.667 299.5,241C 300.737,240.768 301.737,240.268 302.5,239.5C 304.964,237.865 306.964,235.699 308.5,233C 307.43,231.291 306.097,229.791 304.5,228.5C 302.167,227.167 299.833,227.167 297.5,228.5C 296.358,231.399 295.692,234.399 295.5,237.5C 295.44,238.043 295.107,238.376 294.5,238.5C 293.548,236.955 293.215,235.288 293.5,233.5C 294.655,229.556 296.655,226.056 299.5,223C 301.5,222.333 303.5,222.333 305.5,223C 307.884,224.902 310.551,226.069 313.5,226.5 Z"/></g>
<g><path style="opacity:1" fill="#a37767" d="M 401.5,233.5 C 399.847,233.66 398.514,234.326 397.5,235.5C 395.391,234.609 393.391,233.442 391.5,232C 389.866,231.506 388.199,231.34 386.5,231.5C 386.5,232.5 386.5,233.5 386.5,234.5C 387.833,234.5 389.167,234.5 390.5,234.5C 390.002,237.326 388.669,239.66 386.5,241.5C 385.883,241.389 385.383,241.056 385,240.5C 383.978,235.871 384.478,231.538 386.5,227.5C 392.145,222.87 396.479,224.036 399.5,231C 400.951,230.737 402.284,230.904 403.5,231.5C 402.757,232.182 402.091,232.849 401.5,233.5 Z"/></g>
<g><path style="opacity:1" fill="#b08e7f" d="M 269.5,215.5 C 270.675,215.281 271.675,215.614 272.5,216.5C 271.876,218.754 270.543,220.421 268.5,221.5C 270.423,222.308 272.423,222.808 274.5,223C 276.831,224.8 276.831,226.8 274.5,229C 274.833,229.333 275.167,229.667 275.5,230C 274.146,231.294 272.812,231.46 271.5,230.5C 270.585,231.328 269.919,232.328 269.5,233.5C 268.87,236.316 269.536,238.982 271.5,241.5C 271.167,241.833 270.833,242.167 270.5,242.5C 267.474,237.617 264.807,232.45 262.5,227C 263.63,224.593 264.463,222.093 265,219.5C 266.667,218.267 268.167,216.933 269.5,215.5 Z"/></g>
<g><path style="opacity:1" fill="#c6a899" d="M 293.5,233.5 C 293.215,235.288 293.548,236.955 294.5,238.5C 295.107,238.376 295.44,238.043 295.5,237.5C 297.357,240.018 299.19,240.018 301,237.5C 301.278,238.416 301.778,239.082 302.5,239.5C 301.737,240.268 300.737,240.768 299.5,241C 300.833,241.667 302.167,241.667 303.5,241C 306.598,239.27 309.598,237.437 312.5,235.5C 311.585,234.672 310.919,233.672 310.5,232.5C 311.114,230.244 312.114,228.244 313.5,226.5C 313.787,224.879 314.787,223.879 316.5,223.5C 317.489,225.588 317.156,227.588 315.5,229.5C 318.12,236.155 320.12,236.155 321.5,229.5C 323.973,229.088 325.306,230.088 325.5,232.5C 325.402,234.553 326.069,236.22 327.5,237.5C 326.175,248.358 327.508,258.858 331.5,269C 330.972,271.881 330.306,274.715 329.5,277.5C 325.029,276.911 321.029,277.577 317.5,279.5C 315.142,279.253 313.142,279.919 311.5,281.5C 308.926,282.406 306.593,283.739 304.5,285.5C 304.167,285.5 303.833,285.5 303.5,285.5C 303.297,283.362 302.297,281.695 300.5,280.5C 301.929,279.065 303.595,278.065 305.5,277.5C 309.913,280.738 312.579,279.738 313.5,274.5C 317.174,273.958 320.841,273.625 324.5,273.5C 325.246,272.264 325.579,270.93 325.5,269.5C 327.225,269.157 327.725,268.157 327,266.5C 324.876,265.378 323.043,263.878 321.5,262C 319.167,261.333 316.833,261.333 314.5,262C 313.663,263.011 313.33,264.178 313.5,265.5C 311.777,267.78 311.111,270.447 311.5,273.5C 310.518,274.141 309.518,274.807 308.5,275.5C 307.784,274.689 306.95,274.022 306,273.5C 303.182,274.591 300.349,274.591 297.5,273.5C 297.552,271.097 297.219,268.764 296.5,266.5C 297.537,264.262 297.703,261.929 297,259.5C 294.262,258.271 291.595,256.938 289,255.5C 287.763,259.06 287.263,262.727 287.5,266.5C 285.738,266.357 284.071,266.691 282.5,267.5C 281.591,269.375 280.257,270.708 278.5,271.5C 277.38,273.575 276.38,275.741 275.5,278C 269.701,278.804 264.035,280.304 258.5,282.5C 257.572,283.768 257.405,285.101 258,286.5C 258.667,287.833 259.333,287.833 260,286.5C 260.374,287.416 260.874,288.25 261.5,289C 258.221,294.112 253.554,296.945 247.5,297.5C 247.635,299.554 246.968,301.221 245.5,302.5C 244.432,303.434 243.099,303.768 241.5,303.5C 239.901,303.768 238.568,303.434 237.5,302.5C 239.411,302.426 240.578,301.426 241,299.5C 241.508,301.904 242.675,302.571 244.5,301.5C 243.943,298.355 242.11,296.688 239,296.5C 237.319,296.608 236.152,297.275 235.5,298.5C 234.265,296.983 234.265,295.316 235.5,293.5C 234.975,292.808 234.308,292.308 233.5,292C 235.483,289.913 236.817,287.413 237.5,284.5C 239.565,285.654 240.898,287.32 241.5,289.5C 240.756,292.95 242.09,294.616 245.5,294.5C 250.271,294.908 253.271,292.741 254.5,288C 253.901,286.378 253.234,284.878 252.5,283.5C 253.909,279.961 252.576,278.294 248.5,278.5C 250.718,277.984 252.718,276.984 254.5,275.5C 252.278,273.116 251.944,270.449 253.5,267.5C 256.421,268.372 259.421,268.372 262.5,267.5C 261.908,270.691 260.741,273.691 259,276.5C 257.174,275.159 256.007,275.659 255.5,278C 255.833,278.5 256.167,279 256.5,279.5C 258.548,278.23 260.548,277.897 262.5,278.5C 262.826,273.514 263.993,268.514 266,263.5C 268.866,258.431 271.199,253.098 273,247.5C 273.232,248.737 273.732,249.737 274.5,250.5C 279.273,253.921 281.94,252.588 282.5,246.5C 287.431,245.564 289.765,242.564 289.5,237.5C 291.25,233.817 291.917,229.817 291.5,225.5C 290.167,225.5 288.833,225.5 287.5,225.5C 287.141,221.013 288.974,219.346 293,220.5C 293.03,225.021 293.197,229.355 293.5,233.5 Z"/></g>
<g><path style="opacity:1" fill="#cca78b" d="M 343.5,199.5 C 343.5,199.833 343.5,200.167 343.5,200.5C 346.427,205.561 348.427,211.061 349.5,217C 347.514,227.121 345.847,237.288 344.5,247.5C 345.924,256.629 347.59,265.629 349.5,274.5C 347.549,274.773 346.049,274.107 345,272.5C 344.464,264.691 343.131,257.024 341,249.5C 340.333,246.167 340.333,242.833 341,239.5C 345.732,228.186 345.566,217.186 340.5,206.5C 340.338,204.473 340.505,202.473 341,200.5C 341.671,199.748 342.504,199.414 343.5,199.5 Z"/></g>
<g><path style="opacity:1" fill="#9f7368" d="M 363.5,230.5 C 364.167,230.5 364.833,230.5 365.5,230.5C 371.621,228.963 372.955,230.963 369.5,236.5C 370.737,237.281 371.737,238.281 372.5,239.5C 370.159,240.712 367.993,240.378 366,238.5C 364.409,236.073 363.575,233.407 363.5,230.5 Z"/></g>
<g><path style="opacity:1" fill="#c9ad9f" d="M 400.5,208.5 C 398.904,211.314 398.404,214.314 399,217.5C 400.226,219.548 401.726,219.881 403.5,218.5C 404.237,220.382 405.404,221.048 407,220.5C 407.483,221.448 407.649,222.448 407.5,223.5C 411.125,224.322 414.625,225.656 418,227.5C 418.179,231.025 418.679,234.359 419.5,237.5C 420.183,239.176 421.517,239.843 423.5,239.5C 424.873,243.93 427.707,245.597 432,244.5C 433.261,244.759 434.261,245.426 435,246.5C 435.333,246.167 435.667,245.833 436,245.5C 436.333,246.5 436.667,247.5 437,248.5C 437.893,247.289 438.726,247.289 439.5,248.5C 435.786,249.93 432.286,249.597 429,247.5C 427.441,248.029 425.941,248.696 424.5,249.5C 423.808,248.975 423.308,248.308 423,247.5C 421.809,250.534 419.642,252.201 416.5,252.5C 415.207,251.355 414.041,251.689 413,253.5C 412.51,252.207 412.343,250.873 412.5,249.5C 411.133,246.868 410.299,247.202 410,250.5C 409.282,249.549 408.449,249.383 407.5,250C 408.451,250.718 408.617,251.551 408,252.5C 406.601,251.773 405.101,251.273 403.5,251C 404.894,250.044 405.561,248.711 405.5,247C 403.589,243.454 401.922,239.788 400.5,236C 402.359,235.399 402.692,234.566 401.5,233.5C 402.091,232.849 402.757,232.182 403.5,231.5C 402.284,230.904 400.951,230.737 399.5,231C 396.479,224.036 392.145,222.87 386.5,227.5C 385.067,222.666 383.734,222.332 382.5,226.5C 381.614,225.675 381.281,224.675 381.5,223.5C 379.365,223.853 378.032,223.02 377.5,221C 378.763,218.536 380.763,217.37 383.5,217.5C 383.5,216.167 383.5,214.833 383.5,213.5C 380.113,214.383 376.947,215.049 374,215.5C 373.544,214.256 374.044,213.423 375.5,213C 372.553,212.888 371.22,211.388 371.5,208.5C 378.543,208.72 385.543,208.386 392.5,207.5C 394.143,207.52 395.476,206.853 396.5,205.5C 398.483,205.815 399.816,206.815 400.5,208.5 Z"/></g>
<g><path style="opacity:1" fill="#a27564" d="M 433.5,230.5 C 430.69,228.822 428.357,229.155 426.5,231.5C 425.883,231.611 425.383,231.944 425,232.5C 424.71,234.92 424.21,237.254 423.5,239.5C 421.517,239.843 420.183,239.176 419.5,237.5C 419.358,233.85 420.025,230.35 421.5,227C 424.047,223.719 427.381,222.719 431.5,224C 432.742,225.875 434.076,227.709 435.5,229.5C 435.043,230.298 434.376,230.631 433.5,230.5 Z"/></g>
<g><path style="opacity:1" fill="#d29970" d="M 302.5,239.5 C 301.778,239.082 301.278,238.416 301,237.5C 299.19,240.018 297.357,240.018 295.5,237.5C 295.692,234.399 296.358,231.399 297.5,228.5C 299.833,227.167 302.167,227.167 304.5,228.5C 306.097,229.791 307.43,231.291 308.5,233C 306.964,235.699 304.964,237.865 302.5,239.5 Z"/></g>
<g><path style="opacity:1" fill="#a27661" d="M 331.5,228.5 C 330.941,231.943 329.607,234.943 327.5,237.5C 326.069,236.22 325.402,234.553 325.5,232.5C 327.246,230.748 329.246,229.415 331.5,228.5 Z"/></g>
<g><path style="opacity:1" fill="#e2a27a" d="M 433.5,230.5 C 433.5,232.167 433.5,233.833 433.5,235.5C 432.609,236.261 431.942,237.261 431.5,238.5C 430.167,239.833 428.833,239.833 427.5,238.5C 429.734,236.619 431.067,234.285 431.5,231.5C 430.167,231.5 428.833,231.5 427.5,231.5C 427.167,231.5 426.833,231.5 426.5,231.5C 428.357,229.155 430.69,228.822 433.5,230.5 Z"/></g>
<g><path style="opacity:1" fill="#9f776a" d="M 260.5,242.5 C 258.833,242.5 257.167,242.5 255.5,242.5C 255.963,239.518 256.296,236.518 256.5,233.5C 258.67,232.232 260.837,232.232 263,233.5C 263.948,237.097 263.115,240.097 260.5,242.5 Z"/></g>
<g><path style="opacity:1" fill="#a37567" d="M 289.5,237.5 C 289.765,242.564 287.431,245.564 282.5,246.5C 282.5,245.167 282.5,243.833 282.5,242.5C 278.092,242.938 276.425,240.938 277.5,236.5C 278.538,234.428 280.038,232.761 282,231.5C 283.567,232.856 285.4,233.523 287.5,233.5C 287.527,235.199 288.194,236.533 289.5,237.5 Z"/></g>
<g><path style="opacity:1" fill="#ce9d7c" d="M 237.5,246.5 C 235.709,245.609 233.876,244.609 232,243.5C 231.292,244.381 230.458,245.047 229.5,245.5C 230.471,243.517 231.471,241.517 232.5,239.5C 233.837,238.685 234.837,237.518 235.5,236C 236.549,235.508 237.549,235.674 238.5,236.5C 241.528,239.176 242.028,242.176 240,245.5C 239.329,246.252 238.496,246.586 237.5,246.5 Z"/></g>
<g><path style="opacity:1" fill="#b3846f" d="M 427.5,231.5 C 428.833,231.5 430.167,231.5 431.5,231.5C 431.067,234.285 429.734,236.619 427.5,238.5C 428.833,239.833 430.167,239.833 431.5,238.5C 431.942,237.261 432.609,236.261 433.5,235.5C 435.124,235.36 436.29,236.027 437,237.5C 438,235.833 439,234.167 440,232.5C 440.417,233.756 441.25,234.423 442.5,234.5C 442.714,236.144 442.38,237.644 441.5,239C 439.167,239.333 436.833,239.667 434.5,240C 431.982,242.779 429.482,242.945 427,240.5C 426.264,237.408 426.431,234.408 427.5,231.5 Z"/></g>
<g><path style="opacity:1" fill="#dca67e" d="M 397.5,235.5 C 397.657,236.873 397.49,238.207 397,239.5C 393.971,243.809 390.471,244.475 386.5,241.5C 388.669,239.66 390.002,237.326 390.5,234.5C 389.167,234.5 387.833,234.5 386.5,234.5C 386.5,233.5 386.5,232.5 386.5,231.5C 388.199,231.34 389.866,231.506 391.5,232C 393.391,233.442 395.391,234.609 397.5,235.5 Z"/></g>
<g><path style="opacity:1" fill="#c6a89a" d="M 426.5,231.5 C 426.833,231.5 427.167,231.5 427.5,231.5C 426.431,234.408 426.264,237.408 427,240.5C 429.482,242.945 431.982,242.779 434.5,240C 436.833,239.667 439.167,239.333 441.5,239C 442.38,237.644 442.714,236.144 442.5,234.5C 443.942,236.817 443.608,238.984 441.5,241C 442.938,241.219 444.271,241.719 445.5,242.5C 443.5,243.333 441.5,244.167 439.5,245C 442.226,245.182 444.893,245.682 447.5,246.5C 449.204,248.602 450.537,250.935 451.5,253.5C 449.424,255.937 449.091,258.603 450.5,261.5C 451.396,262.506 452.062,262.506 452.5,261.5C 452.069,260.707 451.735,259.873 451.5,259C 452.913,255.647 453.913,252.147 454.5,248.5C 455.622,247.37 456.956,246.703 458.5,246.5C 460.102,250.239 461.102,254.239 461.5,258.5C 461.277,260.342 460.943,262.175 460.5,264C 462.852,271.642 464.185,279.475 464.5,287.5C 464.167,287.5 463.833,287.5 463.5,287.5C 463.829,284.772 463.163,282.438 461.5,280.5C 460.294,277.861 458.294,277.028 455.5,278C 452.882,280.106 450.882,282.606 449.5,285.5C 447.175,286.655 446.008,288.655 446,291.5C 445.51,290.207 445.343,288.873 445.5,287.5C 443.5,287.5 441.5,287.5 439.5,287.5C 439.371,289.216 439.038,290.883 438.5,292.5C 432.105,285.67 425.772,285.837 419.5,293C 420.056,293.383 420.389,293.883 420.5,294.5C 418.16,293.428 417.827,291.761 419.5,289.5C 418.294,287.206 417.294,284.873 416.5,282.5C 417.222,282.918 417.722,283.584 418,284.5C 417.492,276.781 416.325,269.115 414.5,261.5C 415.47,258.563 416.137,255.563 416.5,252.5C 419.642,252.201 421.809,250.534 423,247.5C 423.308,248.308 423.808,248.975 424.5,249.5C 425.941,248.696 427.441,248.029 429,247.5C 432.286,249.597 435.786,249.93 439.5,248.5C 438.726,247.289 437.893,247.289 437,248.5C 436.667,247.5 436.333,246.5 436,245.5C 435.667,245.833 435.333,246.167 435,246.5C 434.261,245.426 433.261,244.759 432,244.5C 427.707,245.597 424.873,243.93 423.5,239.5C 424.21,237.254 424.71,234.92 425,232.5C 425.383,231.944 425.883,231.611 426.5,231.5 Z"/></g>
<g><path style="opacity:1" fill="#d9ab8d" d="M 277.5,236.5 C 276.425,240.938 278.092,242.938 282.5,242.5C 282.5,243.833 282.5,245.167 282.5,246.5C 281.94,252.588 279.273,253.921 274.5,250.5C 275.239,250.631 275.906,250.464 276.5,250C 275.024,245.283 275.357,240.783 277.5,236.5 Z"/></g>
<g><path style="opacity:1" fill="#a27867" d="M 237.5,246.5 C 237.5,247.5 237.5,248.5 237.5,249.5C 236.448,249.351 235.448,249.517 234.5,250C 236.5,250.333 238.5,250.667 240.5,251C 238.063,252.375 235.397,252.875 232.5,252.5C 231.801,250.005 230.801,247.672 229.5,245.5C 230.458,245.047 231.292,244.381 232,243.5C 233.876,244.609 235.709,245.609 237.5,246.5 Z"/></g>
<g><path style="opacity:1" fill="#a17564" d="M 360.5,253.5 C 359.791,252.596 358.791,252.263 357.5,252.5C 357.5,251.5 357.5,250.5 357.5,249.5C 358.312,248.007 359.645,247.34 361.5,247.5C 366.923,247.987 369.256,250.987 368.5,256.5C 365.212,256.984 362.545,255.984 360.5,253.5 Z"/></g>
<g><path style="opacity:1" fill="#c7ab9e" d="M 247.5,213.5 C 247.038,217.303 246.038,220.969 244.5,224.5C 245.5,224.5 246.5,224.5 247.5,224.5C 247.374,226.2 246.707,227.7 245.5,229C 246.009,230.169 246.842,231.002 248,231.5C 250.576,228.441 252.076,228.941 252.5,233C 251.38,235.278 252.213,236.778 255,237.5C 255.21,235.942 255.71,234.609 256.5,233.5C 256.296,236.518 255.963,239.518 255.5,242.5C 257.167,242.5 258.833,242.5 260.5,242.5C 262.124,242.36 263.29,243.027 264,244.5C 264.667,240.5 265.333,240.5 266,244.5C 268.339,242.922 270.172,243.255 271.5,245.5C 270.411,250.35 268.745,255.017 266.5,259.5C 262.809,259.331 259.142,259.998 255.5,261.5C 255.5,259.833 255.5,258.167 255.5,256.5C 251.932,256.759 250.599,258.759 251.5,262.5C 250.167,262.5 248.833,262.5 247.5,262.5C 247.33,263.822 247.663,264.989 248.5,266C 250.382,266.198 252.048,266.698 253.5,267.5C 251.944,270.449 252.278,273.116 254.5,275.5C 252.718,276.984 250.718,277.984 248.5,278.5C 246.389,280.631 244.056,282.298 241.5,283.5C 241.5,285.5 241.5,287.5 241.5,289.5C 240.898,287.32 239.565,285.654 237.5,284.5C 236.817,287.413 235.483,289.913 233.5,292C 234.308,292.308 234.975,292.808 235.5,293.5C 234.265,295.316 234.265,296.983 235.5,298.5C 235.66,300.153 236.326,301.486 237.5,302.5C 238.568,303.434 239.901,303.768 241.5,303.5C 227.252,304.738 218.752,298.071 216,283.5C 216.828,269.514 221.328,256.847 229.5,245.5C 230.801,247.672 231.801,250.005 232.5,252.5C 235.397,252.875 238.063,252.375 240.5,251C 238.5,250.667 236.5,250.333 234.5,250C 235.448,249.517 236.448,249.351 237.5,249.5C 237.5,248.5 237.5,247.5 237.5,246.5C 238.496,246.586 239.329,246.252 240,245.5C 242.028,242.176 241.528,239.176 238.5,236.5C 237.549,235.674 236.549,235.508 235.5,236C 234.837,237.518 233.837,238.685 232.5,239.5C 237.517,230.793 242.517,222.127 247.5,213.5 Z"/></g>
<g><path style="opacity:1" fill="#c4a18a" d="M 350.5,196.5 C 351.079,200.582 352.412,204.248 354.5,207.5C 355.546,214.13 355.713,220.797 355,227.5C 352.703,231.889 351.537,236.556 351.5,241.5C 354.309,251.308 355.643,261.308 355.5,271.5C 354.5,271.5 353.5,271.5 352.5,271.5C 350.293,263.925 348.626,256.092 347.5,248C 348.633,239.767 350.133,231.6 352,223.5C 352.667,219.167 352.667,214.833 352,210.5C 350.048,207.109 348.715,203.442 348,199.5C 347.292,198.619 346.458,197.953 345.5,197.5C 345.5,194.833 345.5,192.167 345.5,189.5C 346.721,188.972 347.887,188.305 349,187.5C 349.181,190.695 349.681,193.695 350.5,196.5 Z"/></g>
<g><path style="opacity:1" fill="#9f766a" d="M 296.5,266.5 C 293.722,266.978 291.722,265.978 290.5,263.5C 289.813,265.274 288.98,266.941 288,268.5C 287.536,267.906 287.369,267.239 287.5,266.5C 287.263,262.727 287.763,259.06 289,255.5C 291.595,256.938 294.262,258.271 297,259.5C 297.703,261.929 297.537,264.262 296.5,266.5 Z"/></g>
<g><path style="opacity:1" fill="#a1796d" d="M 379.5,256.5 C 387.663,256.496 389.996,260.163 386.5,267.5C 388.751,271.947 392.417,273.614 397.5,272.5C 391.11,275.783 386.777,273.783 384.5,266.5C 382.833,265.167 381.167,263.833 379.5,262.5C 378.181,260.468 378.181,258.468 379.5,256.5 Z"/></g>
<g><path style="opacity:1" fill="#a57667" d="M 431.5,261.5 C 429.195,256.826 426.528,256.492 423.5,260.5C 425.045,261.452 426.712,261.785 428.5,261.5C 428.975,264.313 427.975,266.313 425.5,267.5C 424.687,266.347 423.687,266.347 422.5,267.5C 421.34,263.541 421.173,259.541 422,255.5C 422.739,254.426 423.739,253.759 425,253.5C 427.235,257.019 429.901,257.352 433,254.5C 434.711,254.439 436.044,255.106 437,256.5C 437.495,258.473 437.662,260.473 437.5,262.5C 435.435,262.483 433.435,262.15 431.5,261.5 Z"/></g>
<g><path style="opacity:1" fill="#a58376" d="M 412.5,249.5 C 412.343,250.873 412.51,252.207 413,253.5C 414.041,251.689 415.207,251.355 416.5,252.5C 416.137,255.563 415.47,258.563 414.5,261.5C 416.325,269.115 417.492,276.781 418,284.5C 417.722,283.584 417.222,282.918 416.5,282.5C 415.167,282.5 413.833,282.5 412.5,282.5C 412.461,280.641 413.294,279.308 415,278.5C 415.722,275.739 415.555,273.073 414.5,270.5C 414.287,267.525 413.287,264.858 411.5,262.5C 411.552,258.057 411.885,253.724 412.5,249.5 Z"/></g>
<g><path style="opacity:1" fill="#a27766" d="M 330.5,252.5 C 334.639,255.302 336.972,259.302 337.5,264.5C 336.675,265.386 335.675,265.719 334.5,265.5C 332.364,261.424 331.03,257.09 330.5,252.5 Z"/></g>
<g><path style="opacity:1" fill="#a27768" d="M 367.5,261.5 C 366.841,265.994 364.175,267.661 359.5,266.5C 359.5,264.5 359.5,262.5 359.5,260.5C 362.666,257.534 365.332,257.867 367.5,261.5 Z"/></g>
<g><path style="opacity:1" fill="#a57e70" d="M 277.5,236.5 C 275.357,240.783 275.024,245.283 276.5,250C 275.906,250.464 275.239,250.631 274.5,250.5C 273.732,249.737 273.232,248.737 273,247.5C 271.199,253.098 268.866,258.431 266,263.5C 263.993,268.514 262.826,273.514 262.5,278.5C 260.548,277.897 258.548,278.23 256.5,279.5C 256.167,279 255.833,278.5 255.5,278C 256.007,275.659 257.174,275.159 259,276.5C 260.741,273.691 261.908,270.691 262.5,267.5C 259.421,268.372 256.421,268.372 253.5,267.5C 252.048,266.698 250.382,266.198 248.5,266C 247.663,264.989 247.33,263.822 247.5,262.5C 248.833,262.5 250.167,262.5 251.5,262.5C 250.599,258.759 251.932,256.759 255.5,256.5C 255.5,258.167 255.5,259.833 255.5,261.5C 259.142,259.998 262.809,259.331 266.5,259.5C 268.745,255.017 270.411,250.35 271.5,245.5C 273.408,241.644 275.241,237.644 277,233.5C 277.483,234.448 277.649,235.448 277.5,236.5 Z"/></g>
<g><path style="opacity:1" fill="#daa87c" d="M 325.5,269.5 C 324.038,268.542 322.705,267.376 321.5,266C 320.207,265.51 318.873,265.343 317.5,265.5C 317.5,267.167 317.5,268.833 317.5,270.5C 314.09,270.616 312.756,268.95 313.5,265.5C 313.33,264.178 313.663,263.011 314.5,262C 316.833,261.333 319.167,261.333 321.5,262C 323.043,263.878 324.876,265.378 327,266.5C 327.725,268.157 327.225,269.157 325.5,269.5 Z"/></g>
<g><path style="opacity:1" fill="#a1776a" d="M 404.5,267.5 C 404.103,266.475 403.437,266.308 402.5,267C 400.917,268.758 399.25,270.258 397.5,271.5C 396.792,269.622 395.626,267.955 394,266.5C 393.174,260.824 395.674,258.157 401.5,258.5C 401.579,259.93 401.246,261.264 400.5,262.5C 403.447,263.321 406.447,263.821 409.5,264C 410.337,265.011 410.67,266.178 410.5,267.5C 408.5,267.5 406.5,267.5 404.5,267.5 Z"/></g>
<g><path style="opacity:1" fill="#dea073" d="M 431.5,261.5 C 431.797,265.245 430.297,267.911 427,269.5C 425.97,269.164 425.47,268.497 425.5,267.5C 427.975,266.313 428.975,264.313 428.5,261.5C 426.712,261.785 425.045,261.452 423.5,260.5C 426.528,256.492 429.195,256.826 431.5,261.5 Z"/></g>
<g><path style="opacity:1" fill="#a07366" d="M 278.5,271.5 C 276.606,272.048 274.94,273.048 273.5,274.5C 269.041,271.752 267.541,267.752 269,262.5C 270.113,261.289 271.28,261.289 272.5,262.5C 274.457,267.373 276.957,267.706 280,263.5C 280.692,264.025 281.192,264.692 281.5,265.5C 279.962,267.243 278.962,269.243 278.5,271.5 Z"/></g>
<g><path style="opacity:1" fill="#c8ab9d" d="M 379.5,256.5 C 378.181,258.468 378.181,260.468 379.5,262.5C 381.167,263.833 382.833,265.167 384.5,266.5C 386.777,273.783 391.11,275.783 397.5,272.5C 397.5,272.167 397.5,271.833 397.5,271.5C 399.25,270.258 400.917,268.758 402.5,267C 403.437,266.308 404.103,266.475 404.5,267.5C 407.69,268.672 411.023,269.672 414.5,270.5C 415.555,273.073 415.722,275.739 415,278.5C 413.294,279.308 412.461,280.641 412.5,282.5C 413.833,282.5 415.167,282.5 416.5,282.5C 417.294,284.873 418.294,287.206 419.5,289.5C 417.827,291.761 418.16,293.428 420.5,294.5C 420.517,296.565 420.85,298.565 421.5,300.5C 420.861,301.097 420.528,301.93 420.5,303C 420.684,304.376 421.351,305.209 422.5,305.5C 414.382,308.538 406.049,311.205 397.5,313.5C 397.162,311.345 397.162,309.011 397.5,306.5C 396.5,306.5 395.5,306.5 394.5,306.5C 395.969,301.28 396.636,295.946 396.5,290.5C 392.387,288.614 388.054,287.614 383.5,287.5C 380.419,285.247 377.752,282.413 375.5,279C 370.27,278.07 365.27,276.404 360.5,274C 359.565,271.619 359.232,269.119 359.5,266.5C 364.175,267.661 366.841,265.994 367.5,261.5C 368.404,262.209 368.737,263.209 368.5,264.5C 369.5,264.5 370.5,264.5 371.5,264.5C 371.229,262.179 371.896,260.179 373.5,258.5C 372.975,257.808 372.308,257.308 371.5,257C 373.579,255.36 375.912,254.194 378.5,253.5C 379.386,254.325 379.719,255.325 379.5,256.5 Z"/></g>
<g><path style="opacity:1" fill="#a37669" d="M 313.5,265.5 C 312.756,268.95 314.09,270.616 317.5,270.5C 317.5,268.833 317.5,267.167 317.5,265.5C 318.873,265.343 320.207,265.51 321.5,266C 322.705,267.376 324.038,268.542 325.5,269.5C 325.579,270.93 325.246,272.264 324.5,273.5C 320.841,273.625 317.174,273.958 313.5,274.5C 312.508,274.672 311.842,274.338 311.5,273.5C 311.111,270.447 311.777,267.78 313.5,265.5 Z"/></g>
<g><path style="opacity:1" fill="#51804c" d="M 317.5,279.5 C 317.5,279.833 317.5,280.167 317.5,280.5C 316.757,283.57 314.757,285.236 311.5,285.5C 311.5,284.167 311.5,282.833 311.5,281.5C 313.142,279.919 315.142,279.253 317.5,279.5 Z"/></g>
<g><path style="opacity:1" fill="#467647" d="M 363.5,279.5 C 365.5,279.5 367.5,279.5 369.5,279.5C 369.251,282.744 367.584,284.744 364.5,285.5C 364.167,285.5 363.833,285.5 363.5,285.5C 361.824,284.817 361.157,283.483 361.5,281.5C 362.5,281.167 363.167,280.5 363.5,279.5 Z"/></g>
<g><path style="opacity:1" fill="#a37764" d="M 461.5,280.5 C 456.599,281.41 454.266,284.41 454.5,289.5C 451.05,290.244 449.384,288.91 449.5,285.5C 450.882,282.606 452.882,280.106 455.5,278C 458.294,277.028 460.294,277.861 461.5,280.5 Z"/></g>
<g><path style="opacity:1" fill="#ad7b6f" d="M 303.5,285.5 C 303.833,285.5 304.167,285.5 304.5,285.5C 304.573,287.027 303.906,288.027 302.5,288.5C 299.043,287.541 295.543,287.875 292,289.5C 291.403,295.817 292.236,301.817 294.5,307.5C 294.557,308.609 294.89,309.609 295.5,310.5C 293.876,310.64 292.71,309.973 292,308.5C 291.67,301.021 290.503,293.688 288.5,286.5C 292.763,275.948 296.763,275.948 300.5,286.5C 301.417,285.873 302.417,285.539 303.5,285.5 Z"/></g>
<g><path style="opacity:1" fill="#d99f78" d="M 461.5,280.5 C 463.163,282.438 463.829,284.772 463.5,287.5C 462.5,289.167 461.167,290.5 459.5,291.5C 457.447,291.598 455.78,290.931 454.5,289.5C 454.266,284.41 456.599,281.41 461.5,280.5 Z"/></g>
<g><path style="opacity:1" fill="#d09e80" d="M 248.5,278.5 C 252.576,278.294 253.909,279.961 252.5,283.5C 249.335,283.752 247.335,285.418 246.5,288.5C 247.833,289.167 249.167,289.833 250.5,290.5C 248.166,292.987 245.666,292.987 243,290.5C 242.333,291.167 242.333,291.833 243,292.5C 243.995,293.066 244.828,293.733 245.5,294.5C 242.09,294.616 240.756,292.95 241.5,289.5C 241.5,287.5 241.5,285.5 241.5,283.5C 244.056,282.298 246.389,280.631 248.5,278.5 Z"/></g>
<g><path style="opacity:1" fill="#ae7c64" d="M 252.5,283.5 C 253.234,284.878 253.901,286.378 254.5,288C 253.271,292.741 250.271,294.908 245.5,294.5C 244.828,293.733 243.995,293.066 243,292.5C 242.333,291.833 242.333,291.167 243,290.5C 245.666,292.987 248.166,292.987 250.5,290.5C 249.167,289.833 247.833,289.167 246.5,288.5C 247.335,285.418 249.335,283.752 252.5,283.5 Z"/></g>
<g><path style="opacity:1" fill="#dca456" d="M 363.5,279.5 C 363.167,280.5 362.5,281.167 361.5,281.5C 360.596,282.209 360.263,283.209 360.5,284.5C 356.092,284.062 354.425,286.062 355.5,290.5C 357.5,290.5 359.5,290.5 361.5,290.5C 361.365,288.446 362.032,286.779 363.5,285.5C 363.833,285.5 364.167,285.5 364.5,285.5C 365.873,285.657 367.207,285.49 368.5,285C 370.07,282.073 372.404,281.073 375.5,282C 379.86,285.561 382.526,290.061 383.5,295.5C 366.998,298.183 350.331,299.183 333.5,298.5C 336.867,297.865 340.2,296.865 343.5,295.5C 346.118,296.373 348.784,297.039 351.5,297.5C 353.067,297.523 354.4,297.023 355.5,296C 351.63,293.235 347.63,290.735 343.5,288.5C 340.027,290.549 336.36,292.215 332.5,293.5C 332.5,292.833 332.5,292.167 332.5,291.5C 334.042,290.699 335.708,290.366 337.5,290.5C 337.5,289.5 337.5,288.5 337.5,287.5C 340.812,287.735 341.645,286.735 340,284.5C 337.484,285.773 334.984,285.773 332.5,284.5C 326.121,286.847 319.788,289.347 313.5,292C 317.641,290.555 321.975,289.888 326.5,290C 321.283,290.846 316.617,292.846 312.5,296C 318.966,296.929 325.299,297.763 331.5,298.5C 327.5,298.5 323.5,298.5 319.5,298.5C 313.251,297.158 306.917,296.325 300.5,296C 299.483,293.16 300.15,290.66 302.5,288.5C 303.906,288.027 304.573,287.027 304.5,285.5C 306.593,283.739 308.926,282.406 311.5,281.5C 311.5,282.833 311.5,284.167 311.5,285.5C 314.757,285.236 316.757,283.57 317.5,280.5C 322.782,279.725 328.115,279.058 333.5,278.5C 334.919,279.451 336.585,279.784 338.5,279.5C 344.128,278.575 349.795,277.908 355.5,277.5C 358.441,277.621 361.108,278.287 363.5,279.5 Z"/></g>
<g><path style="opacity:1" fill="#98904f" d="M 361.5,281.5 C 361.157,283.483 361.824,284.817 363.5,285.5C 362.032,286.779 361.365,288.446 361.5,290.5C 359.5,290.5 357.5,290.5 355.5,290.5C 354.425,286.062 356.092,284.062 360.5,284.5C 360.263,283.209 360.596,282.209 361.5,281.5 Z"/></g>
<g><path style="opacity:1" fill="#3b763c" d="M 357.5,285.5 C 358.5,285.5 359.5,285.5 360.5,285.5C 360.5,286.833 360.5,288.167 360.5,289.5C 359.167,289.5 357.833,289.5 356.5,289.5C 356.433,288.041 356.766,286.708 357.5,285.5 Z"/></g>
<g><path style="opacity:1" fill="#a27667" d="M 438.5,292.5 C 438.5,295.167 438.5,297.833 438.5,300.5C 434.946,300.849 431.613,300.849 428.5,300.5C 429.496,300.586 430.329,300.252 431,299.5C 431.494,297.866 431.66,296.199 431.5,294.5C 427.062,293.425 425.062,295.092 425.5,299.5C 424.041,299.433 422.708,299.766 421.5,300.5C 420.85,298.565 420.517,296.565 420.5,294.5C 420.389,293.883 420.056,293.383 419.5,293C 425.772,285.837 432.105,285.67 438.5,292.5 Z"/></g>
<g><path style="opacity:1" fill="#e0b05e" d="M 332.5,291.5 C 332.278,288.924 330.945,288.09 328.5,289C 327.62,290.356 327.286,291.856 327.5,293.5C 329.167,293.5 330.833,293.5 332.5,293.5C 336.36,292.215 340.027,290.549 343.5,288.5C 347.63,290.735 351.63,293.235 355.5,296C 354.4,297.023 353.067,297.523 351.5,297.5C 348.784,297.039 346.118,296.373 343.5,295.5C 340.2,296.865 336.867,297.865 333.5,298.5C 332.833,298.5 332.167,298.5 331.5,298.5C 325.299,297.763 318.966,296.929 312.5,296C 316.617,292.846 321.283,290.846 326.5,290C 321.975,289.888 317.641,290.555 313.5,292C 319.788,289.347 326.121,286.847 332.5,284.5C 334.984,285.773 337.484,285.773 340,284.5C 341.645,286.735 340.812,287.735 337.5,287.5C 337.5,288.5 337.5,289.5 337.5,290.5C 335.708,290.366 334.042,290.699 332.5,291.5 Z"/></g>
<g><path style="opacity:1" fill="#c9ada0" d="M 461.5,258.5 C 463.628,265.233 465.128,272.233 466,279.5C 468.128,293.771 469.128,308.105 469,322.5C 467.461,332.87 461.627,339.203 451.5,341.5C 442.074,343.884 432.407,345.717 422.5,347C 421.565,349.381 421.232,351.881 421.5,354.5C 416.986,354.429 412.32,354.763 407.5,355.5C 409.081,353.858 409.747,351.858 409.5,349.5C 411.527,349.338 413.527,349.505 415.5,350C 415.167,350.333 414.833,350.667 414.5,351C 415.76,352.113 416.927,352.28 418,351.5C 418.218,347.618 418.052,343.951 417.5,340.5C 418.63,339.378 419.297,338.044 419.5,336.5C 420.239,336.631 420.906,336.464 421.5,336C 424.41,333.486 424.91,330.653 423,327.5C 422.667,328.167 422.333,328.833 422,329.5C 421.177,326.878 420.177,324.545 419,322.5C 419.893,321.919 420.893,321.585 422,321.5C 423.951,322.285 425.785,323.285 427.5,324.5C 428.72,323.289 429.887,323.289 431,324.5C 431.5,324 432,323.5 432.5,323C 431.76,321.215 431.093,319.382 430.5,317.5C 428.892,316.758 427.225,316.591 425.5,317C 428.346,313.796 431.68,312.296 435.5,312.5C 436.368,314.625 437.368,314.791 438.5,313C 436.788,311.077 435.454,308.911 434.5,306.5C 435.723,305.386 437.056,305.219 438.5,306C 440.102,308.111 442.102,309.611 444.5,310.5C 446,310.547 447,309.881 447.5,308.5C 446.68,306.889 445.346,306.222 443.5,306.5C 443.5,305.5 443.5,304.5 443.5,303.5C 436.396,303.342 429.396,304.008 422.5,305.5C 421.962,303.883 421.629,302.216 421.5,300.5C 422.708,299.766 424.041,299.433 425.5,299.5C 426.391,300.11 427.391,300.443 428.5,300.5C 431.613,300.849 434.946,300.849 438.5,300.5C 438.5,297.833 438.5,295.167 438.5,292.5C 439.038,290.883 439.371,289.216 439.5,287.5C 441.5,287.5 443.5,287.5 445.5,287.5C 445.343,288.873 445.51,290.207 446,291.5C 446.008,288.655 447.175,286.655 449.5,285.5C 449.384,288.91 451.05,290.244 454.5,289.5C 455.78,290.931 457.447,291.598 459.5,291.5C 461.087,293.619 460.754,295.286 458.5,296.5C 456.61,294.422 454.276,293.089 451.5,292.5C 450.585,293.328 449.919,294.328 449.5,295.5C 451.021,295.88 452.687,296.046 454.5,296C 456.541,299.362 459.541,300.362 463.5,299C 465.689,295.321 466.023,291.488 464.5,287.5C 464.185,279.475 462.852,271.642 460.5,264C 460.943,262.175 461.277,260.342 461.5,258.5 Z"/></g>
<g><path style="opacity:1" fill="#d49674" d="M 428.5,300.5 C 427.391,300.443 426.391,300.11 425.5,299.5C 425.062,295.092 427.062,293.425 431.5,294.5C 431.66,296.199 431.494,297.866 431,299.5C 430.329,300.252 429.496,300.586 428.5,300.5 Z"/></g>
<g><path style="opacity:1" fill="#aa8576" d="M 463.5,287.5 C 463.833,287.5 464.167,287.5 464.5,287.5C 466.023,291.488 465.689,295.321 463.5,299C 459.541,300.362 456.541,299.362 454.5,296C 452.687,296.046 451.021,295.88 449.5,295.5C 449.919,294.328 450.585,293.328 451.5,292.5C 454.276,293.089 456.61,294.422 458.5,296.5C 460.754,295.286 461.087,293.619 459.5,291.5C 461.167,290.5 462.5,289.167 463.5,287.5 Z"/></g>
<g><path style="opacity:1" fill="#a17669" d="M 407.5,289.5 C 408.822,289.33 409.989,289.663 411,290.5C 411.672,293.179 412.839,295.512 414.5,297.5C 414.392,298.442 414.059,299.275 413.5,300C 411.243,301.45 408.91,302.617 406.5,303.5C 406.177,299.292 407.511,295.792 410.5,293C 410.167,292.5 409.833,292 409.5,291.5C 407.528,292.305 406.028,293.639 405,295.5C 404.458,292.918 405.292,290.918 407.5,289.5 Z"/></g>
<g><path style="opacity:1" fill="#bd504e" d="M 302.5,288.5 C 300.15,290.66 299.483,293.16 300.5,296C 306.917,296.325 313.251,297.158 319.5,298.5C 334.658,299.496 349.991,299.83 365.5,299.5C 365.238,300.978 365.571,302.311 366.5,303.5C 368.455,302.547 370.122,301.213 371.5,299.5C 376.813,298.893 381.813,297.56 386.5,295.5C 386.938,295.565 387.272,295.399 387.5,295C 386.373,292.377 385.039,289.877 383.5,287.5C 388.054,287.614 392.387,288.614 396.5,290.5C 396.636,295.946 395.969,301.28 394.5,306.5C 392.108,310.248 390.108,314.248 388.5,318.5C 388.167,318.5 387.833,318.5 387.5,318.5C 386.041,318.433 384.708,318.766 383.5,319.5C 380.962,319.507 378.462,319.841 376,320.5C 371.982,318.696 367.816,318.196 363.5,319C 358.982,322.132 358.649,325.465 362.5,329C 361.833,329.333 361.167,329.667 360.5,330C 351.482,330.832 342.482,330.665 333.5,329.5C 332.754,328.264 332.421,326.93 332.5,325.5C 335.957,325.333 336.29,324.333 333.5,322.5C 330.181,325.231 326.515,325.898 322.5,324.5C 317.587,327.084 316.587,325.917 319.5,321C 319.167,320.5 318.833,320 318.5,319.5C 317.749,320.376 317.249,321.376 317,322.5C 314.392,321.725 311.892,320.725 309.5,319.5C 307.95,320.732 306.283,321.232 304.5,321C 303.167,318.333 303.167,315.667 304.5,313C 303.234,312.691 302.067,312.191 301,311.5C 300.667,311.833 300.333,312.167 300,312.5C 298.343,310.582 296.51,308.915 294.5,307.5C 292.236,301.817 291.403,295.817 292,289.5C 295.543,287.875 299.043,287.541 302.5,288.5 Z"/></g>
<g><path style="opacity:1" fill="#56793e" d="M 342.5,290.5 C 343.833,290.5 345.167,290.5 346.5,290.5C 346.5,291.5 346.5,292.5 346.5,293.5C 345.167,293.5 343.833,293.5 342.5,293.5C 342.5,292.5 342.5,291.5 342.5,290.5 Z"/></g>
<g><path style="opacity:1" fill="#5a7d45" d="M 332.5,291.5 C 332.5,292.167 332.5,292.833 332.5,293.5C 330.833,293.5 329.167,293.5 327.5,293.5C 327.286,291.856 327.62,290.356 328.5,289C 330.945,288.09 332.278,288.924 332.5,291.5 Z"/></g>
<g><path style="opacity:1" fill="#9f7969" d="M 237.5,302.5 C 236.326,301.486 235.66,300.153 235.5,298.5C 236.152,297.275 237.319,296.608 239,296.5C 242.11,296.688 243.943,298.355 244.5,301.5C 242.675,302.571 241.508,301.904 241,299.5C 240.578,301.426 239.411,302.426 237.5,302.5 Z"/></g>
<g><path style="opacity:1" fill="#c16249" d="M 383.5,295.5 C 384.5,295.5 385.5,295.5 386.5,295.5C 381.813,297.56 376.813,298.893 371.5,299.5C 370.122,301.213 368.455,302.547 366.5,303.5C 365.571,302.311 365.238,300.978 365.5,299.5C 349.991,299.83 334.658,299.496 319.5,298.5C 323.5,298.5 327.5,298.5 331.5,298.5C 332.167,298.5 332.833,298.5 333.5,298.5C 350.331,299.183 366.998,298.183 383.5,295.5 Z"/></g>
<g><path style="opacity:1" fill="#a88273" d="M 435.5,312.5 C 434.537,309.931 433.204,307.598 431.5,305.5C 430.769,307.401 430.769,309.401 431.5,311.5C 428.15,311.665 424.817,311.498 421.5,311C 423.002,310.417 424.335,309.584 425.5,308.5C 420.262,307.856 415.596,309.356 411.5,313C 407.5,313.333 403.5,313.667 399.5,314C 395.904,315.785 392.238,317.285 388.5,318.5C 390.108,314.248 392.108,310.248 394.5,306.5C 395.5,306.5 396.5,306.5 397.5,306.5C 397.162,309.011 397.162,311.345 397.5,313.5C 406.049,311.205 414.382,308.538 422.5,305.5C 429.396,304.008 436.396,303.342 443.5,303.5C 443.5,304.5 443.5,305.5 443.5,306.5C 445.346,306.222 446.68,306.889 447.5,308.5C 447,309.881 446,310.547 444.5,310.5C 442.102,309.611 440.102,308.111 438.5,306C 437.056,305.219 435.723,305.386 434.5,306.5C 435.454,308.911 436.788,311.077 438.5,313C 437.368,314.791 436.368,314.625 435.5,312.5 Z"/></g>
<g><path style="opacity:1" fill="#ba998c" d="M 451.5,341.5 C 447.466,341.505 443.466,341.838 439.5,342.5C 439.98,339.995 440.98,337.662 442.5,335.5C 443.325,334.614 444.325,334.281 445.5,334.5C 445.201,336.604 445.534,338.604 446.5,340.5C 446.833,340.333 447.167,340.167 447.5,340C 446.707,336.589 446.207,333.089 446,329.5C 445.517,330.448 445.351,331.448 445.5,332.5C 441.416,332.957 437.583,332.29 434,330.5C 433.833,330.167 433.667,329.833 433.5,329.5C 435.078,328.702 436.744,328.202 438.5,328C 436.887,325.772 436.22,323.272 436.5,320.5C 438.929,320.585 440.929,321.585 442.5,323.5C 445.003,322.45 446.503,323.45 447,326.5C 447.483,325.552 447.649,324.552 447.5,323.5C 452.001,323.664 456.001,322.331 459.5,319.5C 460.242,321.108 460.409,322.775 460,324.5C 461.987,325.218 463.821,326.218 465.5,327.5C 463.824,330.173 462.158,332.839 460.5,335.5C 456.094,338.196 453.094,336.862 451.5,331.5C 450.675,330.614 449.675,330.281 448.5,330.5C 448.338,332.527 448.505,334.527 449,336.5C 450.892,337.617 451.725,339.284 451.5,341.5 Z"/></g>
<g><path style="opacity:1" fill="#b5816b" d="M 387.5,318.5 C 385.003,319.674 383.67,321.674 383.5,324.5C 385.822,332.814 385.989,341.148 384,349.5C 382.087,351.187 379.92,351.687 377.5,351C 376.695,349.028 375.361,347.528 373.5,346.5C 372.259,349.537 372.259,352.537 373.5,355.5C 371.883,354.962 370.216,354.629 368.5,354.5C 368.5,353.833 368.167,353.5 367.5,353.5C 367.5,351.5 367.5,349.5 367.5,347.5C 358.161,347.334 348.827,347.5 339.5,348C 339,348.5 338.5,349 338,349.5C 335.303,346.13 331.803,344.796 327.5,345.5C 320.911,342.237 314.578,338.571 308.5,334.5C 307.833,334.5 307.167,334.5 306.5,334.5C 306.982,333.584 307.315,332.584 307.5,331.5C 306.063,329.423 305.396,327.09 305.5,324.5C 306.833,325.933 308.333,327.267 310,328.5C 310.055,326.115 311.222,324.781 313.5,324.5C 316.424,326.082 319.091,328.082 321.5,330.5C 322.386,329.675 322.719,328.675 322.5,327.5C 324.527,327.338 326.527,327.505 328.5,328C 331.167,330.667 333.833,333.333 336.5,336C 347.393,338.529 357.726,337.029 367.5,331.5C 367.833,330.833 368.167,330.167 368.5,329.5C 363.896,328.121 362.23,325.288 363.5,321C 367.651,320.857 371.818,321.023 376,321.5C 378.167,321.333 380.333,321.167 382.5,321C 383.056,320.617 383.389,320.117 383.5,319.5C 384.708,318.766 386.041,318.433 387.5,318.5 Z"/></g>
<g><path style="opacity:1" fill="#b1524c" d="M 294.5,307.5 C 296.51,308.915 298.343,310.582 300,312.5C 300.333,312.167 300.667,311.833 301,311.5C 302.067,312.191 303.234,312.691 304.5,313C 303.167,315.667 303.167,318.333 304.5,321C 306.283,321.232 307.95,320.732 309.5,319.5C 311.892,320.725 314.392,321.725 317,322.5C 317.249,321.376 317.749,320.376 318.5,319.5C 318.833,320 319.167,320.5 319.5,321C 316.587,325.917 317.587,327.084 322.5,324.5C 326.515,325.898 330.181,325.231 333.5,322.5C 336.29,324.333 335.957,325.333 332.5,325.5C 332.421,326.93 332.754,328.264 333.5,329.5C 342.482,330.665 351.482,330.832 360.5,330C 361.167,329.667 361.833,329.333 362.5,329C 358.649,325.465 358.982,322.132 363.5,319C 367.816,318.196 371.982,318.696 376,320.5C 378.462,319.841 380.962,319.507 383.5,319.5C 383.389,320.117 383.056,320.617 382.5,321C 380.333,321.167 378.167,321.333 376,321.5C 371.818,321.023 367.651,320.857 363.5,321C 362.23,325.288 363.896,328.121 368.5,329.5C 368.167,330.167 367.833,330.833 367.5,331.5C 357.726,337.029 347.393,338.529 336.5,336C 333.833,333.333 331.167,330.667 328.5,328C 326.527,327.505 324.527,327.338 322.5,327.5C 322.719,328.675 322.386,329.675 321.5,330.5C 319.091,328.082 316.424,326.082 313.5,324.5C 311.222,324.781 310.055,326.115 310,328.5C 308.333,327.267 306.833,325.933 305.5,324.5C 303.871,323.375 302.371,322.041 301,320.5C 298.938,317.277 297.104,313.943 295.5,310.5C 294.89,309.609 294.557,308.609 294.5,307.5 Z"/></g>
<g><path style="opacity:1" fill="#c9aa9b" d="M 435.5,312.5 C 431.68,312.296 428.346,313.796 425.5,317C 427.225,316.591 428.892,316.758 430.5,317.5C 431.093,319.382 431.76,321.215 432.5,323C 432,323.5 431.5,324 431,324.5C 429.887,323.289 428.72,323.289 427.5,324.5C 425.785,323.285 423.951,322.285 422,321.5C 420.893,321.585 419.893,321.919 419,322.5C 420.177,324.545 421.177,326.878 422,329.5C 422.333,328.833 422.667,328.167 423,327.5C 424.91,330.653 424.41,333.486 421.5,336C 420.906,336.464 420.239,336.631 419.5,336.5C 419.297,338.044 418.63,339.378 417.5,340.5C 418.052,343.951 418.218,347.618 418,351.5C 416.927,352.28 415.76,352.113 414.5,351C 414.833,350.667 415.167,350.333 415.5,350C 413.527,349.505 411.527,349.338 409.5,349.5C 409.747,351.858 409.081,353.858 407.5,355.5C 396.068,355.126 384.735,355.126 373.5,355.5C 372.259,352.537 372.259,349.537 373.5,346.5C 375.361,347.528 376.695,349.028 377.5,351C 379.92,351.687 382.087,351.187 384,349.5C 385.989,341.148 385.822,332.814 383.5,324.5C 383.67,321.674 385.003,319.674 387.5,318.5C 387.833,318.5 388.167,318.5 388.5,318.5C 392.238,317.285 395.904,315.785 399.5,314C 403.5,313.667 407.5,313.333 411.5,313C 415.596,309.356 420.262,307.856 425.5,308.5C 424.335,309.584 423.002,310.417 421.5,311C 424.817,311.498 428.15,311.665 431.5,311.5C 430.769,309.401 430.769,307.401 431.5,305.5C 433.204,307.598 434.537,309.931 435.5,312.5 Z"/></g>
<g><path style="opacity:1" fill="#b18d7f" d="M 401.5,322.5 C 402.75,322.577 403.583,323.244 404,324.5C 403.723,330.571 404.89,336.237 407.5,341.5C 406.349,342.731 405.183,342.731 404,341.5C 402.684,344.028 401.517,344.028 400.5,341.5C 399.795,343.672 398.795,345.672 397.5,347.5C 396.702,345.922 396.202,344.256 396,342.5C 394.556,344.155 392.722,344.822 390.5,344.5C 390.728,339.985 390.062,335.652 388.5,331.5C 391.525,331.123 394.525,330.956 397.5,331C 398.38,332.356 398.714,333.856 398.5,335.5C 399.5,335.5 400.5,335.5 401.5,335.5C 401.5,331.167 401.5,326.833 401.5,322.5 Z"/></g>
<g><path style="opacity:1" fill="#a37666" d="M 419.5,336.5 C 417.79,338.2 415.79,339.533 413.5,340.5C 412.328,340.081 411.328,339.415 410.5,338.5C 411.371,336.942 412.371,335.275 413.5,333.5C 412.625,331.227 410.958,330.227 408.5,330.5C 408.5,328.5 408.5,326.5 408.5,324.5C 409.833,324.5 411.167,324.5 412.5,324.5C 412.312,326.103 412.812,327.437 414,328.5C 415.733,326.398 417.733,326.065 420,327.5C 420.495,330.531 420.329,333.531 419.5,336.5 Z"/></g>
<g><path style="opacity:0.999" fill="#c9ab9e" d="M 296.5,266.5 C 297.219,268.764 297.552,271.097 297.5,273.5C 300.349,274.591 303.182,274.591 306,273.5C 306.95,274.022 307.784,274.689 308.5,275.5C 309.518,274.807 310.518,274.141 311.5,273.5C 311.842,274.338 312.508,274.672 313.5,274.5C 312.579,279.738 309.913,280.738 305.5,277.5C 303.595,278.065 301.929,279.065 300.5,280.5C 302.297,281.695 303.297,283.362 303.5,285.5C 302.417,285.539 301.417,285.873 300.5,286.5C 296.763,275.948 292.763,275.948 288.5,286.5C 290.503,293.688 291.67,301.021 292,308.5C 292.71,309.973 293.876,310.64 295.5,310.5C 297.104,313.943 298.938,317.277 301,320.5C 302.371,322.041 303.871,323.375 305.5,324.5C 305.396,327.09 306.063,329.423 307.5,331.5C 307.315,332.584 306.982,333.584 306.5,334.5C 304.852,335.81 303.186,337.143 301.5,338.5C 300.573,336.054 298.906,335.221 296.5,336C 292.493,338.338 290.826,341.838 291.5,346.5C 293.689,346.793 295.689,347.293 297.5,348C 298.971,345.757 299.971,343.257 300.5,340.5C 301.84,341.688 302.507,343.188 302.5,345C 302.057,346.825 301.723,348.658 301.5,350.5C 304.862,350.93 307.695,349.93 310,347.5C 308.944,343.375 308.444,339.042 308.5,334.5C 314.578,338.571 320.911,342.237 327.5,345.5C 327.611,346.117 327.944,346.617 328.5,347C 325.924,347.782 323.924,349.282 322.5,351.5C 322.833,351.833 323.167,352.167 323.5,352.5C 325.901,349.587 327.234,349.921 327.5,353.5C 314.829,353.667 302.162,353.5 289.5,353C 290.5,352.667 291.5,352.333 292.5,352C 290.57,346.126 289.903,339.96 290.5,333.5C 289.993,312.09 288.493,290.757 286,269.5C 276.53,277.969 267.363,286.803 258.5,296C 254.249,298.44 249.915,300.607 245.5,302.5C 246.968,301.221 247.635,299.554 247.5,297.5C 253.554,296.945 258.221,294.112 261.5,289C 260.874,288.25 260.374,287.416 260,286.5C 259.333,287.833 258.667,287.833 258,286.5C 257.405,285.101 257.572,283.768 258.5,282.5C 264.035,280.304 269.701,278.804 275.5,278C 276.38,275.741 277.38,273.575 278.5,271.5C 280.257,270.708 281.591,269.375 282.5,267.5C 284.071,266.691 285.738,266.357 287.5,266.5C 287.369,267.239 287.536,267.906 288,268.5C 288.98,266.941 289.813,265.274 290.5,263.5C 291.722,265.978 293.722,266.978 296.5,266.5 Z"/></g>
<g><path style="opacity:1" fill="#9b7469" d="M 291.5,316.5 C 293.144,316.286 294.644,316.62 296,317.5C 296.495,319.473 296.662,321.473 296.5,323.5C 294.856,323.286 293.356,323.62 292,324.5C 291.503,321.854 291.336,319.187 291.5,316.5 Z"/></g>
<g><path style="opacity:1" fill="#a07466" d="M 306.5,334.5 C 307.167,334.5 307.833,334.5 308.5,334.5C 308.444,339.042 308.944,343.375 310,347.5C 307.695,349.93 304.862,350.93 301.5,350.5C 301.723,348.658 302.057,346.825 302.5,345C 302.507,343.188 301.84,341.688 300.5,340.5C 299.971,343.257 298.971,345.757 297.5,348C 295.689,347.293 293.689,346.793 291.5,346.5C 290.826,341.838 292.493,338.338 296.5,336C 298.906,335.221 300.573,336.054 301.5,338.5C 303.186,337.143 304.852,335.81 306.5,334.5 Z"/></g>
<g><path style="opacity:1" fill="#be9b8d" d="M 327.5,345.5 C 331.803,344.796 335.303,346.13 338,349.5C 338.5,349 339,348.5 339.5,348C 348.827,347.5 358.161,347.334 367.5,347.5C 367.5,349.5 367.5,351.5 367.5,353.5C 354.167,353.5 340.833,353.5 327.5,353.5C 327.234,349.921 325.901,349.587 323.5,352.5C 323.167,352.167 322.833,351.833 322.5,351.5C 323.924,349.282 325.924,347.782 328.5,347C 327.944,346.617 327.611,346.117 327.5,345.5 Z"/></g>
<g><path style="opacity:0.661" fill="#d4c4bb" d="M 290.5,333.5 C 289.903,339.96 290.57,346.126 292.5,352C 291.5,352.333 290.5,352.667 289.5,353C 302.162,353.5 314.829,353.667 327.5,353.5C 340.833,353.5 354.167,353.5 367.5,353.5C 368.167,353.5 368.5,353.833 368.5,354.5C 341.915,354.843 315.249,354.843 288.5,354.5C 288.768,347.317 289.435,340.317 290.5,333.5 Z"/></g>
</svg>
