<?xml version="1.0" encoding="UTF-8"?>
<!DOCTYPE svg PUBLIC "-//W3C//DTD SVG 1.1//EN" "http://www.w3.org/Graphics/SVG/1.1/DTD/svg11.dtd">
<svg xmlns="http://www.w3.org/2000/svg" version="1.1" width="691px" height="361px" style="shape-rendering:geometricPrecision; text-rendering:geometricPrecision; image-rendering:optimizeQuality; fill-rule:evenodd; clip-rule:evenodd" xmlns:xlink="http://www.w3.org/1999/xlink">
<g><path style="opacity:0.286" fill="#9aa0a3" d="M 284.5,65.5 C 282.039,66.531 279.373,67.1977 276.5,67.5C 278.78,65.7773 281.447,65.1107 284.5,65.5 Z"/></g>
<g><path style="opacity:0.404" fill="#878a94" d="M 308.5,66.5 C 311.495,66.2938 314.162,66.9605 316.5,68.5C 313.572,68.4349 310.905,67.7682 308.5,66.5 Z"/></g>
<g><path style="opacity:0.361" fill="#979ca2" d="M 266.5,71.5 C 264.761,74.2427 262.427,76.2427 259.5,77.5C 261.239,74.7573 263.573,72.7573 266.5,71.5 Z"/></g>
<g><path style="opacity:1" fill="#242d36" d="M 308.5,66.5 C 310.905,67.7682 313.572,68.4349 316.5,68.5C 324.934,69.6101 331.601,73.6101 336.5,80.5C 337.08,82.7488 338.413,84.4154 340.5,85.5C 347.85,97.1246 350.684,109.791 349,123.5C 349.708,124.381 350.542,125.047 351.5,125.5C 352.419,128.089 354.086,130.089 356.5,131.5C 362.053,143.937 361.553,156.27 355,168.5C 353.296,170.373 351.463,172.04 349.5,173.5C 347.199,174.06 344.866,174.56 342.5,175C 342.799,176.073 342.799,177.24 342.5,178.5C 341.737,179.268 340.737,179.768 339.5,180C 332.833,180.667 326.167,180.667 319.5,180C 318.263,179.768 317.263,179.268 316.5,178.5C 318.283,177.545 320.283,176.878 322.5,176.5C 323.647,176.818 324.481,177.484 325,178.5C 327.592,176.233 328.425,173.567 327.5,170.5C 329.635,169.355 331.801,169.355 334,170.5C 335.622,170.046 336.788,169.046 337.5,167.5C 332.868,166.672 328.202,166.172 323.5,166C 323.043,165.586 322.709,165.086 322.5,164.5C 323.456,162.925 324.123,161.258 324.5,159.5C 330.909,154.775 333.742,148.442 333,140.5C 332.617,139.944 332.117,139.611 331.5,139.5C 328.032,134.953 323.699,134.286 318.5,137.5C 317.378,136.37 316.044,135.703 314.5,135.5C 314.66,133.801 314.494,132.134 314,130.5C 313.329,129.748 312.496,129.414 311.5,129.5C 305.763,123.103 300.43,116.436 295.5,109.5C 295.5,108.833 295.5,108.167 295.5,107.5C 292.825,101.133 290.158,94.7993 287.5,88.5C 286.791,87.596 285.791,87.2627 284.5,87.5C 284.415,84.3511 285.415,81.6845 287.5,79.5C 294.315,77.9504 294.815,75.6171 289,72.5C 286.427,73.9825 284.26,73.4825 282.5,71C 283.433,69.3923 282.767,68.559 280.5,68.5C 278.076,71.2533 275.41,71.7533 272.5,70C 274.32,69.7996 275.653,68.9663 276.5,67.5C 279.373,67.1977 282.039,66.531 284.5,65.5C 285.449,64.8476 286.615,64.5143 288,64.5C 294.997,65.0332 301.83,65.6999 308.5,66.5 Z"/></g>
<g><path style="opacity:1" fill="#242c35" d="M 276.5,67.5 C 275.653,68.9663 274.32,69.7996 272.5,70C 275.41,71.7533 278.076,71.2533 280.5,68.5C 282.767,68.559 283.433,69.3923 282.5,71C 284.26,73.4825 286.427,73.9825 289,72.5C 294.815,75.6171 294.315,77.9504 287.5,79.5C 288.475,77.4599 287.808,77.1266 285.5,78.5C 283.694,81.472 281.694,84.3053 279.5,87C 275.224,87.8047 271.557,89.6381 268.5,92.5C 261.62,95.3746 257.286,100.375 255.5,107.5C 253.677,111.01 251.677,114.344 249.5,117.5C 249.5,117.167 249.5,116.833 249.5,116.5C 248.708,110.87 248.375,105.203 248.5,99.5C 248.926,95.5732 249.926,91.9065 251.5,88.5C 253.975,86.2297 255.975,83.563 257.5,80.5C 258.167,79.5 258.833,78.5 259.5,77.5C 262.427,76.2427 264.761,74.2427 266.5,71.5C 269.578,69.6313 272.911,68.298 276.5,67.5 Z"/></g>
<g><path style="opacity:0.337" fill="#b7bdc0" d="M 336.5,80.5 C 338.587,81.5846 339.92,83.2512 340.5,85.5C 338.413,84.4154 337.08,82.7488 336.5,80.5 Z"/></g>
<g><path style="opacity:0.616" fill="#8a8e95" d="M 257.5,80.5 C 255.975,83.563 253.975,86.2297 251.5,88.5C 252.551,85.0393 254.551,82.3727 257.5,80.5 Z"/></g>
<g><path style="opacity:1" fill="#45352c" d="M 284.5,87.5 C 285.791,87.2627 286.791,87.596 287.5,88.5C 287.581,95.6912 290.247,102.025 295.5,107.5C 295.5,108.167 295.5,108.833 295.5,109.5C 289.199,103.564 285.532,96.2308 284.5,87.5 Z"/></g>
<g><path style="opacity:1" fill="#6d5f5e" d="M 287.5,88.5 C 290.158,94.7993 292.825,101.133 295.5,107.5C 290.247,102.025 287.581,95.6912 287.5,88.5 Z"/></g>
<g><path style="opacity:0.488" fill="#6a6c76" d="M 248.5,99.5 C 248.375,105.203 248.708,110.87 249.5,116.5C 247.981,113.474 247.315,110.141 247.5,106.5C 247.503,103.975 247.837,101.641 248.5,99.5 Z"/></g>
<g><path style="opacity:1" fill="#957469" d="M 255.5,107.5 C 255.503,112.447 257.836,113.78 262.5,111.5C 264.417,111.754 265.751,112.754 266.5,114.5C 262.363,113.049 258.363,113.216 254.5,115C 257.036,115.186 259.369,115.686 261.5,116.5C 257.587,116.187 253.921,116.853 250.5,118.5C 249.833,118.5 249.5,118.167 249.5,117.5C 251.677,114.344 253.677,111.01 255.5,107.5 Z"/></g>
<g><path style="opacity:1" fill="#373130" d="M 266.5,114.5 C 268.137,116.124 267.803,117.124 265.5,117.5C 264.151,117.154 262.817,116.821 261.5,116.5C 259.369,115.686 257.036,115.186 254.5,115C 258.363,113.216 262.363,113.049 266.5,114.5 Z"/></g>
<g><path style="opacity:1" fill="#a47c6b" d="M 287.5,79.5 C 285.415,81.6845 284.415,84.3511 284.5,87.5C 285.532,96.2308 289.199,103.564 295.5,109.5C 300.43,116.436 305.763,123.103 311.5,129.5C 314.019,131.641 314.019,133.641 311.5,135.5C 310.951,133.099 310.118,130.765 309,128.5C 305.632,126.633 303.132,123.966 301.5,120.5C 300.692,120.808 300.025,121.308 299.5,122C 302.551,123.517 303.217,125.684 301.5,128.5C 296.922,128.658 293.255,126.991 290.5,123.5C 287.5,123.5 284.5,123.5 281.5,123.5C 280.959,120.348 281.959,117.848 284.5,116C 286.199,115.607 287.699,116.107 289,117.5C 290.285,117.05 291.452,116.383 292.5,115.5C 293.897,117.606 295.73,119.273 298,120.5C 298.798,118.741 298.631,117.074 297.5,115.5C 293.837,113.259 291.004,110.259 289,106.5C 288.667,106.833 288.333,107.167 288,107.5C 285.543,100.637 283.543,93.6368 282,86.5C 281.5,87.6667 280.667,88.5 279.5,89C 276.014,90.6238 272.347,91.7904 268.5,92.5C 271.557,89.6381 275.224,87.8047 279.5,87C 281.694,84.3053 283.694,81.472 285.5,78.5C 287.808,77.1266 288.475,77.4599 287.5,79.5 Z"/></g>
<g><path style="opacity:0.494" fill="#969c9f" d="M 351.5,125.5 C 353.914,126.911 355.581,128.911 356.5,131.5C 354.086,130.089 352.419,128.089 351.5,125.5 Z"/></g>
<g><path style="opacity:1" fill="#b58169" d="M 290.5,123.5 C 293.255,126.991 296.922,128.658 301.5,128.5C 303.217,125.684 302.551,123.517 299.5,122C 300.025,121.308 300.692,120.808 301.5,120.5C 303.132,123.966 305.632,126.633 309,128.5C 310.118,130.765 310.951,133.099 311.5,135.5C 308.907,141.125 308.907,146.792 311.5,152.5C 312.107,152.376 312.44,152.043 312.5,151.5C 313.209,146.901 314.209,142.234 315.5,137.5C 316.548,138.383 317.715,139.05 319,139.5C 323.246,136.864 327.413,136.864 331.5,139.5C 332.117,139.611 332.617,139.944 333,140.5C 333.742,148.442 330.909,154.775 324.5,159.5C 324.167,159.5 323.833,159.5 323.5,159.5C 323.383,157.516 324.05,155.85 325.5,154.5C 325.167,154.167 324.833,153.833 324.5,153.5C 322.016,154.773 319.516,154.773 317,153.5C 315.469,154.217 314.136,155.217 313,156.5C 312.05,155.978 311.216,155.311 310.5,154.5C 309.679,157.447 309.179,160.447 309,163.5C 308.667,163.833 308.333,164.167 308,164.5C 306.601,163.773 305.101,163.273 303.5,163C 304.728,162.221 305.728,161.221 306.5,160C 304.338,157.214 303.671,154.214 304.5,151C 303.929,149.795 303.262,148.628 302.5,147.5C 301.264,148.246 299.93,148.579 298.5,148.5C 298.421,149.93 298.754,151.264 299.5,152.5C 298.68,154.111 297.346,154.778 295.5,154.5C 295.5,153.5 295.5,152.5 295.5,151.5C 294.5,151.5 293.5,151.5 292.5,151.5C 292.5,154.167 292.5,156.833 292.5,159.5C 290.833,159.5 289.167,159.5 287.5,159.5C 287.5,162.833 287.5,166.167 287.5,169.5C 285.857,169.52 284.524,168.853 283.5,167.5C 282.167,169.5 280.833,171.5 279.5,173.5C 278.304,173.154 278.304,172.654 279.5,172C 275.335,171.626 271.335,170.626 267.5,169C 265.456,168.502 264.122,167.335 263.5,165.5C 267.404,165.16 271.404,164.994 275.5,165C 276.942,164.623 277.942,163.79 278.5,162.5C 279.075,158.845 278.075,155.845 275.5,153.5C 275.167,153.5 274.833,153.5 274.5,153.5C 272.042,150.693 268.875,149.359 265,149.5C 263.014,149.569 261.514,150.235 260.5,151.5C 259.604,150.494 258.938,150.494 258.5,151.5C 257.662,151.842 257.328,152.508 257.5,153.5C 253.985,154.345 251.319,156.345 249.5,159.5C 249.167,159.5 248.833,159.5 248.5,159.5C 248.167,159.5 247.833,159.5 247.5,159.5C 244.335,145.691 245.335,132.024 250.5,118.5C 253.921,116.853 257.587,116.187 261.5,116.5C 262.817,116.821 264.151,117.154 265.5,117.5C 267.803,117.124 268.137,116.124 266.5,114.5C 265.751,112.754 264.417,111.754 262.5,111.5C 257.836,113.78 255.503,112.447 255.5,107.5C 257.286,100.375 261.62,95.3746 268.5,92.5C 272.347,91.7904 276.014,90.6238 279.5,89C 280.667,88.5 281.5,87.6667 282,86.5C 283.543,93.6368 285.543,100.637 288,107.5C 288.333,107.167 288.667,106.833 289,106.5C 291.004,110.259 293.837,113.259 297.5,115.5C 298.631,117.074 298.798,118.741 298,120.5C 295.73,119.273 293.897,117.606 292.5,115.5C 291.452,116.383 290.285,117.05 289,117.5C 287.699,116.107 286.199,115.607 284.5,116C 281.959,117.848 280.959,120.348 281.5,123.5C 284.5,123.5 287.5,123.5 290.5,123.5 Z"/></g>
<g><path style="opacity:1" fill="#463d3a" d="M 258.5,124.5 C 260.948,124.085 262.281,125.085 262.5,127.5C 261.95,131.024 260.116,132.024 257,130.5C 256.257,128.126 256.757,126.126 258.5,124.5 Z"/></g>
<g><path style="opacity:1" fill="#3d3735" d="M 290.5,123.5 C 288.562,121.837 286.228,121.171 283.5,121.5C 283.5,120.5 283.5,119.5 283.5,118.5C 290.233,117.369 295.233,119.702 298.5,125.5C 298.167,125.833 297.833,126.167 297.5,126.5C 295.513,124.673 293.179,123.673 290.5,123.5 Z"/></g>
<g><path style="opacity:1" fill="#93443c" d="M 272.5,109.5 C 277.159,109.015 278.492,110.848 276.5,115C 271.728,115.81 270.395,113.977 272.5,109.5 Z"/></g>
<g><path style="opacity:1" fill="#393335" d="M 283.5,130.5 C 284.833,130.5 286.167,130.5 287.5,130.5C 288.575,134.938 286.908,136.938 282.5,136.5C 282.325,134.379 282.659,132.379 283.5,130.5 Z"/></g>
<g><path style="opacity:1" fill="#967769" d="M 314.5,135.5 C 316.044,135.703 317.378,136.37 318.5,137.5C 323.699,134.286 328.032,134.953 331.5,139.5C 327.413,136.864 323.246,136.864 319,139.5C 317.715,139.05 316.548,138.383 315.5,137.5C 314.209,142.234 313.209,146.901 312.5,151.5C 312.069,145.972 312.736,140.639 314.5,135.5 Z"/></g>
<g><path style="opacity:1" fill="#462d32" d="M 347.5,130.5 C 348.404,131.209 348.737,132.209 348.5,133.5C 349.833,133.5 351.167,133.5 352.5,133.5C 352.5,137.167 352.5,140.833 352.5,144.5C 351.5,144.5 350.5,144.5 349.5,144.5C 349.318,146.591 349.652,148.591 350.5,150.5C 350.043,151.298 349.376,151.631 348.5,151.5C 347.746,148.922 347.746,146.256 348.5,143.5C 349.5,143.5 350.5,143.5 351.5,143.5C 351.374,141.8 350.707,140.3 349.5,139C 350.148,137.56 350.481,136.06 350.5,134.5C 349.5,134.5 348.5,134.5 347.5,134.5C 347.5,133.167 347.5,131.833 347.5,130.5 Z"/></g>
<g><path style="opacity:1" fill="#453736" d="M 311.5,129.5 C 312.496,129.414 313.329,129.748 314,130.5C 314.494,132.134 314.66,133.801 314.5,135.5C 312.736,140.639 312.069,145.972 312.5,151.5C 312.44,152.043 312.107,152.376 311.5,152.5C 308.907,146.792 308.907,141.125 311.5,135.5C 314.019,133.641 314.019,131.641 311.5,129.5 Z"/></g>
<g><path style="opacity:1" fill="#b88269" d="M 323.5,159.5 C 323.5,160.167 323.167,160.5 322.5,160.5C 321.955,157.056 319.955,155.889 316.5,157C 314.176,158.825 313.843,160.991 315.5,163.5C 312.978,165.002 312.978,166.335 315.5,167.5C 315.5,167.833 315.5,168.167 315.5,168.5C 315.167,168.5 314.833,168.5 314.5,168.5C 312.466,170.655 312.133,172.988 313.5,175.5C 313.833,176.167 314.167,176.833 314.5,177.5C 312.577,181.029 311.911,185.029 312.5,189.5C 312.219,193.188 311.719,196.855 311,200.5C 310.617,201.056 310.117,201.389 309.5,201.5C 310.15,199.565 310.483,197.565 310.5,195.5C 309.448,195.351 308.448,195.517 307.5,196C 302.265,200.084 296.931,203.917 291.5,207.5C 289.219,207.923 287.552,207.256 286.5,205.5C 285.46,202.294 283.293,200.294 280,199.5C 278.678,196.035 277.178,192.702 275.5,189.5C 285.178,186.494 293.845,181.661 301.5,175C 300.5,174.333 299.5,174.333 298.5,175C 291.15,180.595 282.816,183.095 273.5,182.5C 273.167,182.5 272.833,182.5 272.5,182.5C 269.218,177.745 265.718,173.079 262,168.5C 261.506,166.866 261.34,165.199 261.5,163.5C 262.167,164.167 262.833,164.833 263.5,165.5C 264.122,167.335 265.456,168.502 267.5,169C 271.335,170.626 275.335,171.626 279.5,172C 278.304,172.654 278.304,173.154 279.5,173.5C 280.833,171.5 282.167,169.5 283.5,167.5C 284.524,168.853 285.857,169.52 287.5,169.5C 287.5,166.167 287.5,162.833 287.5,159.5C 289.167,159.5 290.833,159.5 292.5,159.5C 292.5,156.833 292.5,154.167 292.5,151.5C 293.5,151.5 294.5,151.5 295.5,151.5C 295.5,152.5 295.5,153.5 295.5,154.5C 297.346,154.778 298.68,154.111 299.5,152.5C 298.754,151.264 298.421,149.93 298.5,148.5C 299.93,148.579 301.264,148.246 302.5,147.5C 303.262,148.628 303.929,149.795 304.5,151C 303.671,154.214 304.338,157.214 306.5,160C 305.728,161.221 304.728,162.221 303.5,163C 305.101,163.273 306.601,163.773 308,164.5C 308.333,164.167 308.667,163.833 309,163.5C 309.179,160.447 309.679,157.447 310.5,154.5C 311.216,155.311 312.05,155.978 313,156.5C 314.136,155.217 315.469,154.217 317,153.5C 319.516,154.773 322.016,154.773 324.5,153.5C 324.833,153.833 325.167,154.167 325.5,154.5C 324.05,155.85 323.383,157.516 323.5,159.5 Z"/></g>
<g><path style="opacity:1" fill="#f3ebe6" d="M 274.5,153.5 C 270.818,153.665 267.152,153.499 263.5,153C 262.263,152.768 261.263,152.268 260.5,151.5C 261.514,150.235 263.014,149.569 265,149.5C 268.875,149.359 272.042,150.693 274.5,153.5 Z"/></g>
<g><path style="opacity:1" fill="#be4d4b" d="M 347.5,130.5 C 347.5,131.833 347.5,133.167 347.5,134.5C 348.5,134.5 349.5,134.5 350.5,134.5C 350.481,136.06 350.148,137.56 349.5,139C 350.707,140.3 351.374,141.8 351.5,143.5C 350.5,143.5 349.5,143.5 348.5,143.5C 347.746,146.256 347.746,148.922 348.5,151.5C 347.1,152.1 346.1,153.1 345.5,154.5C 343.167,157.847 340.167,160.513 336.5,162.5C 335.167,161.167 333.833,161.167 332.5,162.5C 331.432,160.813 331.599,159.146 333,157.5C 338.897,153.774 342.063,148.44 342.5,141.5C 343.408,137.422 345.075,133.755 347.5,130.5 Z"/></g>
<g><path style="opacity:1" fill="#5f3d39" d="M 260.5,151.5 C 261.263,152.268 262.263,152.768 263.5,153C 267.152,153.499 270.818,153.665 274.5,153.5C 274.833,153.5 275.167,153.5 275.5,153.5C 271.216,154.833 266.883,156.5 262.5,158.5C 260.922,156.347 259.588,154.014 258.5,151.5C 258.938,150.494 259.604,150.494 260.5,151.5 Z"/></g>
<g><path style="opacity:1" fill="#703c2f" d="M 258.5,151.5 C 259.588,154.014 260.922,156.347 262.5,158.5C 266.883,156.5 271.216,154.833 275.5,153.5C 278.075,155.845 279.075,158.845 278.5,162.5C 277.872,160.338 276.539,158.672 274.5,157.5C 271.482,157.335 268.482,157.502 265.5,158C 264.944,158.383 264.611,158.883 264.5,159.5C 263.395,160.6 262.062,161.267 260.5,161.5C 258.903,159.152 257.903,156.486 257.5,153.5C 257.328,152.508 257.662,151.842 258.5,151.5 Z"/></g>
<g><path style="opacity:1" fill="#e2b35c" d="M 322.5,160.5 C 322.141,162.371 321.141,163.871 319.5,165C 320.381,165.708 321.047,166.542 321.5,167.5C 319.435,167.517 317.435,167.85 315.5,168.5C 315.5,168.167 315.5,167.833 315.5,167.5C 316.278,166.844 316.944,166.011 317.5,165C 317.164,163.97 316.497,163.47 315.5,163.5C 313.843,160.991 314.176,158.825 316.5,157C 319.955,155.889 321.955,157.056 322.5,160.5 Z"/></g>
<g><path style="opacity:1" fill="#d86f62" d="M 274.5,157.5 C 275.15,159.435 275.483,161.435 275.5,163.5C 271.785,163.577 268.119,163.244 264.5,162.5C 264.5,161.5 264.5,160.5 264.5,159.5C 264.611,158.883 264.944,158.383 265.5,158C 268.482,157.502 271.482,157.335 274.5,157.5 Z"/></g>
<g><path style="opacity:1" fill="#954a49" d="M 342.5,141.5 C 342.063,148.44 338.897,153.774 333,157.5C 331.599,159.146 331.432,160.813 332.5,162.5C 333.833,161.167 335.167,161.167 336.5,162.5C 340.167,160.513 343.167,157.847 345.5,154.5C 346.097,154.735 346.43,155.235 346.5,156C 345.293,157.3 344.626,158.8 344.5,160.5C 342.833,160.5 341.167,160.5 339.5,160.5C 339.883,165.468 338.216,166.468 334.5,163.5C 331.753,166.231 329.42,165.898 327.5,162.5C 330.194,158.46 333.361,154.793 337,151.5C 338.296,147.746 340.13,144.413 342.5,141.5 Z"/></g>
<g><path style="opacity:1" fill="#bd6d5b" d="M 274.5,157.5 C 276.539,158.672 277.872,160.338 278.5,162.5C 277.942,163.79 276.942,164.623 275.5,165C 271.404,164.994 267.404,165.16 263.5,165.5C 262.833,164.833 262.167,164.167 261.5,163.5C 261.167,162.833 260.833,162.167 260.5,161.5C 262.062,161.267 263.395,160.6 264.5,159.5C 264.5,160.5 264.5,161.5 264.5,162.5C 268.119,163.244 271.785,163.577 275.5,163.5C 275.483,161.435 275.15,159.435 274.5,157.5 Z"/></g>
<g><path style="opacity:1" fill="#594230" d="M 315.5,163.5 C 316.497,163.47 317.164,163.97 317.5,165C 316.944,166.011 316.278,166.844 315.5,167.5C 312.978,166.335 312.978,165.002 315.5,163.5 Z"/></g>
<g><path style="opacity:1" fill="#2d3330" d="M 323.5,159.5 C 323.833,159.5 324.167,159.5 324.5,159.5C 324.123,161.258 323.456,162.925 322.5,164.5C 322.709,165.086 323.043,165.586 323.5,166C 328.202,166.172 332.868,166.672 337.5,167.5C 336.788,169.046 335.622,170.046 334,170.5C 331.801,169.355 329.635,169.355 327.5,170.5C 328.425,173.567 327.592,176.233 325,178.5C 324.481,177.484 323.647,176.818 322.5,176.5C 320.283,176.878 318.283,177.545 316.5,178.5C 315.508,178.672 314.842,178.338 314.5,177.5C 314.167,176.833 313.833,176.167 313.5,175.5C 317.5,175.5 321.5,175.5 325.5,175.5C 325.982,172.169 324.982,169.503 322.5,167.5C 322.167,167.5 321.833,167.5 321.5,167.5C 321.047,166.542 320.381,165.708 319.5,165C 321.141,163.871 322.141,162.371 322.5,160.5C 323.167,160.5 323.5,160.167 323.5,159.5 Z"/></g>
<g><path style="opacity:0.992" fill="#e9be8b" d="M 247.5,159.5 C 247.833,159.5 248.167,159.5 248.5,159.5C 248.649,160.552 248.483,161.552 248,162.5C 244.897,166.051 242.064,169.717 239.5,173.5C 237.621,174.341 235.621,174.675 233.5,174.5C 236.587,173.947 239.087,172.28 241,169.5C 243.022,165.997 245.189,162.663 247.5,159.5 Z"/></g>
<g><path style="opacity:1" fill="#f4be53" d="M 321.5,167.5 C 321.833,167.5 322.167,167.5 322.5,167.5C 323.219,169.764 323.552,172.097 323.5,174.5C 320.167,174.5 316.833,174.5 313.5,174.5C 313.833,172.5 314.167,170.5 314.5,168.5C 314.833,168.5 315.167,168.5 315.5,168.5C 317.435,167.85 319.435,167.517 321.5,167.5 Z"/></g>
<g><path style="opacity:1" fill="#eca34e" d="M 266.5,195.5 C 265.238,198.071 263.905,198.071 262.5,195.5C 259.603,196.98 256.603,198.314 253.5,199.5C 252.11,196.877 250.276,194.544 248,192.5C 246.021,194.235 243.854,195.568 241.5,196.5C 243.542,192.308 245.876,188.308 248.5,184.5C 248.471,182.971 247.804,181.804 246.5,181C 244.527,180.505 242.527,180.338 240.5,180.5C 240.795,178.265 240.461,176.265 239.5,174.5C 239.5,174.167 239.5,173.833 239.5,173.5C 242.064,169.717 244.897,166.051 248,162.5C 248.483,161.552 248.649,160.552 248.5,159.5C 248.833,159.5 249.167,159.5 249.5,159.5C 249.435,159.938 249.601,160.272 250,160.5C 251.833,158.833 253.667,157.167 255.5,155.5C 255.833,155.833 256.167,156.167 256.5,156.5C 254.35,158.304 254.016,160.471 255.5,163C 259.957,173.602 263.623,184.435 266.5,195.5 Z"/></g>
<g><path style="opacity:1" fill="#d3b06e" d="M 322.5,167.5 C 324.982,169.503 325.982,172.169 325.5,175.5C 321.5,175.5 317.5,175.5 313.5,175.5C 312.133,172.988 312.466,170.655 314.5,168.5C 314.167,170.5 313.833,172.5 313.5,174.5C 316.833,174.5 320.167,174.5 323.5,174.5C 323.552,172.097 323.219,169.764 322.5,167.5 Z"/></g>
<g><path style="opacity:0.945" fill="#575d67" d="M 349.5,173.5 C 347.704,175.9 345.37,177.567 342.5,178.5C 342.799,177.24 342.799,176.073 342.5,175C 344.866,174.56 347.199,174.06 349.5,173.5 Z"/></g>
<g><path style="opacity:1" fill="#9e6953" d="M 275.5,189.5 C 275.233,187.035 274.566,184.701 273.5,182.5C 282.816,183.095 291.15,180.595 298.5,175C 299.5,174.333 300.5,174.333 301.5,175C 293.845,181.661 285.178,186.494 275.5,189.5 Z"/></g>
<g><path style="opacity:1" fill="#bf9a8b" d="M 222.5,179.5 C 219.895,183.444 216.895,187.11 213.5,190.5C 212.433,193.534 211.266,196.534 210,199.5C 209.329,200.252 208.496,200.586 207.5,200.5C 208.445,192.441 212.112,185.941 218.5,181C 219.745,180.209 221.078,179.709 222.5,179.5 Z"/></g>
<g><path style="opacity:1" fill="#d38e56" d="M 239.5,174.5 C 240.461,176.265 240.795,178.265 240.5,180.5C 242.527,180.338 244.527,180.505 246.5,181C 247.804,181.804 248.471,182.971 248.5,184.5C 245.876,188.308 243.542,192.308 241.5,196.5C 242.221,199.817 242.388,203.151 242,206.5C 238.915,207.432 235.748,208.099 232.5,208.5C 231.646,214.121 231.313,219.788 231.5,225.5C 231.869,227.993 231.203,228.66 229.5,227.5C 230.035,220.806 230.701,214.139 231.5,207.5C 234.428,206.516 237.428,206.183 240.5,206.5C 240.5,204.833 240.5,203.167 240.5,201.5C 236.831,202.303 234.164,201.136 232.5,198C 235.103,195.922 238.103,194.589 241.5,194C 242.006,191.468 243.173,189.302 245,187.5C 245.72,185.888 245.554,184.388 244.5,183C 240.793,183.289 237.126,183.122 233.5,182.5C 235.193,180.973 237.027,179.64 239,178.5C 239.49,177.207 239.657,175.873 239.5,174.5 Z"/></g>
<g><path style="opacity:1" fill="#c58256" d="M 272.5,182.5 C 272.833,182.5 273.167,182.5 273.5,182.5C 274.566,184.701 275.233,187.035 275.5,189.5C 277.178,192.702 278.678,196.035 280,199.5C 283.293,200.294 285.46,202.294 286.5,205.5C 283.042,204.265 280.042,202.265 277.5,199.5C 275.304,193.99 273.637,188.323 272.5,182.5 Z"/></g>
<g><path style="opacity:0.114" fill="#f8e1aa" d="M 341.5,197.5 C 345.362,199.262 349.028,201.262 352.5,203.5C 348.003,202.756 344.336,200.756 341.5,197.5 Z"/></g>
<g><path style="opacity:1" fill="#e28d3e" d="M 266.5,195.5 C 269.144,198.255 270.144,201.422 269.5,205C 271.192,206.401 271.859,208.234 271.5,210.5C 267.995,209.876 265.162,210.876 263,213.5C 261.545,212.42 260.045,212.42 258.5,213.5C 255.763,214.213 253.096,214.213 250.5,213.5C 249.522,213.977 248.689,214.643 248,215.5C 244.606,214.544 241.106,214.211 237.5,214.5C 237.17,217.109 235.67,218.776 233,219.5C 232.505,221.473 232.338,223.473 232.5,225.5C 232.167,225.5 231.833,225.5 231.5,225.5C 231.313,219.788 231.646,214.121 232.5,208.5C 235.748,208.099 238.915,207.432 242,206.5C 242.388,203.151 242.221,199.817 241.5,196.5C 243.854,195.568 246.021,194.235 248,192.5C 250.276,194.544 252.11,196.877 253.5,199.5C 256.603,198.314 259.603,196.98 262.5,195.5C 263.905,198.071 265.238,198.071 266.5,195.5 Z"/></g>
<g><path style="opacity:1" fill="#eab33c" d="M 335.5,196.5 C 337.5,196.833 339.5,197.167 341.5,197.5C 344.336,200.756 348.003,202.756 352.5,203.5C 352.5,204.167 352.5,204.833 352.5,205.5C 349.85,207.317 347.35,209.317 345,211.5C 332.964,228.735 323.13,247.235 315.5,267C 316.056,267.383 316.389,267.883 316.5,268.5C 312.647,267.55 308.98,266.217 305.5,264.5C 304.789,261.623 302.956,259.957 300,259.5C 299.59,258.099 299.09,256.766 298.5,255.5C 298.678,250.961 298.345,246.461 297.5,242C 299.926,239.753 300.926,236.92 300.5,233.5C 302.103,233.688 303.437,233.188 304.5,232C 303.483,230.951 303.316,229.784 304,228.5C 308.358,224.804 312.025,220.47 315,215.5C 314.566,213.824 313.732,212.157 312.5,210.5C 314.102,207.763 314.936,204.763 315,201.5C 316.356,200.62 317.856,200.286 319.5,200.5C 319.561,198.408 320.561,196.908 322.5,196C 326.791,196.196 331.124,196.363 335.5,196.5 Z"/></g>
<g><path style="opacity:1" fill="#b8826b" d="M 239.5,173.5 C 239.5,173.833 239.5,174.167 239.5,174.5C 239.657,175.873 239.49,177.207 239,178.5C 237.027,179.64 235.193,180.973 233.5,182.5C 237.126,183.122 240.793,183.289 244.5,183C 245.554,184.388 245.72,185.888 245,187.5C 243.173,189.302 242.006,191.468 241.5,194C 238.103,194.589 235.103,195.922 232.5,198C 234.164,201.136 236.831,202.303 240.5,201.5C 240.5,203.167 240.5,204.833 240.5,206.5C 237.428,206.183 234.428,206.516 231.5,207.5C 230.701,214.139 230.035,220.806 229.5,227.5C 229.5,227.833 229.5,228.167 229.5,228.5C 228.053,229.622 227.053,231.122 226.5,233C 225.551,233.617 224.718,233.451 224,232.5C 223.517,233.448 223.351,234.448 223.5,235.5C 220.833,235.5 218.167,235.5 215.5,235.5C 215.5,239.5 215.5,243.5 215.5,247.5C 212.986,247.246 210.652,246.413 208.5,245C 207.253,243.542 207.253,242.042 208.5,240.5C 210.423,239.692 212.423,239.192 214.5,239C 211.439,235.702 209.106,232.369 207.5,229C 208.827,221.735 208.827,214.568 207.5,207.5C 206.609,208.11 205.609,208.443 204.5,208.5C 205.994,206.058 206.994,203.391 207.5,200.5C 208.496,200.586 209.329,200.252 210,199.5C 211.266,196.534 212.433,193.534 213.5,190.5C 216.895,187.11 219.895,183.444 222.5,179.5C 225.785,177.025 229.452,175.358 233.5,174.5C 235.621,174.675 237.621,174.341 239.5,173.5 Z"/></g>
<g><path style="opacity:1" fill="#d8843b" d="M 257.5,153.5 C 257.903,156.486 258.903,159.152 260.5,161.5C 260.833,162.167 261.167,162.833 261.5,163.5C 261.34,165.199 261.506,166.866 262,168.5C 265.718,173.079 269.218,177.745 272.5,182.5C 273.637,188.323 275.304,193.99 277.5,199.5C 280.042,202.265 283.042,204.265 286.5,205.5C 287.552,207.256 289.219,207.923 291.5,207.5C 289.76,210.12 287.76,212.454 285.5,214.5C 285.265,213.903 284.765,213.57 284,213.5C 281.864,214.268 279.697,214.934 277.5,215.5C 275.049,213.71 272.382,212.377 269.5,211.5C 267.007,212.445 264.507,213.445 262,214.5C 260.615,214.486 259.449,214.152 258.5,213.5C 260.045,212.42 261.545,212.42 263,213.5C 265.162,210.876 267.995,209.876 271.5,210.5C 271.859,208.234 271.192,206.401 269.5,205C 270.144,201.422 269.144,198.255 266.5,195.5C 263.623,184.435 259.957,173.602 255.5,163C 254.016,160.471 254.35,158.304 256.5,156.5C 256.167,156.167 255.833,155.833 255.5,155.5C 253.667,157.167 251.833,158.833 250,160.5C 249.601,160.272 249.435,159.938 249.5,159.5C 251.319,156.345 253.985,154.345 257.5,153.5 Z"/></g>
<g><path style="opacity:1" fill="#d57c37" d="M 285.5,214.5 C 281.962,216.898 277.962,218.398 273.5,219C 272.295,220.376 270.962,221.542 269.5,222.5C 268.486,221.235 266.986,220.569 265,220.5C 263.5,220.667 262,220.833 260.5,221C 259.944,221.383 259.611,221.883 259.5,222.5C 258.209,222.263 257.209,222.596 256.5,223.5C 256.167,223.5 255.833,223.5 255.5,223.5C 247.827,224.112 240.16,224.778 232.5,225.5C 232.338,223.473 232.505,221.473 233,219.5C 235.67,218.776 237.17,217.109 237.5,214.5C 241.106,214.211 244.606,214.544 248,215.5C 248.689,214.643 249.522,213.977 250.5,213.5C 253.096,214.213 255.763,214.213 258.5,213.5C 259.449,214.152 260.615,214.486 262,214.5C 264.507,213.445 267.007,212.445 269.5,211.5C 272.382,212.377 275.049,213.71 277.5,215.5C 279.697,214.934 281.864,214.268 284,213.5C 284.765,213.57 285.265,213.903 285.5,214.5 Z"/></g>
<g><path style="opacity:0.918" fill="#e8b487" d="M 352.5,203.5 C 359.61,206.109 365.443,210.442 370,216.5C 370.789,218.712 370.622,220.712 369.5,222.5C 369.66,220.801 369.494,219.134 369,217.5C 365.914,214.893 362.747,212.559 359.5,210.5C 357.772,208.123 355.439,206.456 352.5,205.5C 352.5,204.833 352.5,204.167 352.5,203.5 Z"/></g>
<g><path style="opacity:1" fill="#ebba54" d="M 319.5,191.5 C 325.3,191.991 330.633,193.657 335.5,196.5C 331.124,196.363 326.791,196.196 322.5,196C 320.561,196.908 319.561,198.408 319.5,200.5C 317.856,200.286 316.356,200.62 315,201.5C 314.936,204.763 314.102,207.763 312.5,210.5C 313.732,212.157 314.566,213.824 315,215.5C 312.025,220.47 308.358,224.804 304,228.5C 303.316,229.784 303.483,230.951 304.5,232C 303.437,233.188 302.103,233.688 300.5,233.5C 300.926,236.92 299.926,239.753 297.5,242C 298.345,246.461 298.678,250.961 298.5,255.5C 297.833,253.5 297.167,251.5 296.5,249.5C 296.292,245.879 295.292,242.546 293.5,239.5C 305.156,225.518 312.49,209.518 315.5,191.5C 316.833,191.5 318.167,191.5 319.5,191.5 Z"/></g>
<g><path style="opacity:1" fill="#ee924b" d="M 309.5,201.5 C 302.543,206.778 295.543,212.111 288.5,217.5C 282.343,224.665 275.676,230.998 268.5,236.5C 266.932,234.025 265.265,231.525 263.5,229C 263.978,227.697 264.645,226.531 265.5,225.5C 266.436,224.026 267.77,223.026 269.5,222.5C 270.962,221.542 272.295,220.376 273.5,219C 277.962,218.398 281.962,216.898 285.5,214.5C 287.76,212.454 289.76,210.12 291.5,207.5C 296.931,203.917 302.265,200.084 307.5,196C 308.448,195.517 309.448,195.351 310.5,195.5C 310.483,197.565 310.15,199.565 309.5,201.5 Z"/></g>
<g><path style="opacity:0.118" fill="#f5cbcc" d="M 198.5,215.5 C 198.573,217.027 197.906,218.027 196.5,218.5C 196.427,216.973 197.094,215.973 198.5,215.5 Z"/></g>
<g><path style="opacity:1" fill="#e7b447" d="M 300.5,223.5 C 297.81,226.533 295.477,229.867 293.5,233.5C 291.974,232.895 290.974,231.729 290.5,230C 288.888,229.28 287.388,229.446 286,230.5C 285.667,234.833 285.333,239.167 285,243.5C 282.847,245.444 280.347,245.944 277.5,245C 274.669,243.334 272.336,241.168 270.5,238.5C 272.544,239.031 274.211,240.198 275.5,242C 278.063,243.079 280.729,243.579 283.5,243.5C 283.334,239.154 283.501,234.821 284,230.5C 290.275,223.753 296.942,217.42 304,211.5C 303.138,215.567 301.971,219.567 300.5,223.5 Z"/></g>
<g><path style="opacity:1" fill="#f5c256" d="M 309.5,201.5 C 308.148,209.533 305.148,216.867 300.5,223.5C 301.971,219.567 303.138,215.567 304,211.5C 296.942,217.42 290.275,223.753 284,230.5C 283.501,234.821 283.334,239.154 283.5,243.5C 280.729,243.579 278.063,243.079 275.5,242C 274.211,240.198 272.544,239.031 270.5,238.5C 269.5,238.167 268.833,237.5 268.5,236.5C 275.676,230.998 282.343,224.665 288.5,217.5C 295.543,212.111 302.543,206.778 309.5,201.5 Z"/></g>
<g><path style="opacity:1" fill="#bd5243" d="M 269.5,222.5 C 267.77,223.026 266.436,224.026 265.5,225.5C 263.883,226.038 262.216,226.371 260.5,226.5C 260.5,225.833 260.167,225.5 259.5,225.5C 259.5,224.5 259.5,223.5 259.5,222.5C 259.611,221.883 259.944,221.383 260.5,221C 262,220.833 263.5,220.667 265,220.5C 266.986,220.569 268.486,221.235 269.5,222.5 Z"/></g>
<g><path style="opacity:1" fill="#fdf2e8" d="M 259.5,222.5 C 259.5,223.5 259.5,224.5 259.5,225.5C 259.628,227.655 259.128,229.655 258,231.5C 256.625,229.063 256.125,226.397 256.5,223.5C 257.209,222.596 258.209,222.263 259.5,222.5 Z"/></g>
<g><path style="opacity:1" fill="#c86448" d="M 369.5,222.5 C 369.396,224.703 368.73,226.703 367.5,228.5C 365.389,227.032 363.556,227.365 362,229.5C 360.77,232.732 358.77,235.399 356,237.5C 355.667,239.833 355.333,242.167 355,244.5C 351.836,248.158 348.669,251.824 345.5,255.5C 344.923,252.45 346.09,250.45 349,249.5C 350.858,245.596 352.525,241.596 354,237.5C 357.98,233.533 361.48,229.199 364.5,224.5C 366.195,223.826 367.862,223.159 369.5,222.5 Z"/></g>
<g><path style="opacity:1" fill="#fcefce" d="M 312.5,189.5 C 315.045,188.967 317.378,189.634 319.5,191.5C 318.167,191.5 316.833,191.5 315.5,191.5C 312.49,209.518 305.156,225.518 293.5,239.5C 292.258,237.611 292.258,235.611 293.5,233.5C 295.477,229.867 297.81,226.533 300.5,223.5C 305.148,216.867 308.148,209.533 309.5,201.5C 310.117,201.389 310.617,201.056 311,200.5C 311.719,196.855 312.219,193.188 312.5,189.5 Z"/></g>
<g><path style="opacity:1" fill="#bd544b" d="M 255.5,223.5 C 255.795,225.735 255.461,227.735 254.5,229.5C 252.267,231.837 250.267,234.503 248.5,237.5C 238.582,243.417 230.249,251.083 223.5,260.5C 222.675,261.386 221.675,261.719 220.5,261.5C 223.34,250.474 226.34,239.474 229.5,228.5C 229.5,228.167 229.5,227.833 229.5,227.5C 231.203,228.66 231.869,227.993 231.5,225.5C 231.833,225.5 232.167,225.5 232.5,225.5C 240.16,224.778 247.827,224.112 255.5,223.5 Z"/></g>
<g><path style="opacity:1" fill="#be504d" d="M 367.5,228.5 C 368.827,233.483 370.16,238.483 371.5,243.5C 371.049,247.104 372.049,250.104 374.5,252.5C 374.054,255.01 374.72,257.01 376.5,258.5C 376.782,261.91 377.449,265.243 378.5,268.5C 378.376,269.107 378.043,269.44 377.5,269.5C 369.037,272.432 360.371,274.932 351.5,277C 346.027,278.344 340.693,278.511 335.5,277.5C 337.942,269.671 341.275,262.338 345.5,255.5C 348.669,251.824 351.836,248.158 355,244.5C 355.333,242.167 355.667,239.833 356,237.5C 358.77,235.399 360.77,232.732 362,229.5C 363.556,227.365 365.389,227.032 367.5,228.5 Z"/></g>
<g><path style="opacity:1" fill="#be544f" d="M 207.5,207.5 C 207.666,214.175 207.5,220.842 207,227.5C 203.744,233.453 200.41,239.453 197,245.5C 195.846,246.743 194.512,247.743 193,248.5C 192.503,250.81 192.337,253.143 192.5,255.5C 187.556,257.176 183.222,256.176 179.5,252.5C 179.238,251.022 179.571,249.689 180.5,248.5C 183.421,247.593 186.421,247.26 189.5,247.5C 189.312,249.103 189.812,250.437 191,251.5C 191.495,249.527 191.662,247.527 191.5,245.5C 186.115,247.288 183.948,245.288 185,239.5C 187.108,236.365 188.942,233.032 190.5,229.5C 191.85,228.05 193.516,227.383 195.5,227.5C 195.34,225.801 195.506,224.134 196,222.5C 199.107,217.944 201.94,213.277 204.5,208.5C 205.609,208.443 206.609,208.11 207.5,207.5 Z"/></g>
<g><path style="opacity:1" fill="#eba33f" d="M 319.5,231.5 C 325.023,231.556 326.856,234.222 325,239.5C 322.735,242.898 319.902,243.398 316.5,241C 315.919,240.107 315.585,239.107 315.5,238C 316.205,235.458 317.539,233.292 319.5,231.5 Z"/></g>
<g><path style="opacity:1" fill="#ba8269" d="M 207.5,207.5 C 208.827,214.568 208.827,221.735 207.5,229C 209.106,232.369 211.439,235.702 214.5,239C 212.423,239.192 210.423,239.692 208.5,240.5C 207.253,242.042 207.253,243.542 208.5,245C 210.652,246.413 212.986,247.246 215.5,247.5C 215.5,243.5 215.5,239.5 215.5,235.5C 218.167,235.5 220.833,235.5 223.5,235.5C 223.351,234.448 223.517,233.448 224,232.5C 224.718,233.451 225.551,233.617 226.5,233C 227.053,231.122 228.053,229.622 229.5,228.5C 226.34,239.474 223.34,250.474 220.5,261.5C 209.69,262.759 201.024,259.092 194.5,250.5C 193.359,252.421 193.192,254.421 194,256.5C 197.103,260.114 200.603,263.114 204.5,265.5C 202.5,265.5 200.5,265.5 198.5,265.5C 198.5,264.5 198.5,263.5 198.5,262.5C 196.801,262.62 195.135,262.954 193.5,263.5C 192.263,263.444 191.263,262.944 190.5,262C 191.872,261.369 193.205,260.702 194.5,260C 193.586,258.594 192.92,257.094 192.5,255.5C 192.337,253.143 192.503,250.81 193,248.5C 194.512,247.743 195.846,246.743 197,245.5C 200.41,239.453 203.744,233.453 207,227.5C 207.5,220.842 207.666,214.175 207.5,207.5 Z"/></g>
<g><path style="opacity:1" fill="#bd8666" d="M 265.5,225.5 C 264.645,226.531 263.978,227.697 263.5,229C 265.265,231.525 266.932,234.025 268.5,236.5C 268.833,237.5 269.5,238.167 270.5,238.5C 272.336,241.168 274.669,243.334 277.5,245C 280.347,245.944 282.847,245.444 285,243.5C 285.333,239.167 285.667,234.833 286,230.5C 287.388,229.446 288.888,229.28 290.5,230C 290.974,231.729 291.974,232.895 293.5,233.5C 292.258,235.611 292.258,237.611 293.5,239.5C 295.292,242.546 296.292,245.879 296.5,249.5C 295.186,256.206 297.519,260.873 303.5,263.5C 298.049,263.466 295.382,260.8 295.5,255.5C 294.167,255.5 292.833,255.5 291.5,255.5C 291.656,251.248 290.322,247.582 287.5,244.5C 286.713,245.242 286.047,246.075 285.5,247C 282.833,247.667 280.167,247.667 277.5,247C 274.719,245.061 272.053,242.894 269.5,240.5C 268.833,240.833 268.167,241.167 267.5,241.5C 266.959,237.507 265.292,234.173 262.5,231.5C 261.544,229.925 260.877,228.258 260.5,226.5C 262.216,226.371 263.883,226.038 265.5,225.5 Z"/></g>
<g><path style="opacity:1" fill="#bd625f" d="M 204.5,208.5 C 201.94,213.277 199.107,217.944 196,222.5C 195.506,224.134 195.34,225.801 195.5,227.5C 193.516,227.383 191.85,228.05 190.5,229.5C 188.942,233.032 187.108,236.365 185,239.5C 183.948,245.288 186.115,247.288 191.5,245.5C 191.662,247.527 191.495,249.527 191,251.5C 189.812,250.437 189.312,249.103 189.5,247.5C 186.421,247.26 183.421,247.593 180.5,248.5C 179.571,249.689 179.238,251.022 179.5,252.5C 179.167,252.5 178.833,252.5 178.5,252.5C 177.624,252.631 176.957,252.298 176.5,251.5C 177.764,248.875 178.931,246.208 180,243.5C 185.05,234.811 190.55,226.477 196.5,218.5C 197.906,218.027 198.573,217.027 198.5,215.5C 199.757,212.573 201.757,210.239 204.5,208.5 Z"/></g>
<g><path style="opacity:1" fill="#b7826b" d="M 255.5,223.5 C 255.833,223.5 256.167,223.5 256.5,223.5C 256.125,226.397 256.625,229.063 258,231.5C 259.128,229.655 259.628,227.655 259.5,225.5C 260.167,225.5 260.5,225.833 260.5,226.5C 260.877,228.258 261.544,229.925 262.5,231.5C 265.292,234.173 266.959,237.507 267.5,241.5C 268.167,241.167 268.833,240.833 269.5,240.5C 272.053,242.894 274.719,245.061 277.5,247C 280.167,247.667 282.833,247.667 285.5,247C 286.047,246.075 286.713,245.242 287.5,244.5C 290.322,247.582 291.656,251.248 291.5,255.5C 292.833,255.5 294.167,255.5 295.5,255.5C 295.382,260.8 298.049,263.466 303.5,263.5C 303.842,264.338 304.508,264.672 305.5,264.5C 305.5,265.833 305.5,267.167 305.5,268.5C 304.178,268.33 303.011,268.663 302,269.5C 301.106,266.608 299.44,264.274 297,262.5C 295.513,263.155 294.347,264.155 293.5,265.5C 295.651,269.152 298.651,271.819 302.5,273.5C 303.357,274.736 304.023,276.069 304.5,277.5C 304,278.881 303,279.547 301.5,279.5C 298.585,278.296 296.419,276.296 295,273.5C 294,273.833 293,274.167 292,274.5C 293.345,276.777 295.012,279.11 297,281.5C 297.494,283.134 297.66,284.801 297.5,286.5C 293.522,284.819 290.188,282.152 287.5,278.5C 285.775,277.985 284.108,277.318 282.5,276.5C 285.194,270.769 284.028,270.102 279,274.5C 276.791,271.848 273.958,270.348 270.5,270C 272.645,269.257 272.811,268.424 271,267.5C 269.584,268.573 268.25,268.573 267,267.5C 267.825,264.583 269.659,262.25 272.5,260.5C 271.286,258.931 269.619,258.098 267.5,258C 269.912,255.965 269.245,254.965 265.5,255C 260.894,251.449 257.227,247.116 254.5,242C 253.551,241.383 252.718,241.549 252,242.5C 251.598,241.128 251.098,239.795 250.5,238.5C 252.813,235.948 254.146,232.948 254.5,229.5C 255.461,227.735 255.795,225.735 255.5,223.5 Z"/></g>
<g><path style="opacity:1" fill="#f7c558" d="M 352.5,205.5 C 355.439,206.456 357.772,208.123 359.5,210.5C 356.808,212.546 354.475,215.046 352.5,218C 351.552,218.483 350.552,218.649 349.5,218.5C 348.277,221.911 346.777,225.244 345,228.5C 334.687,241.125 327.521,255.458 323.5,271.5C 322.167,271.5 320.833,271.5 319.5,271.5C 318.694,270.272 317.694,269.272 316.5,268.5C 316.389,267.883 316.056,267.383 315.5,267C 323.13,247.235 332.964,228.735 345,211.5C 347.35,209.317 349.85,207.317 352.5,205.5 Z"/></g>
<g><path style="opacity:0.98" fill="#d18a8a" d="M 371.5,243.5 C 373.253,246.146 374.253,249.146 374.5,252.5C 372.049,250.104 371.049,247.104 371.5,243.5 Z"/></g>
<g><path style="opacity:1" fill="#f1924d" d="M 359.5,210.5 C 362.747,212.559 365.914,214.893 369,217.5C 369.494,219.134 369.66,220.801 369.5,222.5C 367.862,223.159 366.195,223.826 364.5,224.5C 361.48,229.199 357.98,233.533 354,237.5C 352.525,241.596 350.858,245.596 349,249.5C 346.09,250.45 344.923,252.45 345.5,255.5C 341.275,262.338 337.942,269.671 335.5,277.5C 334.167,277.5 332.833,277.5 331.5,277.5C 331.631,276.624 331.298,275.957 330.5,275.5C 326.965,273.434 323.298,272.1 319.5,271.5C 320.833,271.5 322.167,271.5 323.5,271.5C 327.521,255.458 334.687,241.125 345,228.5C 346.777,225.244 348.277,221.911 349.5,218.5C 350.552,218.649 351.552,218.483 352.5,218C 354.475,215.046 356.808,212.546 359.5,210.5 Z"/></g>
<g><path style="opacity:0.408" fill="#db9f9d" d="M 374.5,252.5 C 375.458,254.302 376.125,256.302 376.5,258.5C 374.72,257.01 374.054,255.01 374.5,252.5 Z"/></g>
<g><path style="opacity:1" fill="#ce8c56" d="M 296.5,249.5 C 297.167,251.5 297.833,253.5 298.5,255.5C 299.09,256.766 299.59,258.099 300,259.5C 302.956,259.957 304.789,261.623 305.5,264.5C 304.508,264.672 303.842,264.338 303.5,263.5C 297.519,260.873 295.186,256.206 296.5,249.5 Z"/></g>
<g><path style="opacity:1" fill="#e8b15c" d="M 220.5,261.5 C 220.167,262.833 219.833,264.167 219.5,265.5C 214.545,266.72 209.545,266.72 204.5,265.5C 200.603,263.114 197.103,260.114 194,256.5C 193.192,254.421 193.359,252.421 194.5,250.5C 201.024,259.092 209.69,262.759 220.5,261.5 Z"/></g>
<g><path style="opacity:1" fill="#ee924d" d="M 248.5,237.5 C 250.786,241.897 251.12,246.564 249.5,251.5C 236.418,258.833 226.918,269.5 221,283.5C 220.31,284.738 219.81,284.738 219.5,283.5C 218.356,277.21 218.356,271.21 219.5,265.5C 219.833,264.167 220.167,262.833 220.5,261.5C 221.675,261.719 222.675,261.386 223.5,260.5C 230.249,251.083 238.582,243.417 248.5,237.5 Z"/></g>
<g><path style="opacity:1" fill="#ebb43d" d="M 261.5,267.5 C 264.167,268.833 266.833,270.167 269.5,271.5C 269.5,272.5 269.5,273.5 269.5,274.5C 264.833,283.833 260.167,293.167 255.5,302.5C 255.657,301.127 255.49,299.793 255,298.5C 254.259,297.359 253.425,297.359 252.5,298.5C 251.614,297.675 251.281,296.675 251.5,295.5C 255.985,296.152 257.652,294.485 256.5,290.5C 256.977,289.522 257.643,288.689 258.5,288C 257.5,287.667 256.5,287.333 255.5,287C 257.269,285.981 258.936,285.814 260.5,286.5C 261.452,284.955 261.785,283.288 261.5,281.5C 254.225,279.848 246.891,278.515 239.5,277.5C 239.194,282.816 236.528,286.483 231.5,288.5C 234.606,288.99 237.94,289.657 241.5,290.5C 243.484,290.484 244.484,291.484 244.5,293.5C 240.404,301.567 242.404,303.9 250.5,300.5C 250.5,301.5 250.5,302.5 250.5,303.5C 247.813,303.336 245.146,303.503 242.5,304C 241.572,305.976 240.405,307.809 239,309.5C 237.966,305.346 236.632,301.346 235,297.5C 232.514,294.204 230.681,294.204 229.5,297.5C 229.73,299.626 230.73,301.293 232.5,302.5C 228.843,304.474 226.843,307.474 226.5,311.5C 225.833,310.5 225.167,309.5 224.5,308.5C 223.729,305.546 223.062,302.546 222.5,299.5C 222.5,298.833 222.5,298.167 222.5,297.5C 224.292,291.406 227.125,285.74 231,280.5C 236.508,274.135 242.008,267.802 247.5,261.5C 248.721,260.972 249.887,260.305 251,259.5C 253.336,263.672 256.836,266.338 261.5,267.5 Z"/></g>
<g><path style="opacity:1" fill="#b8826b" d="M 178.5,252.5 C 178.833,252.5 179.167,252.5 179.5,252.5C 183.222,256.176 187.556,257.176 192.5,255.5C 192.92,257.094 193.586,258.594 194.5,260C 193.205,260.702 191.872,261.369 190.5,262C 191.263,262.944 192.263,263.444 193.5,263.5C 195.135,262.954 196.801,262.62 198.5,262.5C 198.5,263.5 198.5,264.5 198.5,265.5C 200.5,265.5 202.5,265.5 204.5,265.5C 209.545,266.72 214.545,266.72 219.5,265.5C 218.356,271.21 218.356,277.21 219.5,283.5C 219.167,283.5 218.833,283.5 218.5,283.5C 217.683,281.031 217.183,278.365 217,275.5C 216.209,276.745 215.709,278.078 215.5,279.5C 213.016,282.266 211.683,285.599 211.5,289.5C 210.942,294.605 209.276,299.272 206.5,303.5C 205.85,303.196 205.183,302.863 204.5,302.5C 204.268,308.761 201.268,312.927 195.5,315C 196.337,316.011 196.67,317.178 196.5,318.5C 194.641,318.461 193.308,319.294 192.5,321C 189.167,321.667 185.833,321.667 182.5,321C 180.165,319.48 180.332,317.98 183,316.5C 183.494,314.866 183.66,313.199 183.5,311.5C 188.217,311.582 188.383,310.248 184,307.5C 183.535,308.931 182.701,310.097 181.5,311C 182.337,312.011 182.67,313.178 182.5,314.5C 179.301,313.826 176.301,313.326 173.5,313C 172.383,309.972 170.716,307.305 168.5,305C 169.305,300.251 169.805,295.418 170,290.5C 171,292.167 172,293.833 173,295.5C 173.101,292.079 173.934,288.912 175.5,286C 174.978,285.05 174.311,284.216 173.5,283.5C 175.556,280.555 177.223,277.388 178.5,274C 177.928,271.709 177.594,269.375 177.5,267C 178.447,262.859 179.114,258.692 179.5,254.5C 179.167,253.833 178.833,253.167 178.5,252.5 Z"/></g>
<g><path style="opacity:1" fill="#f6bf5a" d="M 249.5,251.5 C 251.802,255.296 253.802,259.296 255.5,263.5C 258.292,263.622 260.292,264.956 261.5,267.5C 256.836,266.338 253.336,263.672 251,259.5C 249.887,260.305 248.721,260.972 247.5,261.5C 246.661,260.359 245.994,259.026 245.5,257.5C 244.998,256.479 244.332,256.312 243.5,257C 239.36,262.64 234.693,267.807 229.5,272.5C 227.621,276.881 225.121,280.881 222,284.5C 221.924,288.819 222.091,293.152 222.5,297.5C 222.5,298.167 222.5,298.833 222.5,299.5C 220.563,294.418 219.23,289.085 218.5,283.5C 218.833,283.5 219.167,283.5 219.5,283.5C 219.81,284.738 220.31,284.738 221,283.5C 226.918,269.5 236.418,258.833 249.5,251.5 Z"/></g>
<g><path style="opacity:1" fill="#b98366" d="M 254.5,229.5 C 254.146,232.948 252.813,235.948 250.5,238.5C 251.098,239.795 251.598,241.128 252,242.5C 252.718,241.549 253.551,241.383 254.5,242C 257.227,247.116 260.894,251.449 265.5,255C 269.245,254.965 269.912,255.965 267.5,258C 269.619,258.098 271.286,258.931 272.5,260.5C 269.659,262.25 267.825,264.583 267,267.5C 268.25,268.573 269.584,268.573 271,267.5C 272.811,268.424 272.645,269.257 270.5,270C 273.958,270.348 276.791,271.848 279,274.5C 284.028,270.102 285.194,270.769 282.5,276.5C 284.108,277.318 285.775,277.985 287.5,278.5C 290.188,282.152 293.522,284.819 297.5,286.5C 297.66,284.801 297.494,283.134 297,281.5C 295.012,279.11 293.345,276.777 292,274.5C 293,274.167 294,273.833 295,273.5C 296.419,276.296 298.585,278.296 301.5,279.5C 303,279.547 304,278.881 304.5,277.5C 304.023,276.069 303.357,274.736 302.5,273.5C 298.651,271.819 295.651,269.152 293.5,265.5C 294.347,264.155 295.513,263.155 297,262.5C 299.44,264.274 301.106,266.608 302,269.5C 303.011,268.663 304.178,268.33 305.5,268.5C 305.5,267.167 305.5,265.833 305.5,264.5C 308.98,266.217 312.647,267.55 316.5,268.5C 317.694,269.272 318.694,270.272 319.5,271.5C 323.298,272.1 326.965,273.434 330.5,275.5C 331.298,275.957 331.631,276.624 331.5,277.5C 329.407,276.955 327.407,276.122 325.5,275C 322.331,274.022 319.497,274.522 317,276.5C 316.921,280.358 316.254,284.024 315,287.5C 314.792,284.002 313.959,280.669 312.5,277.5C 313.066,275.303 313.732,273.136 314.5,271C 312.4,268.106 309.733,267.273 306.5,268.5C 309.16,271.07 308.494,272.57 304.5,273C 305.573,274.313 306.24,275.813 306.5,277.5C 304.936,280.306 304.27,283.306 304.5,286.5C 302.365,286.147 301.032,286.98 300.5,289C 301.769,291.084 302.769,293.251 303.5,295.5C 297.197,290.342 290.864,285.175 284.5,280C 279.445,277.143 274.445,274.309 269.5,271.5C 266.833,270.167 264.167,268.833 261.5,267.5C 260.292,264.956 258.292,263.622 255.5,263.5C 253.802,259.296 251.802,255.296 249.5,251.5C 251.12,246.564 250.786,241.897 248.5,237.5C 250.267,234.503 252.267,231.837 254.5,229.5 Z"/></g>
<g><path style="opacity:1" fill="#f6c753" d="M 247.5,261.5 C 242.008,267.802 236.508,274.135 231,280.5C 227.125,285.74 224.292,291.406 222.5,297.5C 222.091,293.152 221.924,288.819 222,284.5C 225.121,280.881 227.621,276.881 229.5,272.5C 234.693,267.807 239.36,262.64 243.5,257C 244.332,256.312 244.998,256.479 245.5,257.5C 245.994,259.026 246.661,260.359 247.5,261.5 Z"/></g>
<g><path style="opacity:1" fill="#b7826a" d="M 331.5,277.5 C 332.833,277.5 334.167,277.5 335.5,277.5C 340.693,278.511 346.027,278.344 351.5,277C 360.371,274.932 369.037,272.432 377.5,269.5C 376.192,270.232 374.858,271.066 373.5,272C 376.033,283.652 377.033,295.486 376.5,307.5C 373.659,313.129 371.659,319.129 370.5,325.5C 369.5,326.833 368.5,328.167 367.5,329.5C 362.515,332.07 357.182,333.07 351.5,332.5C 349.544,331.508 347.544,330.508 345.5,329.5C 343.163,327.604 340.496,326.27 337.5,325.5C 337.5,327.5 337.5,329.5 337.5,331.5C 336.609,332.261 335.942,333.261 335.5,334.5C 330.474,337.43 325.141,339.764 319.5,341.5C 319.5,339.5 319.5,337.5 319.5,335.5C 320.827,332.83 322.327,330.164 324,327.5C 324.916,322.514 325.25,317.514 325,312.5C 320.649,309.592 316.482,306.592 312.5,303.5C 311.391,303.443 310.391,303.11 309.5,302.5C 308.833,301.833 308.167,301.167 307.5,300.5C 306.084,298.821 304.75,297.154 303.5,295.5C 302.769,293.251 301.769,291.084 300.5,289C 301.032,286.98 302.365,286.147 304.5,286.5C 304.27,283.306 304.936,280.306 306.5,277.5C 306.24,275.813 305.573,274.313 304.5,273C 308.494,272.57 309.16,271.07 306.5,268.5C 309.733,267.273 312.4,268.106 314.5,271C 313.732,273.136 313.066,275.303 312.5,277.5C 313.959,280.669 314.792,284.002 315,287.5C 316.254,284.024 316.921,280.358 317,276.5C 319.497,274.522 322.331,274.022 325.5,275C 327.407,276.122 329.407,276.955 331.5,277.5 Z"/></g>
<g><path style="opacity:0.882" fill="#d6bbb0" d="M 215.5,279.5 C 215.118,283.332 213.785,286.665 211.5,289.5C 211.683,285.599 213.016,282.266 215.5,279.5 Z"/></g>
<g><path style="opacity:1" fill="#e7af39" d="M 269.5,274.5 C 276.134,280.826 282.801,287.16 289.5,293.5C 290.844,295.529 292.177,297.529 293.5,299.5C 291.005,298.801 288.672,297.801 286.5,296.5C 287.199,298.995 288.199,301.328 289.5,303.5C 287.833,303.5 286.167,303.5 284.5,303.5C 284.5,305.167 284.5,306.833 284.5,308.5C 283.5,308.5 282.5,308.5 281.5,308.5C 281.799,310.604 281.466,312.604 280.5,314.5C 277.731,319.732 275.231,325.065 273,330.5C 271.034,331.78 269.534,333.447 268.5,335.5C 265.854,337.479 263.521,339.812 261.5,342.5C 260.549,343.326 259.549,343.492 258.5,343C 261.462,340.218 263.795,337.051 265.5,333.5C 267.66,331.199 269.826,328.866 272,326.5C 272.687,324.432 272.52,322.432 271.5,320.5C 272.415,319.672 273.081,318.672 273.5,317.5C 272.837,314.194 272.337,310.861 272,307.5C 271.309,314.145 268.476,315.145 263.5,310.5C 262.939,308.574 262.773,306.574 263,304.5C 262.022,306.475 260.689,308.142 259,309.5C 257.452,308.316 255.952,308.483 254.5,310C 252.368,313.631 249.701,316.798 246.5,319.5C 245.479,318.998 245.312,318.332 246,317.5C 249.919,313.324 253.086,308.657 255.5,303.5C 255.5,303.167 255.5,302.833 255.5,302.5C 260.167,293.167 264.833,283.833 269.5,274.5 Z"/></g>
<g><path style="opacity:1" fill="#d89633" d="M 269.5,271.5 C 274.445,274.309 279.445,277.143 284.5,280C 290.864,285.175 297.197,290.342 303.5,295.5C 304.75,297.154 306.084,298.821 307.5,300.5C 305.179,302.09 304.179,304.423 304.5,307.5C 302.289,307.033 300.289,306.033 298.5,304.5C 297.097,302.43 295.43,300.763 293.5,299.5C 292.177,297.529 290.844,295.529 289.5,293.5C 282.801,287.16 276.134,280.826 269.5,274.5C 269.5,273.5 269.5,272.5 269.5,271.5 Z"/></g>
<g><path style="opacity:1" fill="#e48e39" d="M 241.5,290.5 C 243.357,294.08 242.357,296.414 238.5,297.5C 235.908,295.974 234.908,293.641 235.5,290.5C 237.5,290.5 239.5,290.5 241.5,290.5 Z"/></g>
<g><path style="opacity:1" fill="#eab43d" d="M 293.5,299.5 C 295.43,300.763 297.097,302.43 298.5,304.5C 300.289,306.033 302.289,307.033 304.5,307.5C 304.179,304.423 305.179,302.09 307.5,300.5C 308.167,301.167 308.833,301.833 309.5,302.5C 309.384,305.86 309.051,309.193 308.5,312.5C 307.251,311.222 305.751,310.222 304,309.5C 298.769,324.24 294.603,339.24 291.5,354.5C 268.5,354.5 245.5,354.5 222.5,354.5C 222.833,352.5 223.167,350.5 223.5,348.5C 223.5,347.5 223.5,346.5 223.5,345.5C 224.497,345.53 225.164,345.03 225.5,344C 227.526,335.077 227.86,326.244 226.5,317.5C 226.5,316.5 226.5,315.5 226.5,314.5C 228.436,318.715 229.103,323.381 228.5,328.5C 228.754,336.804 227.421,344.804 224.5,352.5C 245.503,352.667 266.503,352.5 287.5,352C 288.672,351.581 289.672,350.915 290.5,350C 289.155,347.676 288.822,345.342 289.5,343C 287.893,343.019 286.226,343.185 284.5,343.5C 284.5,340.167 282.833,338.5 279.5,338.5C 279.321,336.394 278.321,334.728 276.5,333.5C 274.132,335.223 271.466,335.89 268.5,335.5C 269.534,333.447 271.034,331.78 273,330.5C 275.231,325.065 277.731,319.732 280.5,314.5C 281.466,312.604 281.799,310.604 281.5,308.5C 282.5,308.5 283.5,308.5 284.5,308.5C 284.5,306.833 284.5,305.167 284.5,303.5C 286.167,303.5 287.833,303.5 289.5,303.5C 288.199,301.328 287.199,298.995 286.5,296.5C 288.672,297.801 291.005,298.801 293.5,299.5 Z"/></g>
<g><path style="opacity:1" fill="#ebb53b" d="M 255.5,302.5 C 255.5,302.833 255.5,303.167 255.5,303.5C 251.224,304.281 248.724,306.948 248,311.5C 247.683,309.699 247.016,309.366 246,310.5C 245.218,314.359 243.551,317.692 241,320.5C 240.617,319.944 240.117,319.611 239.5,319.5C 239.635,316.183 240.135,312.849 241,309.5C 238.563,312.376 237.23,315.71 237,319.5C 236.02,317.941 235.187,316.274 234.5,314.5C 233.472,316.361 231.972,317.695 230,318.5C 229.821,322.025 229.321,325.359 228.5,328.5C 229.103,323.381 228.436,318.715 226.5,314.5C 226.5,313.5 226.5,312.5 226.5,311.5C 226.843,307.474 228.843,304.474 232.5,302.5C 230.73,301.293 229.73,299.626 229.5,297.5C 230.681,294.204 232.514,294.204 235,297.5C 236.632,301.346 237.966,305.346 239,309.5C 240.405,307.809 241.572,305.976 242.5,304C 245.146,303.503 247.813,303.336 250.5,303.5C 250.5,302.5 250.5,301.5 250.5,300.5C 242.404,303.9 240.404,301.567 244.5,293.5C 244.484,291.484 243.484,290.484 241.5,290.5C 237.94,289.657 234.606,288.99 231.5,288.5C 236.528,286.483 239.194,282.816 239.5,277.5C 246.891,278.515 254.225,279.848 261.5,281.5C 261.785,283.288 261.452,284.955 260.5,286.5C 258.936,285.814 257.269,285.981 255.5,287C 256.5,287.333 257.5,287.667 258.5,288C 257.643,288.689 256.977,289.522 256.5,290.5C 257.652,294.485 255.985,296.152 251.5,295.5C 251.281,296.675 251.614,297.675 252.5,298.5C 253.425,297.359 254.259,297.359 255,298.5C 255.49,299.793 255.657,301.127 255.5,302.5 Z"/></g>
<g><path style="opacity:1" fill="#b88a76" d="M 179.5,254.5 C 179.114,258.692 178.447,262.859 177.5,267C 177.594,269.375 177.928,271.709 178.5,274C 177.223,277.388 175.556,280.555 173.5,283.5C 174.311,284.216 174.978,285.05 175.5,286C 173.934,288.912 173.101,292.079 173,295.5C 172,293.833 171,292.167 170,290.5C 169.805,295.418 169.305,300.251 168.5,305C 170.716,307.305 172.383,309.972 173.5,313C 176.301,313.326 179.301,313.826 182.5,314.5C 182.67,313.178 182.337,312.011 181.5,311C 182.701,310.097 183.535,308.931 184,307.5C 188.383,310.248 188.217,311.582 183.5,311.5C 183.66,313.199 183.494,314.866 183,316.5C 180.332,317.98 180.165,319.48 182.5,321C 185.833,321.667 189.167,321.667 192.5,321C 193.308,319.294 194.641,318.461 196.5,318.5C 196.67,317.178 196.337,316.011 195.5,315C 201.268,312.927 204.268,308.761 204.5,302.5C 205.183,302.863 205.85,303.196 206.5,303.5C 204.841,312.49 199.841,318.824 191.5,322.5C 187.833,322.5 184.167,322.5 180.5,322.5C 176.279,320.778 172.779,318.112 170,314.5C 167.651,309.604 166.485,304.438 166.5,299C 168.293,283.309 172.627,268.476 179.5,254.5 Z"/></g>
<g><path style="opacity:1" fill="#ebb43a" d="M 255.5,303.5 C 253.086,308.657 249.919,313.324 246,317.5C 245.312,318.332 245.479,318.998 246.5,319.5C 249.701,316.798 252.368,313.631 254.5,310C 255.952,308.483 257.452,308.316 259,309.5C 260.689,308.142 262.022,306.475 263,304.5C 262.773,306.574 262.939,308.574 263.5,310.5C 268.476,315.145 271.309,314.145 272,307.5C 272.337,310.861 272.837,314.194 273.5,317.5C 273.081,318.672 272.415,319.672 271.5,320.5C 272.52,322.432 272.687,324.432 272,326.5C 269.826,328.866 267.66,331.199 265.5,333.5C 265.082,332.778 264.416,332.278 263.5,332C 260.854,331.503 258.187,331.336 255.5,331.5C 255.5,332.833 255.5,334.167 255.5,335.5C 250.489,335.666 245.489,335.499 240.5,335C 237.823,330.525 236.99,325.691 238,320.5C 238.383,319.944 238.883,319.611 239.5,319.5C 240.117,319.611 240.617,319.944 241,320.5C 243.551,317.692 245.218,314.359 246,310.5C 247.016,309.366 247.683,309.699 248,311.5C 248.724,306.948 251.224,304.281 255.5,303.5 Z"/></g>
<g><path style="opacity:1" fill="#c77c55" d="M 312.5,303.5 C 316.482,306.592 320.649,309.592 325,312.5C 325.25,317.514 324.916,322.514 324,327.5C 322.327,330.164 320.827,332.83 319.5,335.5C 319.958,331.462 320.624,327.462 321.5,323.5C 322.641,320.36 322.808,317.027 322,313.5C 318.585,311.431 315.418,309.098 312.5,306.5C 312.5,305.5 312.5,304.5 312.5,303.5 Z"/></g>
<g><path style="opacity:0.039" fill="#ffedc0" d="M 224.5,308.5 C 225.167,309.5 225.833,310.5 226.5,311.5C 226.5,312.5 226.5,313.5 226.5,314.5C 226.5,315.5 226.5,316.5 226.5,317.5C 225.343,314.727 224.676,311.727 224.5,308.5 Z"/></g>
<g><path style="opacity:0.876" fill="#d1b1a5" d="M 376.5,307.5 C 376.262,314.214 374.262,320.214 370.5,325.5C 371.659,319.129 373.659,313.129 376.5,307.5 Z"/></g>
<g><path style="opacity:1" fill="#d67038" d="M 312.5,306.5 C 315.418,309.098 318.585,311.431 322,313.5C 322.808,317.027 322.641,320.36 321.5,323.5C 319.188,321.364 316.688,319.364 314,317.5C 312.331,315.831 311.498,313.831 311.5,311.5C 311.216,309.585 311.549,307.919 312.5,306.5 Z"/></g>
<g><path style="opacity:0.149" fill="#ebdfdb" d="M 180.5,322.5 C 184.167,322.5 187.833,322.5 191.5,322.5C 191.5,322.833 191.5,323.167 191.5,323.5C 186.493,323.751 181.493,324.084 176.5,324.5C 177.833,323.833 179.167,323.167 180.5,322.5 Z"/></g>
<g><path style="opacity:0.31" fill="#aaaebf" d="M 164.5,326.5 C 163.486,327.674 162.153,328.34 160.5,328.5C 161.287,326.896 162.62,326.229 164.5,326.5 Z"/></g>
<g><path style="opacity:1" fill="#ef8e4e" d="M 311.5,311.5 C 311.498,313.831 312.331,315.831 314,317.5C 316.688,319.364 319.188,321.364 321.5,323.5C 320.624,327.462 319.958,331.462 319.5,335.5C 319.5,337.5 319.5,339.5 319.5,341.5C 318.778,345.286 317.445,348.62 315.5,351.5C 315.777,346.114 316.444,340.781 317.5,335.5C 315.058,335.354 314.391,336.187 315.5,338C 313.821,339.826 312.654,341.992 312,344.5C 310.784,342.038 310.118,339.371 310,336.5C 309.333,335.833 308.667,335.167 308,334.5C 309.648,326.905 310.815,319.239 311.5,311.5 Z"/></g>
<g><path style="opacity:1" fill="#ebb53b" d="M 239.5,319.5 C 238.883,319.611 238.383,319.944 238,320.5C 236.99,325.691 237.823,330.525 240.5,335C 245.489,335.499 250.489,335.666 255.5,335.5C 255.5,334.167 255.5,332.833 255.5,331.5C 258.187,331.336 260.854,331.503 263.5,332C 264.416,332.278 265.082,332.778 265.5,333.5C 263.795,337.051 261.462,340.218 258.5,343C 259.549,343.492 260.549,343.326 261.5,342.5C 263.521,339.812 265.854,337.479 268.5,335.5C 271.466,335.89 274.132,335.223 276.5,333.5C 278.321,334.728 279.321,336.394 279.5,338.5C 282.833,338.5 284.5,340.167 284.5,343.5C 286.226,343.185 287.893,343.019 289.5,343C 288.822,345.342 289.155,347.676 290.5,350C 289.672,350.915 288.672,351.581 287.5,352C 266.503,352.5 245.503,352.667 224.5,352.5C 227.421,344.804 228.754,336.804 228.5,328.5C 229.321,325.359 229.821,322.025 230,318.5C 231.972,317.695 233.472,316.361 234.5,314.5C 235.187,316.274 236.02,317.941 237,319.5C 237.23,315.71 238.563,312.376 241,309.5C 240.135,312.849 239.635,316.183 239.5,319.5 Z"/></g>
<g><path style="opacity:0.314" fill="#8e99a4" d="M 217.5,328.5 C 218.725,329.152 219.392,330.319 219.5,332C 219.486,333.385 219.152,334.551 218.5,335.5C 218.702,333.05 218.369,330.717 217.5,328.5 Z"/></g>
<g><path style="opacity:1" fill="#be5450" d="M 337.5,331.5 C 338.958,333.932 340.125,336.599 341,339.5C 342.172,344.506 343.339,349.506 344.5,354.5C 343.833,354.5 343.5,354.833 343.5,355.5C 334.167,355.5 324.833,355.5 315.5,355.5C 315.5,355.167 315.5,354.833 315.5,354.5C 315.5,353.5 315.5,352.5 315.5,351.5C 317.445,348.62 318.778,345.286 319.5,341.5C 325.141,339.764 330.474,337.43 335.5,334.5C 335.942,333.261 336.609,332.261 337.5,331.5 Z"/></g>
<g><path style="opacity:1" fill="#f7c758" d="M 308.5,312.5 C 309.629,314.628 309.796,316.961 309,319.5C 305.404,331.067 302.238,342.734 299.5,354.5C 296.833,354.5 294.167,354.5 291.5,354.5C 294.603,339.24 298.769,324.24 304,309.5C 305.751,310.222 307.251,311.222 308.5,312.5 Z"/></g>
<g><path style="opacity:1" fill="#ef964c" d="M 309.5,302.5 C 310.391,303.11 311.391,303.443 312.5,303.5C 312.5,304.5 312.5,305.5 312.5,306.5C 311.549,307.919 311.216,309.585 311.5,311.5C 310.815,319.239 309.648,326.905 308,334.5C 308.667,335.167 309.333,335.833 310,336.5C 310.118,339.371 310.784,342.038 312,344.5C 312.654,341.992 313.821,339.826 315.5,338C 314.391,336.187 315.058,335.354 317.5,335.5C 316.444,340.781 315.777,346.114 315.5,351.5C 315.5,352.5 315.5,353.5 315.5,354.5C 310.167,354.5 304.833,354.5 299.5,354.5C 302.238,342.734 305.404,331.067 309,319.5C 309.796,316.961 309.629,314.628 308.5,312.5C 309.051,309.193 309.384,305.86 309.5,302.5 Z"/></g>
<g><path style="opacity:1" fill="#3c4e5b" d="M 191.5,323.5 C 197.545,323.428 203.545,323.928 209.5,325C 212.599,325.387 215.266,326.554 217.5,328.5C 218.369,330.717 218.702,333.05 218.5,335.5C 216.981,343.68 212.314,349.014 204.5,351.5C 205.085,354.261 204.085,355.927 201.5,356.5C 192.315,356.537 182.982,356.204 173.5,355.5C 173.5,354.167 173.5,352.833 173.5,351.5C 162.131,347.758 157.798,340.092 160.5,328.5C 162.153,328.34 163.486,327.674 164.5,326.5C 168.326,325 172.326,324.334 176.5,324.5C 181.493,324.084 186.493,323.751 191.5,323.5 Z"/></g>
<g><path style="opacity:1" fill="#394d49" d="M 192.5,328.5 C 192.5,328.167 192.5,327.833 192.5,327.5C 200.989,327.528 209.323,328.528 217.5,330.5C 217.5,331.5 217.5,332.5 217.5,333.5C 216.167,333.5 214.833,333.5 213.5,333.5C 213.865,337.476 212.365,338.476 209,336.5C 197.685,339.128 186.518,339.128 175.5,336.5C 187.618,337.073 199.618,336.24 211.5,334C 212.458,332.853 212.125,331.853 210.5,331C 206.94,329.763 203.273,329.263 199.5,329.5C 197.393,328.532 195.059,328.198 192.5,328.5 Z"/></g>
<g><path style="opacity:1" fill="#8ea54d" d="M 192.5,328.5 C 195.059,328.198 197.393,328.532 199.5,329.5C 200.568,330.434 201.901,330.768 203.5,330.5C 203.5,331.833 203.5,333.167 203.5,334.5C 194.167,334.5 184.833,334.5 175.5,334.5C 175.5,333.167 175.5,331.833 175.5,330.5C 177.415,330.784 179.081,330.451 180.5,329.5C 184.298,328.517 188.298,328.183 192.5,328.5 Z"/></g>
<g><path style="opacity:1" fill="#809751" d="M 180.5,329.5 C 179.081,330.451 177.415,330.784 175.5,330.5C 175.5,331.833 175.5,333.167 175.5,334.5C 184.833,334.5 194.167,334.5 203.5,334.5C 203.5,333.167 203.5,331.833 203.5,330.5C 201.901,330.768 200.568,330.434 199.5,329.5C 203.273,329.263 206.94,329.763 210.5,331C 212.125,331.853 212.458,332.853 211.5,334C 199.618,336.24 187.618,337.073 175.5,336.5C 172.997,335.629 170.33,334.963 167.5,334.5C 166.316,333.312 166.316,332.145 167.5,331C 171.751,329.805 176.085,329.305 180.5,329.5 Z"/></g>
<g><path style="opacity:1" fill="#54694e" d="M 192.5,327.5 C 192.5,327.833 192.5,328.167 192.5,328.5C 188.298,328.183 184.298,328.517 180.5,329.5C 176.085,329.305 171.751,329.805 167.5,331C 166.316,332.145 166.316,333.312 167.5,334.5C 166.078,334.291 164.745,333.791 163.5,333C 164.977,330.852 166.977,329.518 169.5,329C 177.138,328.015 184.804,327.515 192.5,327.5 Z"/></g>
<g><path style="opacity:1" fill="#efd08e" d="M 226.5,317.5 C 227.86,326.244 227.526,335.077 225.5,344C 225.164,345.03 224.497,345.53 223.5,345.5C 225.99,336.347 226.99,327.013 226.5,317.5 Z"/></g>
<g><path style="opacity:1" fill="#dda03e" d="M 345.5,329.5 C 344.5,329.5 343.5,329.5 342.5,329.5C 341.123,337.286 342.457,344.62 346.5,351.5C 347.478,351.023 348.311,350.357 349,349.5C 349.249,350.624 349.749,351.624 350.5,352.5C 352.332,351.752 353.999,350.752 355.5,349.5C 358.899,351.312 362.566,351.979 366.5,351.5C 366.5,345.167 366.5,338.833 366.5,332.5C 361.355,333.691 356.355,333.691 351.5,332.5C 357.182,333.07 362.515,332.07 367.5,329.5C 368.26,335.804 368.593,342.137 368.5,348.5C 368.5,350.5 368.5,352.5 368.5,354.5C 360.5,354.5 352.5,354.5 344.5,354.5C 343.339,349.506 342.172,344.506 341,339.5C 340.125,336.599 338.958,333.932 337.5,331.5C 337.5,329.5 337.5,327.5 337.5,325.5C 340.496,326.27 343.163,327.604 345.5,329.5 Z"/></g>
<g><path style="opacity:1" fill="#e1a132" d="M 345.5,329.5 C 347.544,330.508 349.544,331.508 351.5,332.5C 356.355,333.691 361.355,333.691 366.5,332.5C 366.5,338.833 366.5,345.167 366.5,351.5C 362.566,351.979 358.899,351.312 355.5,349.5C 353.999,350.752 352.332,351.752 350.5,352.5C 349.749,351.624 349.249,350.624 349,349.5C 348.311,350.357 347.478,351.023 346.5,351.5C 342.457,344.62 341.123,337.286 342.5,329.5C 343.5,329.5 344.5,329.5 345.5,329.5 Z"/></g>
<g><path style="opacity:0.454" fill="#f1c982" d="M 223.5,348.5 C 223.167,350.5 222.833,352.5 222.5,354.5C 245.5,354.5 268.5,354.5 291.5,354.5C 294.167,354.5 296.833,354.5 299.5,354.5C 304.833,354.5 310.167,354.5 315.5,354.5C 315.5,354.833 315.5,355.167 315.5,355.5C 284.167,355.5 252.833,355.5 221.5,355.5C 221.171,352.772 221.837,350.438 223.5,348.5 Z"/></g>
<g><path style="opacity:0.493" fill="#e8bf79" d="M 368.5,348.5 C 369.468,350.607 369.802,352.941 369.5,355.5C 360.833,355.5 352.167,355.5 343.5,355.5C 343.5,354.833 343.833,354.5 344.5,354.5C 352.5,354.5 360.5,354.5 368.5,354.5C 368.5,352.5 368.5,350.5 368.5,348.5 Z"/></g>
</svg>
